<svg xmlns="http://www.w3.org/2000/svg" xmlns:xlink="http://www.w3.org/1999/xlink" width="1920" zoomAndPan="magnify" viewBox="0 0 1440 809.999993" height="1080" preserveAspectRatio="xMidYMid meet" version="1.0"><defs><filter x="0%" y="0%" width="100%" height="100%" id="b5ac45b270"><feColorMatrix values="0 0 0 0 1 0 0 0 0 1 0 0 0 0 1 0 0 0 1 0" color-interpolation-filters="sRGB"/></filter><mask id="adfc752757"><g filter="url(#b5ac45b270)"><rect x="-144" width="1728" fill="#000000" y="-80.999999" height="971.999992" fill-opacity="0.7373"/></g></mask><clipPath id="ab973f78e0"><path d="M 0.789062 0.824219 L 70.539062 0.824219 L 70.539062 90 L 0.789062 90 Z M 0.789062 0.824219 " clip-rule="nonzero"/></clipPath><clipPath id="397a23eb6b"><rect x="0" width="72" y="0" height="92"/></clipPath><mask id="2957f168c2"><g filter="url(#b5ac45b270)"><rect x="-144" width="1728" fill="#000000" y="-80.999999" height="971.999992" fill-opacity="0.7373"/></g></mask><clipPath id="2d60ff7f45"><path d="M 0 7 L 56 7 L 56 98 L 0 98 Z M 0 7 " clip-rule="nonzero"/></clipPath><clipPath id="0dc1097855"><path d="M 41.460938 -1.835938 L 61.988281 11.992188 L 3.3125 99.070312 L -17.210938 85.238281 Z M 41.460938 -1.835938 " clip-rule="nonzero"/></clipPath><clipPath id="db079d4154"><path d="M 41.460938 -1.835938 L 61.988281 11.992188 L 3.3125 99.070312 L -17.210938 85.238281 Z M 41.460938 -1.835938 " clip-rule="nonzero"/></clipPath><clipPath id="3beb16032f"><rect x="0" width="60" y="0" height="99"/></clipPath><clipPath id="dfaf9881e4"><path d="M 990 128 L 1026 128 L 1026 158 L 990 158 Z M 990 128 " clip-rule="nonzero"/></clipPath><clipPath id="f7f4597280"><path d="M 994.53125 120.074219 L 1077.960938 134.980469 L 1067.277344 194.785156 L 983.847656 179.878906 Z M 994.53125 120.074219 " clip-rule="nonzero"/></clipPath><clipPath id="d0201343e3"><path d="M 994.53125 120.074219 L 1077.960938 134.980469 L 1067.277344 194.785156 L 983.847656 179.878906 Z M 994.53125 120.074219 " clip-rule="nonzero"/></clipPath><clipPath id="9fc3cbfad1"><path d="M 1045 132 L 1076 132 L 1076 158 L 1045 158 Z M 1045 132 " clip-rule="nonzero"/></clipPath><clipPath id="2097bf46e1"><path d="M 994.53125 120.074219 L 1077.960938 134.980469 L 1067.277344 194.785156 L 983.847656 179.878906 Z M 994.53125 120.074219 " clip-rule="nonzero"/></clipPath><clipPath id="7f9bc8bd0d"><path d="M 994.53125 120.074219 L 1077.960938 134.980469 L 1067.277344 194.785156 L 983.847656 179.878906 Z M 994.53125 120.074219 " clip-rule="nonzero"/></clipPath><clipPath id="9e8fae16d4"><path d="M 1013 150 L 1061 150 L 1061 189 L 1013 189 Z M 1013 150 " clip-rule="nonzero"/></clipPath><clipPath id="24f666d1d8"><path d="M 994.53125 120.074219 L 1077.960938 134.980469 L 1067.277344 194.785156 L 983.847656 179.878906 Z M 994.53125 120.074219 " clip-rule="nonzero"/></clipPath><clipPath id="a9d6fd2ef3"><path d="M 994.53125 120.074219 L 1077.960938 134.980469 L 1067.277344 194.785156 L 983.847656 179.878906 Z M 994.53125 120.074219 " clip-rule="nonzero"/></clipPath><clipPath id="a6c7122f80"><path d="M 1087 334 L 1103 334 L 1103 355 L 1087 355 Z M 1087 334 " clip-rule="nonzero"/></clipPath><clipPath id="d3235142c4"><path d="M 1251.242188 448.488281 L 1053.988281 487.121094 L 1018.238281 304.589844 L 1215.492188 265.957031 Z M 1251.242188 448.488281 " clip-rule="nonzero"/></clipPath><clipPath id="73f5d622fc"><path d="M 1251.242188 448.488281 L 1053.988281 487.121094 L 1018.238281 304.589844 L 1215.492188 265.957031 Z M 1251.242188 448.488281 " clip-rule="nonzero"/></clipPath><clipPath id="dcdf3cecd6"><path d="M 1043 347 L 1056 347 L 1056 367 L 1043 367 Z M 1043 347 " clip-rule="nonzero"/></clipPath><clipPath id="f2789af31b"><path d="M 1251.242188 448.488281 L 1053.988281 487.121094 L 1018.238281 304.589844 L 1215.492188 265.957031 Z M 1251.242188 448.488281 " clip-rule="nonzero"/></clipPath><clipPath id="d5432421e5"><path d="M 1251.242188 448.488281 L 1053.988281 487.121094 L 1018.238281 304.589844 L 1215.492188 265.957031 Z M 1251.242188 448.488281 " clip-rule="nonzero"/></clipPath><clipPath id="ec68a36524"><path d="M 1070 321 L 1083 321 L 1083 339 L 1070 339 Z M 1070 321 " clip-rule="nonzero"/></clipPath><clipPath id="3fbd1e1d6f"><path d="M 1251.242188 448.488281 L 1053.988281 487.121094 L 1018.238281 304.589844 L 1215.492188 265.957031 Z M 1251.242188 448.488281 " clip-rule="nonzero"/></clipPath><clipPath id="78456159fe"><path d="M 1251.242188 448.488281 L 1053.988281 487.121094 L 1018.238281 304.589844 L 1215.492188 265.957031 Z M 1251.242188 448.488281 " clip-rule="nonzero"/></clipPath><clipPath id="2d8fc36d48"><path d="M 1117 309 L 1131 309 L 1131 327 L 1117 327 Z M 1117 309 " clip-rule="nonzero"/></clipPath><clipPath id="800ea7966d"><path d="M 1251.242188 448.488281 L 1053.988281 487.121094 L 1018.238281 304.589844 L 1215.492188 265.957031 Z M 1251.242188 448.488281 " clip-rule="nonzero"/></clipPath><clipPath id="dcdf50be84"><path d="M 1251.242188 448.488281 L 1053.988281 487.121094 L 1018.238281 304.589844 L 1215.492188 265.957031 Z M 1251.242188 448.488281 " clip-rule="nonzero"/></clipPath><clipPath id="b0403938d0"><path d="M 1139 323 L 1150 323 L 1150 341 L 1139 341 Z M 1139 323 " clip-rule="nonzero"/></clipPath><clipPath id="1ecc21a067"><path d="M 1251.242188 448.488281 L 1053.988281 487.121094 L 1018.238281 304.589844 L 1215.492188 265.957031 Z M 1251.242188 448.488281 " clip-rule="nonzero"/></clipPath><clipPath id="698a7e2de7"><path d="M 1251.242188 448.488281 L 1053.988281 487.121094 L 1018.238281 304.589844 L 1215.492188 265.957031 Z M 1251.242188 448.488281 " clip-rule="nonzero"/></clipPath><clipPath id="3b472027bd"><path d="M 1146 358 L 1155 358 L 1155 381 L 1146 381 Z M 1146 358 " clip-rule="nonzero"/></clipPath><clipPath id="e44342d66e"><path d="M 1251.242188 448.488281 L 1053.988281 487.121094 L 1018.238281 304.589844 L 1215.492188 265.957031 Z M 1251.242188 448.488281 " clip-rule="nonzero"/></clipPath><clipPath id="b349505b54"><path d="M 1251.242188 448.488281 L 1053.988281 487.121094 L 1018.238281 304.589844 L 1215.492188 265.957031 Z M 1251.242188 448.488281 " clip-rule="nonzero"/></clipPath><clipPath id="88563e210d"><path d="M 1117 388 L 1126 388 L 1126 407 L 1117 407 Z M 1117 388 " clip-rule="nonzero"/></clipPath><clipPath id="e2e7b25172"><path d="M 1251.242188 448.488281 L 1053.988281 487.121094 L 1018.238281 304.589844 L 1215.492188 265.957031 Z M 1251.242188 448.488281 " clip-rule="nonzero"/></clipPath><clipPath id="d634d33fc7"><path d="M 1251.242188 448.488281 L 1053.988281 487.121094 L 1018.238281 304.589844 L 1215.492188 265.957031 Z M 1251.242188 448.488281 " clip-rule="nonzero"/></clipPath><clipPath id="4aa4163a88"><path d="M 1099 426 L 1106 426 L 1106 446 L 1099 446 Z M 1099 426 " clip-rule="nonzero"/></clipPath><clipPath id="683403b6cf"><path d="M 1251.242188 448.488281 L 1053.988281 487.121094 L 1018.238281 304.589844 L 1215.492188 265.957031 Z M 1251.242188 448.488281 " clip-rule="nonzero"/></clipPath><clipPath id="242d313a6e"><path d="M 1251.242188 448.488281 L 1053.988281 487.121094 L 1018.238281 304.589844 L 1215.492188 265.957031 Z M 1251.242188 448.488281 " clip-rule="nonzero"/></clipPath><clipPath id="11e960bab5"><path d="M 1075 434 L 1083 434 L 1083 454 L 1075 454 Z M 1075 434 " clip-rule="nonzero"/></clipPath><clipPath id="9389af983c"><path d="M 1251.242188 448.488281 L 1053.988281 487.121094 L 1018.238281 304.589844 L 1215.492188 265.957031 Z M 1251.242188 448.488281 " clip-rule="nonzero"/></clipPath><clipPath id="fde4fec22d"><path d="M 1251.242188 448.488281 L 1053.988281 487.121094 L 1018.238281 304.589844 L 1215.492188 265.957031 Z M 1251.242188 448.488281 " clip-rule="nonzero"/></clipPath><clipPath id="af2411e79a"><path d="M 1089 396 L 1099 396 L 1099 416 L 1089 416 Z M 1089 396 " clip-rule="nonzero"/></clipPath><clipPath id="a8917193d6"><path d="M 1251.242188 448.488281 L 1053.988281 487.121094 L 1018.238281 304.589844 L 1215.492188 265.957031 Z M 1251.242188 448.488281 " clip-rule="nonzero"/></clipPath><clipPath id="a20de7d871"><path d="M 1251.242188 448.488281 L 1053.988281 487.121094 L 1018.238281 304.589844 L 1215.492188 265.957031 Z M 1251.242188 448.488281 " clip-rule="nonzero"/></clipPath><clipPath id="95a8368e73"><path d="M 1061 410 L 1070 410 L 1070 426 L 1061 426 Z M 1061 410 " clip-rule="nonzero"/></clipPath><clipPath id="4bf3b05146"><path d="M 1251.242188 448.488281 L 1053.988281 487.121094 L 1018.238281 304.589844 L 1215.492188 265.957031 Z M 1251.242188 448.488281 " clip-rule="nonzero"/></clipPath><clipPath id="fcc2ee0ee1"><path d="M 1251.242188 448.488281 L 1053.988281 487.121094 L 1018.238281 304.589844 L 1215.492188 265.957031 Z M 1251.242188 448.488281 " clip-rule="nonzero"/></clipPath><clipPath id="cba0fbb0d6"><path d="M 1101 290 L 1120 290 L 1120 304 L 1101 304 Z M 1101 290 " clip-rule="nonzero"/></clipPath><clipPath id="9e30449a40"><path d="M 1251.242188 448.488281 L 1053.988281 487.121094 L 1018.238281 304.589844 L 1215.492188 265.957031 Z M 1251.242188 448.488281 " clip-rule="nonzero"/></clipPath><clipPath id="7816ea174c"><path d="M 1251.242188 448.488281 L 1053.988281 487.121094 L 1018.238281 304.589844 L 1215.492188 265.957031 Z M 1251.242188 448.488281 " clip-rule="nonzero"/></clipPath><clipPath id="fbb895933a"><path d="M 1145 277 L 1164 277 L 1164 288 L 1145 288 Z M 1145 277 " clip-rule="nonzero"/></clipPath><clipPath id="c197c89ef2"><path d="M 1251.242188 448.488281 L 1053.988281 487.121094 L 1018.238281 304.589844 L 1215.492188 265.957031 Z M 1251.242188 448.488281 " clip-rule="nonzero"/></clipPath><clipPath id="013ee3f265"><path d="M 1251.242188 448.488281 L 1053.988281 487.121094 L 1018.238281 304.589844 L 1215.492188 265.957031 Z M 1251.242188 448.488281 " clip-rule="nonzero"/></clipPath><clipPath id="571c30d2b1"><path d="M 1160 291 L 1180 291 L 1180 304 L 1160 304 Z M 1160 291 " clip-rule="nonzero"/></clipPath><clipPath id="c82ba65ee8"><path d="M 1251.242188 448.488281 L 1053.988281 487.121094 L 1018.238281 304.589844 L 1215.492188 265.957031 Z M 1251.242188 448.488281 " clip-rule="nonzero"/></clipPath><clipPath id="4a3d2c2a87"><path d="M 1251.242188 448.488281 L 1053.988281 487.121094 L 1018.238281 304.589844 L 1215.492188 265.957031 Z M 1251.242188 448.488281 " clip-rule="nonzero"/></clipPath><clipPath id="3b7e1e82c2"><path d="M 1184 300 L 1205 300 L 1205 316 L 1184 316 Z M 1184 300 " clip-rule="nonzero"/></clipPath><clipPath id="ab90f3ba59"><path d="M 1251.242188 448.488281 L 1053.988281 487.121094 L 1018.238281 304.589844 L 1215.492188 265.957031 Z M 1251.242188 448.488281 " clip-rule="nonzero"/></clipPath><clipPath id="12d5531cdb"><path d="M 1251.242188 448.488281 L 1053.988281 487.121094 L 1018.238281 304.589844 L 1215.492188 265.957031 Z M 1251.242188 448.488281 " clip-rule="nonzero"/></clipPath><clipPath id="4db7bcb01c"><path d="M 1138 400 L 1146 400 L 1146 420 L 1138 420 Z M 1138 400 " clip-rule="nonzero"/></clipPath><clipPath id="f9e542faba"><path d="M 1251.242188 448.488281 L 1053.988281 487.121094 L 1018.238281 304.589844 L 1215.492188 265.957031 Z M 1251.242188 448.488281 " clip-rule="nonzero"/></clipPath><clipPath id="97bb281046"><path d="M 1251.242188 448.488281 L 1053.988281 487.121094 L 1018.238281 304.589844 L 1215.492188 265.957031 Z M 1251.242188 448.488281 " clip-rule="nonzero"/></clipPath><clipPath id="8b4fcc13cd"><path d="M 1127 429 L 1139 429 L 1139 447 L 1127 447 Z M 1127 429 " clip-rule="nonzero"/></clipPath><clipPath id="d4ac03b293"><path d="M 1251.242188 448.488281 L 1053.988281 487.121094 L 1018.238281 304.589844 L 1215.492188 265.957031 Z M 1251.242188 448.488281 " clip-rule="nonzero"/></clipPath><clipPath id="d04cd559a5"><path d="M 1251.242188 448.488281 L 1053.988281 487.121094 L 1018.238281 304.589844 L 1215.492188 265.957031 Z M 1251.242188 448.488281 " clip-rule="nonzero"/></clipPath><clipPath id="ea8572f4dd"><path d="M 1104 461 L 1121 461 L 1121 475 L 1104 475 Z M 1104 461 " clip-rule="nonzero"/></clipPath><clipPath id="85aa40878c"><path d="M 1251.242188 448.488281 L 1053.988281 487.121094 L 1018.238281 304.589844 L 1215.492188 265.957031 Z M 1251.242188 448.488281 " clip-rule="nonzero"/></clipPath><clipPath id="d407d0285f"><path d="M 1251.242188 448.488281 L 1053.988281 487.121094 L 1018.238281 304.589844 L 1215.492188 265.957031 Z M 1251.242188 448.488281 " clip-rule="nonzero"/></clipPath><clipPath id="40d647d044"><path d="M 1042 422 L 1052 422 L 1052 442 L 1042 442 Z M 1042 422 " clip-rule="nonzero"/></clipPath><clipPath id="e777594c1f"><path d="M 1251.242188 448.488281 L 1053.988281 487.121094 L 1018.238281 304.589844 L 1215.492188 265.957031 Z M 1251.242188 448.488281 " clip-rule="nonzero"/></clipPath><clipPath id="bd006aa93f"><path d="M 1251.242188 448.488281 L 1053.988281 487.121094 L 1018.238281 304.589844 L 1215.492188 265.957031 Z M 1251.242188 448.488281 " clip-rule="nonzero"/></clipPath><clipPath id="09e2f08dd8"><path d="M 1038 384 L 1048 384 L 1048 403 L 1038 403 Z M 1038 384 " clip-rule="nonzero"/></clipPath><clipPath id="0f3089e00f"><path d="M 1251.242188 448.488281 L 1053.988281 487.121094 L 1018.238281 304.589844 L 1215.492188 265.957031 Z M 1251.242188 448.488281 " clip-rule="nonzero"/></clipPath><clipPath id="4a15ec18db"><path d="M 1251.242188 448.488281 L 1053.988281 487.121094 L 1018.238281 304.589844 L 1215.492188 265.957031 Z M 1251.242188 448.488281 " clip-rule="nonzero"/></clipPath><clipPath id="b2a73a6c74"><path d="M 1107 356 L 1119 356 L 1119 376 L 1107 376 Z M 1107 356 " clip-rule="nonzero"/></clipPath><clipPath id="ecb22fdd68"><path d="M 1251.242188 448.488281 L 1053.988281 487.121094 L 1018.238281 304.589844 L 1215.492188 265.957031 Z M 1251.242188 448.488281 " clip-rule="nonzero"/></clipPath><clipPath id="f00ad0542e"><path d="M 1251.242188 448.488281 L 1053.988281 487.121094 L 1018.238281 304.589844 L 1215.492188 265.957031 Z M 1251.242188 448.488281 " clip-rule="nonzero"/></clipPath><clipPath id="2b414f98ce"><path d="M 1071 373 L 1079 373 L 1079 392 L 1071 392 Z M 1071 373 " clip-rule="nonzero"/></clipPath><clipPath id="955b38ff9a"><path d="M 1251.242188 448.488281 L 1053.988281 487.121094 L 1018.238281 304.589844 L 1215.492188 265.957031 Z M 1251.242188 448.488281 " clip-rule="nonzero"/></clipPath><clipPath id="7d32b447e1"><path d="M 1251.242188 448.488281 L 1053.988281 487.121094 L 1018.238281 304.589844 L 1215.492188 265.957031 Z M 1251.242188 448.488281 " clip-rule="nonzero"/></clipPath><clipPath id="cf98922a1c"><path d="M 1161 326 L 1174 326 L 1174 339 L 1161 339 Z M 1161 326 " clip-rule="nonzero"/></clipPath><clipPath id="ec716a0ee5"><path d="M 1251.242188 448.488281 L 1053.988281 487.121094 L 1018.238281 304.589844 L 1215.492188 265.957031 Z M 1251.242188 448.488281 " clip-rule="nonzero"/></clipPath><clipPath id="62c98dfa1c"><path d="M 1251.242188 448.488281 L 1053.988281 487.121094 L 1018.238281 304.589844 L 1215.492188 265.957031 Z M 1251.242188 448.488281 " clip-rule="nonzero"/></clipPath><clipPath id="287ed318fe"><path d="M 1199 275 L 1219 275 L 1219 285 L 1199 285 Z M 1199 275 " clip-rule="nonzero"/></clipPath><clipPath id="ea5207d9b0"><path d="M 1251.242188 448.488281 L 1053.988281 487.121094 L 1018.238281 304.589844 L 1215.492188 265.957031 Z M 1251.242188 448.488281 " clip-rule="nonzero"/></clipPath><clipPath id="c85a47bafe"><path d="M 1251.242188 448.488281 L 1053.988281 487.121094 L 1018.238281 304.589844 L 1215.492188 265.957031 Z M 1251.242188 448.488281 " clip-rule="nonzero"/></clipPath><clipPath id="c575929b78"><path d="M 1072 463 L 1088 463 L 1088 475 L 1072 475 Z M 1072 463 " clip-rule="nonzero"/></clipPath><clipPath id="8ad6a00d3c"><path d="M 1251.242188 448.488281 L 1053.988281 487.121094 L 1018.238281 304.589844 L 1215.492188 265.957031 Z M 1251.242188 448.488281 " clip-rule="nonzero"/></clipPath><clipPath id="637ca4c6f6"><path d="M 1251.242188 448.488281 L 1053.988281 487.121094 L 1018.238281 304.589844 L 1215.492188 265.957031 Z M 1251.242188 448.488281 " clip-rule="nonzero"/></clipPath><clipPath id="873580f198"><path d="M 0 6 L 239 6 L 239 182 L 0 182 Z M 0 6 " clip-rule="nonzero"/></clipPath><clipPath id="20c9247f8e"><path d="M 53.121094 239.710938 L 0.0585938 6.421875 L 278.691406 -56.953125 L 331.753906 176.339844 Z M 53.121094 239.710938 " clip-rule="nonzero"/></clipPath><clipPath id="3278ffed3f"><path d="M 278.441406 -57.160156 L 331.503906 176.132812 L 52.867188 239.503906 L -0.191406 6.214844 Z M 278.441406 -57.160156 " clip-rule="nonzero"/></clipPath><clipPath id="fde9bb0319"><path d="M 237 103 L 332 103 L 332 196 L 237 196 Z M 237 103 " clip-rule="nonzero"/></clipPath><clipPath id="026b5d94db"><path d="M 53.121094 239.710938 L 0.0585938 6.421875 L 278.691406 -56.953125 L 331.753906 176.339844 Z M 53.121094 239.710938 " clip-rule="nonzero"/></clipPath><clipPath id="04cfd32cbc"><path d="M 278.441406 -57.160156 L 331.503906 176.132812 L 52.867188 239.503906 L -0.191406 6.214844 Z M 278.441406 -57.160156 " clip-rule="nonzero"/></clipPath><clipPath id="fdbcd2099c"><path d="M 0 405 L 309 405 L 309 713 L 0 713 Z M 0 405 " clip-rule="nonzero"/></clipPath><clipPath id="d2cda4878c"><path d="M -18.378906 405 L 331.476562 441.441406 L 303.117188 713.71875 L -46.742188 677.277344 Z M -18.378906 405 " clip-rule="nonzero"/></clipPath><clipPath id="ac42e68016"><path d="M 303.214844 713.550781 L -46.640625 677.109375 L -18.28125 404.832031 L 331.574219 441.277344 Z M 303.214844 713.550781 " clip-rule="nonzero"/></clipPath><clipPath id="4d76b25572"><path d="M 161 479 L 187 479 L 187 502 L 161 502 Z M 161 479 " clip-rule="nonzero"/></clipPath><clipPath id="bb260d19b9"><path d="M 164.171875 473.402344 L 225.453125 484.351562 L 217.539062 528.648438 L 156.257812 517.699219 Z M 164.171875 473.402344 " clip-rule="nonzero"/></clipPath><clipPath id="226f35c1a7"><path d="M 164.171875 473.402344 L 225.453125 484.351562 L 217.539062 528.648438 L 156.257812 517.699219 Z M 164.171875 473.402344 " clip-rule="nonzero"/></clipPath><clipPath id="38470dddc0"><path d="M 201 482 L 224 482 L 224 502 L 201 502 Z M 201 482 " clip-rule="nonzero"/></clipPath><clipPath id="4623dcb6da"><path d="M 164.171875 473.402344 L 225.453125 484.351562 L 217.539062 528.648438 L 156.257812 517.699219 Z M 164.171875 473.402344 " clip-rule="nonzero"/></clipPath><clipPath id="885be54e7c"><path d="M 164.171875 473.402344 L 225.453125 484.351562 L 217.539062 528.648438 L 156.257812 517.699219 Z M 164.171875 473.402344 " clip-rule="nonzero"/></clipPath><clipPath id="2a558059ac"><path d="M 178 495 L 213 495 L 213 525 L 178 525 Z M 178 495 " clip-rule="nonzero"/></clipPath><clipPath id="5479e1c2ce"><path d="M 164.171875 473.402344 L 225.453125 484.351562 L 217.539062 528.648438 L 156.257812 517.699219 Z M 164.171875 473.402344 " clip-rule="nonzero"/></clipPath><clipPath id="1998736004"><path d="M 164.171875 473.402344 L 225.453125 484.351562 L 217.539062 528.648438 L 156.257812 517.699219 Z M 164.171875 473.402344 " clip-rule="nonzero"/></clipPath><mask id="bb89c7a251"><g filter="url(#b5ac45b270)"><rect x="-144" width="1728" fill="#000000" y="-80.999999" height="971.999992" fill-opacity="0.7373"/></g></mask><clipPath id="4f78d2434b"><path d="M 2 10 L 84 10 L 84 115 L 2 115 Z M 2 10 " clip-rule="nonzero"/></clipPath><clipPath id="e592c76ed1"><path d="M 96.097656 105.109375 L 71.304688 122 L -0.0585938 17.25 L 24.734375 0.355469 Z M 96.097656 105.109375 " clip-rule="nonzero"/></clipPath><clipPath id="ba1d26ae53"><path d="M 96.097656 105.109375 L 71.304688 122 L -0.0585938 17.25 L 24.734375 0.355469 Z M 96.097656 105.109375 " clip-rule="nonzero"/></clipPath><clipPath id="71404eb46b"><rect x="0" width="95" y="0" height="120"/></clipPath><clipPath id="2826115116"><path d="M 878 529.167969 L 912 529.167969 L 912 560.667969 L 878 560.667969 Z M 878 529.167969 " clip-rule="nonzero"/></clipPath><clipPath id="652720cc22"><path d="M 1324 29.648438 L 1358 29.648438 L 1358 61.898438 L 1324 61.898438 Z M 1324 29.648438 " clip-rule="nonzero"/></clipPath><clipPath id="d837b1348b"><path d="M 1342 699.324219 L 1376 699.324219 L 1376 731.574219 L 1342 731.574219 Z M 1342 699.324219 " clip-rule="nonzero"/></clipPath><clipPath id="65a6998f9e"><path d="M 506.523438 731.226562 L 544 731.226562 L 544 768.726562 L 506.523438 768.726562 Z M 506.523438 731.226562 " clip-rule="nonzero"/></clipPath></defs><g mask="url(#adfc752757)"><g transform="matrix(1, 0, 0, 1, 983, 471)"><g clip-path="url(#397a23eb6b)"><g clip-path="url(#ab973f78e0)"><path fill="#ffb8c6" d="M 69.605469 69.152344 C 69.144531 69.152344 68.679688 69.152344 68.332031 69.152344 C 67.40625 69.035156 66.480469 68.917969 65.550781 68.574219 C 65.550781 68.457031 65.4375 68.457031 65.320312 68.339844 C 64.859375 68.109375 64.394531 67.996094 63.929688 67.878906 C 61.84375 66.839844 60.109375 65.21875 59.296875 63.023438 C 57.792969 58.863281 57.445312 54.238281 57.445312 49.84375 C 57.445312 48.6875 55.589844 48.6875 55.589844 49.84375 C 55.589844 51.460938 55.707031 53.082031 55.820312 54.816406 C 55.707031 55.394531 55.589844 56.085938 55.472656 56.664062 C 55.011719 58.746094 54.546875 61.058594 53.503906 62.90625 C 52.347656 64.875 50.609375 66.722656 48.40625 67.53125 C 46.554688 68.339844 44.585938 68.457031 42.617188 68.804688 C 41.804688 68.917969 42.035156 70.308594 42.847656 70.308594 C 46.671875 70.308594 50.492188 70.769531 52.460938 74.351562 C 53.390625 76.085938 54.316406 77.9375 54.777344 79.785156 C 55.359375 81.867188 55.589844 84.0625 55.707031 86.261719 C 55.707031 87.300781 55.707031 88.226562 55.820312 89.265625 C 55.820312 90.191406 57.328125 90.191406 57.328125 89.265625 C 57.328125 87.53125 57.328125 85.796875 57.210938 84.0625 C 57.210938 81.40625 57.558594 78.628906 58.71875 76.203125 C 59.644531 74.121094 61.152344 72.273438 63.234375 71.460938 C 65.207031 70.769531 67.523438 71 69.605469 70.882812 C 70.765625 71 70.765625 69.152344 69.605469 69.152344 Z M 57.445312 62.5625 C 57.328125 62.5625 57.328125 62.5625 57.445312 62.5625 C 57.328125 62.445312 57.328125 62.328125 57.328125 62.328125 C 57.328125 62.328125 57.328125 62.445312 57.445312 62.5625 Z M 52.808594 67.070312 C 52.808594 67.070312 52.695312 66.953125 52.695312 66.953125 C 52.808594 66.839844 52.808594 66.839844 52.925781 66.722656 C 52.925781 66.839844 52.925781 66.953125 52.808594 67.070312 Z M 49.449219 69.382812 C 49.449219 69.496094 49.335938 69.613281 49.335938 69.730469 C 48.988281 69.613281 48.753906 69.496094 48.40625 69.382812 C 48.753906 69.382812 49.101562 69.382812 49.449219 69.382812 Z M 57.210938 75.277344 C 57.328125 75.277344 57.328125 75.277344 57.328125 75.277344 C 57.210938 75.394531 57.210938 75.625 57.097656 75.742188 C 57.210938 75.507812 57.210938 75.394531 57.210938 75.277344 Z M 63.234375 69.496094 C 63.234375 69.382812 63.351562 69.496094 63.351562 69.496094 C 63.351562 69.496094 63.351562 69.496094 63.234375 69.496094 Z M 7.628906 17.820312 C 9.253906 20.824219 9.601562 23.832031 9.714844 27.070312 C 9.714844 27.992188 11.222656 27.992188 11.222656 27.070312 C 11.222656 26.027344 11.222656 25.105469 11.105469 24.179688 C 11.105469 22.445312 11.222656 20.710938 11.917969 19.09375 C 12.496094 17.703125 13.421875 16.433594 14.8125 15.855469 C 16.085938 15.390625 17.476562 15.507812 18.75 15.507812 C 19.910156 15.507812 19.910156 13.773438 18.75 13.773438 C 18.402344 13.773438 18.054688 13.773438 17.710938 13.773438 C 15.390625 13.542969 13.191406 12.269531 12.378906 9.84375 C 11.570312 7.300781 11.335938 4.410156 11.335938 1.75 C 11.335938 0.59375 9.484375 0.59375 9.484375 1.75 C 9.484375 3.023438 9.601562 4.292969 9.714844 5.566406 C 9.484375 7.070312 9.019531 8.570312 8.324219 9.957031 C 6.820312 12.734375 4.269531 13.3125 1.492188 13.773438 C 0.679688 13.890625 0.910156 15.160156 1.722656 15.277344 C 4.039062 15.160156 6.472656 15.507812 7.628906 17.820312 Z M 11.453125 12.15625 C 11.453125 12.039062 11.453125 11.925781 11.453125 11.691406 C 11.570312 11.808594 11.570312 11.925781 11.683594 12.039062 C 11.570312 12.039062 11.570312 12.15625 11.453125 12.15625 Z M 10.527344 9.382812 C 10.410156 9.382812 10.410156 9.496094 10.410156 9.496094 C 10.410156 9.382812 10.527344 9.265625 10.527344 9.148438 C 10.410156 9.265625 10.527344 9.265625 10.527344 9.382812 Z M 6.472656 14.003906 C 6.472656 14.238281 6.703125 14.582031 6.9375 14.699219 C 6.589844 14.46875 6.242188 14.351562 5.894531 14.238281 C 6.242188 14.121094 6.355469 14.121094 6.472656 14.003906 Z M 51.1875 25.914062 C 53.15625 25.914062 55.125 26.144531 56.167969 28.109375 C 57.558594 30.652344 57.792969 33.195312 57.90625 35.972656 C 57.90625 36.894531 59.414062 36.894531 59.414062 35.972656 C 59.414062 35.046875 59.414062 34.238281 59.296875 33.3125 C 59.296875 31.808594 59.414062 30.421875 59.992188 29.035156 C 60.457031 27.992188 61.265625 26.953125 62.308594 26.492188 C 63.351562 26.144531 64.625 26.261719 65.667969 26.144531 C 66.828125 26.144531 66.828125 24.410156 65.667969 24.410156 C 65.320312 24.410156 65.089844 24.410156 64.742188 24.410156 C 62.773438 24.179688 61.035156 23.136719 60.339844 21.171875 C 59.644531 18.976562 59.414062 16.546875 59.527344 14.238281 C 59.527344 13.082031 57.675781 13.082031 57.675781 14.238281 C 57.675781 15.277344 57.792969 16.433594 57.90625 17.589844 C 57.675781 18.859375 57.210938 20.132812 56.632812 21.171875 C 55.359375 23.484375 53.273438 23.832031 50.957031 24.292969 C 50.144531 24.640625 50.378906 25.914062 51.1875 25.914062 Z M 59.527344 26.492188 C 59.644531 26.492188 59.761719 26.375 59.875 26.375 C 59.761719 26.492188 59.644531 26.605469 59.527344 26.722656 C 59.527344 26.605469 59.527344 26.492188 59.527344 26.492188 Z M 59.414062 23.023438 C 59.414062 23.023438 59.414062 22.90625 59.414062 22.90625 C 59.414062 23.023438 59.527344 23.023438 59.414062 23.023438 C 59.527344 23.023438 59.414062 23.023438 59.414062 23.023438 Z M 58.601562 21.75 C 58.601562 21.75 58.484375 21.636719 58.601562 21.75 C 58.484375 21.636719 58.601562 21.519531 58.601562 21.402344 C 58.601562 21.402344 58.601562 21.636719 58.601562 21.75 Z M 57.328125 26.835938 C 57.445312 26.835938 57.445312 26.835938 57.558594 26.835938 C 57.558594 26.953125 57.558594 27.183594 57.675781 27.300781 C 57.675781 27.183594 57.558594 27.070312 57.558594 27.070312 C 57.445312 26.953125 57.328125 26.835938 57.328125 26.835938 Z M 15.738281 66.144531 C 15.042969 66.144531 14.234375 66.144531 13.539062 66.375 C 12.84375 66.605469 12.378906 67.183594 12.148438 67.878906 C 11.800781 68.6875 11.683594 69.613281 11.683594 70.421875 C 11.800781 71.117188 11.800781 71.695312 11.800781 72.386719 C 11.800781 73.3125 10.296875 73.3125 10.296875 72.386719 C 10.296875 70.539062 10.0625 68.804688 9.136719 67.183594 C 8.558594 66.027344 7.28125 65.914062 6.007812 65.796875 C 5.199219 65.796875 4.964844 64.527344 5.777344 64.296875 C 7.28125 64.0625 8.671875 63.832031 9.484375 62.328125 C 9.832031 61.636719 10.179688 60.941406 10.296875 60.132812 C 10.179688 59.324219 10.179688 58.515625 10.179688 57.707031 C 10.179688 56.550781 12.03125 56.550781 12.03125 57.707031 C 12.03125 59.207031 12.148438 60.828125 12.613281 62.328125 C 12.960938 63.484375 14.003906 64.179688 15.160156 64.296875 C 15.390625 64.296875 15.625 64.296875 15.972656 64.296875 C 16.78125 64.410156 16.78125 66.261719 15.738281 66.144531 Z M 48.640625 42.445312 C 49.449219 42.445312 50.378906 42.445312 51.1875 42.445312 C 52.347656 42.445312 52.347656 40.710938 51.1875 40.710938 C 50.609375 40.710938 50.03125 40.710938 49.449219 40.710938 C 43.542969 40.363281 37.402344 37.128906 35.203125 31.460938 C 32.769531 24.988281 32.191406 17.589844 32.191406 10.652344 C 32.191406 9.496094 30.335938 9.496094 30.335938 10.652344 C 30.335938 12.734375 30.453125 14.929688 30.683594 17.011719 C 30.566406 18.515625 30.335938 20.015625 29.988281 21.519531 C 29.410156 24.640625 28.597656 28.109375 27.09375 30.882812 C 25.355469 34.003906 22.574219 36.78125 19.332031 38.167969 C 16.433594 39.4375 13.191406 39.671875 10.0625 40.132812 C 9.253906 40.25 9.484375 41.636719 10.296875 41.636719 C 14.929688 41.636719 20.722656 41.984375 23.964844 45.796875 C 25.007812 47.070312 25.703125 48.574219 26.398438 49.960938 C 27.671875 52.617188 28.832031 55.277344 29.523438 58.167969 C 30.105469 60.59375 30.335938 63.140625 30.453125 65.566406 C 30.453125 67.417969 30.566406 69.265625 30.566406 71.117188 C 30.566406 72.039062 32.074219 72.039062 32.074219 71.117188 C 32.074219 68.574219 32.074219 66.027344 31.84375 63.484375 C 31.84375 62.675781 31.84375 61.984375 31.957031 61.171875 C 32.421875 56.894531 34.042969 52.851562 36.359375 49.148438 C 37.75 47.070312 39.257812 45.21875 41.574219 44.0625 C 43.65625 43.253906 46.089844 42.792969 48.640625 42.445312 C 48.523438 42.445312 48.640625 42.445312 48.640625 42.445312 Z M 33.578125 43.601562 C 33.578125 43.601562 33.695312 43.714844 33.695312 43.714844 C 33.695312 43.832031 33.578125 43.832031 33.578125 43.949219 C 33.578125 43.832031 33.578125 43.714844 33.578125 43.601562 Z M 31.609375 52.851562 C 31.609375 52.851562 31.609375 52.734375 31.609375 52.734375 C 31.609375 52.273438 31.609375 51.925781 31.609375 51.460938 C 31.726562 51.460938 31.84375 51.460938 32.074219 51.460938 C 31.957031 51.925781 31.726562 52.386719 31.609375 52.851562 Z M 40.992188 41.289062 C 41.226562 41.289062 41.457031 41.289062 41.6875 41.289062 C 41.339844 41.40625 40.878906 41.519531 40.53125 41.636719 C 40.183594 41.75 39.949219 41.867188 39.71875 41.984375 C 40.066406 41.75 40.53125 41.519531 40.992188 41.289062 Z M 31.378906 22.792969 C 31.378906 22.675781 31.261719 22.675781 31.261719 22.675781 C 31.261719 22.445312 31.261719 22.328125 31.378906 22.097656 C 31.261719 22.328125 31.378906 22.558594 31.378906 22.792969 Z M 18.984375 40.132812 C 18.867188 40.132812 18.867188 40.132812 18.75 40.132812 C 18.867188 40.132812 18.867188 40.015625 18.984375 40.132812 C 18.984375 40.015625 18.984375 40.132812 18.984375 40.132812 Z M 18.984375 40.132812 " fill-opacity="1" fill-rule="nonzero"/></g></g></g></g><g mask="url(#2957f168c2)"><g transform="matrix(1, 0, 0, 1, 0, 306)"><g clip-path="url(#3beb16032f)"><g clip-path="url(#2d60ff7f45)"><g clip-path="url(#0dc1097855)"><g clip-path="url(#db079d4154)"><path fill="#d0c3f1" d="M 3.582031 92.753906 C 0.546875 90.621094 -1.808594 87.878906 -3.320312 84.464844 C -4.738281 81.25 -4.015625 78.273438 -1.382812 75.878906 C 2.121094 72.648438 6.863281 72.117188 11.050781 73.785156 C 11.964844 74.402344 12.992188 74.914062 14.078125 75.335938 C 16.804688 76.417969 18.714844 72.335938 16.316406 70.769531 C 15.402344 70.152344 14.429688 69.628906 13.390625 69.195312 C 11.027344 67.511719 9.574219 64.9375 9.246094 61.875 C 8.871094 58.296875 10.175781 54.382812 13.144531 52.214844 C 15.527344 50.449219 18.578125 50.195312 21.398438 50.675781 C 21.429688 50.699219 21.480469 50.6875 21.558594 50.699219 C 22.460938 51.660156 23.476562 52.519531 24.59375 53.230469 C 26.257812 54.308594 28.632812 55.773438 30.667969 54.925781 C 31.820312 54.460938 32.164062 53.230469 32.078125 52.105469 C 31.929688 49.832031 28.210938 47.859375 26.535156 46.996094 C 25.804688 46.636719 25.113281 46.347656 24.429688 46.109375 C 23.710938 45.136719 23.160156 44.054688 22.777344 42.910156 C 21.6875 39.601562 22.214844 36.054688 24.433594 33.421875 C 27.851562 29.335938 33.253906 29.207031 37.910156 30.835938 C 39.261719 31.789062 40.773438 32.5 42.371094 32.953125 C 45.058594 33.699219 47.21875 29.964844 44.609375 28.386719 C 43.320312 27.605469 41.988281 26.886719 40.636719 26.328125 C 38.222656 24.257812 37.558594 20.972656 39.476562 17.605469 C 42.160156 13.027344 47.542969 11.152344 52.367188 13.914062 C 54.1875 14.960938 56.0625 12.898438 54.800781 11.160156 C 49.421875 3.765625 38.804688 8.546875 35.097656 15.097656 C 33.398438 18.082031 32.664062 21.535156 33.542969 24.832031 C 33.035156 24.800781 32.503906 24.796875 31.984375 24.847656 C 26.796875 25.121094 21.816406 27.578125 19.109375 32.1875 C 16.761719 36.195312 16.570312 41.082031 18.199219 45.371094 C 15.179688 45.511719 12.269531 46.480469 9.824219 48.335938 C 5.390625 51.691406 3.585938 57.53125 4.226562 62.886719 C 4.429688 64.621094 4.910156 66.273438 5.675781 67.765625 C 1.578125 67.933594 -2.425781 69.539062 -5.484375 72.761719 C -8.90625 76.398438 -10.148438 81.0625 -8.308594 85.761719 C -6.511719 90.390625 -3.285156 94.207031 0.753906 97.015625 C 3.425781 98.902344 6.28125 94.664062 3.582031 92.753906 Z M 27.097656 53.585938 C 27.433594 53.945312 27.226562 54.117188 27.097656 53.585938 Z M 29.484375 50.046875 C 30.207031 49.957031 30.121094 50.34375 29.484375 50.046875 Z M 29.484375 50.046875 " fill-opacity="1" fill-rule="nonzero"/></g></g></g></g></g></g><g clip-path="url(#dfaf9881e4)"><g clip-path="url(#f7f4597280)"><g clip-path="url(#d0201343e3)"><path fill="#ffcdb6" d="M 1024.078125 144.753906 C 1024.699219 144.769531 1025.21875 144.285156 1025.328125 143.679688 C 1025.40625 142.976562 1024.9375 142.363281 1024.234375 142.238281 C 1018.800781 141.605469 1013.371094 140.96875 1007.9375 140.335938 C 1008.265625 137.949219 1008.550781 135.554688 1008.886719 133.121094 C 1008.570312 130.570312 1007.035156 128.90625 1005.863281 128.984375 C 1004.644531 129.054688 1003.070312 131.125 1003.460938 134.070312 C 1003.457031 135.988281 1003.40625 137.894531 1003.398438 139.8125 C 1001.039062 139.535156 998.722656 139.265625 996.359375 138.984375 C 995.988281 138.917969 995.425781 138.820312 994.738281 138.886719 C 992.972656 139.050781 990.914062 140.3125 990.8125 141.6875 C 990.761719 143.066406 992.707031 144.851562 995.757812 145.0625 C 998.269531 145.03125 1000.785156 145 1003.34375 144.980469 C 1003.296875 148.757812 1003.257812 152.492188 1003.253906 156.277344 C 1003.289062 156.90625 1003.726562 157.417969 1004.34375 157.480469 C 1005.042969 157.605469 1005.667969 157.09375 1005.789062 156.394531 C 1006.285156 152.550781 1006.824219 148.71875 1007.308594 144.921875 C 1012.914062 144.867188 1018.472656 144.804688 1024.078125 144.753906 Z M 1024.078125 144.753906 " fill-opacity="1" fill-rule="nonzero"/></g></g></g><g clip-path="url(#9fc3cbfad1)"><g clip-path="url(#2097bf46e1)"><g clip-path="url(#7f9bc8bd0d)"><path fill="#ffcdb6" d="M 1075.929688 145.53125 C 1076.050781 144.304688 1074.367188 142.949219 1072.792969 142.574219 C 1072.195312 142.417969 1071.710938 142.425781 1071.367188 142.460938 C 1069.296875 142.425781 1067.183594 142.386719 1065.117188 142.351562 C 1065.320312 140.664062 1065.527344 138.972656 1065.730469 137.285156 C 1066.375 134.761719 1065.242188 132.738281 1064.167969 132.546875 C 1063.183594 132.371094 1061.609375 133.625 1061.023438 135.820312 C 1061.027344 137.976562 1061.035156 140.089844 1061.035156 142.246094 C 1056.179688 142.144531 1051.320312 142.09375 1046.511719 142 C 1045.886719 141.984375 1045.40625 142.523438 1045.390625 143.144531 C 1045.386719 143.71875 1045.832031 144.179688 1046.347656 144.273438 C 1051.234375 145 1056.128906 145.683594 1061.058594 146.421875 C 1061.078125 149.828125 1061.089844 153.28125 1061.058594 156.679688 C 1061.09375 157.308594 1061.585938 157.78125 1062.210938 157.796875 C 1062.742188 157.796875 1063.199219 157.398438 1063.296875 156.839844 C 1063.691406 153.554688 1064.09375 150.222656 1064.496094 146.890625 C 1066.710938 147.191406 1068.914062 147.535156 1071.128906 147.835938 C 1073.929688 148.097656 1075.855469 146.761719 1075.929688 145.53125 Z M 1075.929688 145.53125 " fill-opacity="1" fill-rule="nonzero"/></g></g></g><g clip-path="url(#9e8fae16d4)"><g clip-path="url(#24f666d1d8)"><g clip-path="url(#a9d6fd2ef3)"><path fill="#ffcdb6" d="M 1058.472656 167.386719 C 1051.203125 166.761719 1043.9375 166.132812 1036.671875 165.507812 C 1037 162.304688 1037.332031 159.105469 1037.625 155.851562 C 1037.121094 152.453125 1034.941406 150.335938 1033.429688 150.449219 C 1031.8125 150.59375 1029.8125 153.398438 1030.421875 157.296875 C 1030.496094 159.847656 1030.523438 162.394531 1030.597656 164.949219 C 1027.460938 164.675781 1024.328125 164.40625 1021.191406 164.132812 C 1020.679688 164.039062 1019.921875 163.953125 1019.03125 164.082031 C 1016.65625 164.425781 1013.929688 166.191406 1013.941406 168.015625 C 1013.898438 169.875 1016.574219 172.175781 1020.699219 172.289062 C 1024.050781 172.167969 1027.40625 172.003906 1030.804688 171.890625 C 1030.921875 176.898438 1031.039062 181.902344 1031.148438 186.957031 C 1031.195312 187.78125 1031.804688 188.417969 1032.65625 188.519531 C 1033.597656 188.640625 1034.441406 187.976562 1034.558594 187.039062 C 1035.089844 181.910156 1035.574219 176.769531 1036.097656 171.683594 C 1043.53125 171.382812 1050.972656 171.035156 1058.40625 170.734375 C 1059.234375 170.6875 1059.925781 170.046875 1060.03125 169.199219 C 1060.085938 168.347656 1059.414062 167.507812 1058.472656 167.386719 Z M 1058.472656 167.386719 " fill-opacity="1" fill-rule="nonzero"/></g></g></g><g clip-path="url(#a6c7122f80)"><g clip-path="url(#d3235142c4)"><g clip-path="url(#73f5d622fc)"><path fill="#eddcca" d="M 1091.375 354.417969 C 1093.5 352.777344 1094.75 349.777344 1096.46875 347.605469 C 1097.417969 346.195312 1098.363281 344.785156 1099.078125 343.726562 C 1099.550781 343.019531 1099.730469 342.375 1100.261719 341.964844 C 1100.261719 341.964844 1101.683594 339.847656 1100.621094 340.667969 C 1104.582031 337.445312 1099.773438 331.652344 1095.871094 335.171875 C 1094.863281 336.285156 1094.449219 337.285156 1094.089844 338.582031 C 1093.492188 340.226562 1092.601562 341.933594 1091.652344 343.34375 C 1090.707031 344.753906 1089.757812 346.164062 1089.160156 347.8125 C 1088.746094 348.8125 1088.445312 350.402344 1087.730469 351.457031 C 1086.25 353.277344 1089.246094 356.058594 1091.375 354.417969 Z M 1091.375 354.417969 " fill-opacity="1" fill-rule="nonzero"/></g></g></g><g clip-path="url(#dcdf3cecd6)"><g clip-path="url(#f2789af31b)"><g clip-path="url(#d5432421e5)"><path fill="#eddcca" d="M 1045.421875 366.785156 C 1048.019531 365.972656 1049.503906 362.617188 1050.929688 360.503906 C 1051.875 359.09375 1052.765625 357.386719 1053.714844 355.976562 C 1054.425781 354.917969 1055.023438 353.273438 1055.496094 352.566406 C 1057.097656 349.804688 1053.285156 345.960938 1050.625 348.011719 C 1049.324219 349.183594 1049.203125 350.125 1048.605469 351.773438 C 1048.246094 353.070312 1047.300781 354.480469 1046.941406 355.773438 C 1045.929688 358.421875 1045.03125 361.65625 1043.722656 364.363281 C 1043.070312 365.714844 1043.949219 367.074219 1045.421875 366.785156 Z M 1045.421875 366.785156 " fill-opacity="1" fill-rule="nonzero"/></g></g></g><g clip-path="url(#ec68a36524)"><g clip-path="url(#3fbd1e1d6f)"><g clip-path="url(#78456159fe)"><path fill="#eddcca" d="M 1071.402344 338.429688 C 1072.460938 339.140625 1073.640625 338.910156 1074.46875 338.445312 C 1076.359375 337.15625 1077.132812 334.859375 1078.320312 333.097656 C 1079.503906 331.335938 1080.335938 329.335938 1081.523438 327.570312 C 1084.1875 323.988281 1079.667969 319.667969 1076.296875 322.777344 C 1074.226562 324.714844 1073.152344 328.597656 1071.789062 331.007812 C 1071.011719 333.304688 1068.9375 336.773438 1071.402344 338.429688 Z M 1071.402344 338.429688 " fill-opacity="1" fill-rule="nonzero"/></g></g></g><g clip-path="url(#2d8fc36d48)"><g clip-path="url(#800ea7966d)"><g clip-path="url(#dcdf50be84)"><path fill="#eddcca" d="M 1120.179688 326.429688 C 1123.128906 325.851562 1124.855469 322.148438 1126.277344 320.03125 C 1127.9375 317.5625 1129.710938 315.683594 1130.664062 312.742188 C 1131.742188 308.859375 1125.382812 307.65625 1124.601562 311.480469 C 1124.121094 313.71875 1122.582031 315.246094 1121.75 317.246094 C 1120.621094 319.300781 1119.257812 321.710938 1118.1875 324.066406 C 1117.238281 325.476562 1118.707031 326.71875 1120.179688 326.429688 Z M 1120.179688 326.429688 " fill-opacity="1" fill-rule="nonzero"/></g></g></g><g clip-path="url(#b0403938d0)"><g clip-path="url(#1ecc21a067)"><g clip-path="url(#698a7e2de7)"><path fill="#eddcca" d="M 1143.34375 339.953125 C 1146.007812 336.371094 1146.910156 331.601562 1148.929688 327.839844 C 1149.582031 326.488281 1148.589844 324.539062 1147.238281 323.886719 C 1145.589844 323.289062 1143.9375 324.226562 1143.28125 325.578125 C 1142.15625 327.636719 1141.96875 329.816406 1141.136719 331.816406 C 1140.304688 333.816406 1139.234375 336.167969 1139.046875 338.347656 C 1138.863281 340.527344 1141.921875 342.070312 1143.34375 339.953125 Z M 1143.34375 339.953125 " fill-opacity="1" fill-rule="nonzero"/></g></g></g><g clip-path="url(#3b472027bd)"><g clip-path="url(#e44342d66e)"><g clip-path="url(#b349505b54)"><path fill="#eddcca" d="M 1150.964844 378.871094 C 1152.046875 373.457031 1153.128906 368.039062 1154.210938 362.621094 C 1155 357.265625 1146.929688 356.703125 1147.027344 361.886719 C 1147.019531 363.417969 1146.660156 364.714844 1146.949219 366.1875 C 1147 368.015625 1146.996094 369.546875 1147.046875 371.375 C 1146.976562 374.140625 1146.078125 377.378906 1148.367188 379.6875 C 1148.894531 380.808594 1150.902344 380.109375 1150.964844 378.871094 Z M 1150.964844 378.871094 " fill-opacity="1" fill-rule="nonzero"/></g></g></g><g clip-path="url(#88563e210d)"><g clip-path="url(#e2e7b25172)"><g clip-path="url(#d634d33fc7)"><path fill="#eddcca" d="M 1121.632812 405.738281 C 1123.464844 404.15625 1124.066406 400.976562 1124.195312 398.503906 C 1124.617188 395.96875 1125.390625 393.675781 1125.167969 390.964844 C 1124.59375 386.484375 1117.519531 387.871094 1118.328125 392 C 1119.136719 396.125 1115.875 401.355469 1118.453125 405.136719 C 1119.328125 406.496094 1120.863281 406.503906 1121.632812 405.738281 Z M 1121.632812 405.738281 " fill-opacity="1" fill-rule="nonzero"/></g></g></g><g clip-path="url(#4aa4163a88)"><g clip-path="url(#683403b6cf)"><g clip-path="url(#242d313a6e)"><path fill="#eddcca" d="M 1105.632812 442.851562 C 1105.691406 443.148438 1105.992188 441.558594 1105.933594 441.261719 C 1105.996094 440.027344 1106.058594 438.789062 1105.773438 437.316406 C 1105.546875 434.605469 1105.910156 431.777344 1105.6875 429.066406 C 1105.527344 425.117188 1098.867188 425.503906 1099.617188 429.335938 C 1100.015625 432.933594 1100.355469 436.234375 1101.34375 439.714844 C 1101.746094 441.777344 1101.621094 444.25 1103.914062 445.027344 C 1105.265625 445.679688 1106.15625 443.972656 1105.632812 442.851562 Z M 1105.632812 442.851562 " fill-opacity="1" fill-rule="nonzero"/></g></g></g><g clip-path="url(#11e960bab5)"><g clip-path="url(#9389af983c)"><g clip-path="url(#fde4fec22d)"><path fill="#eddcca" d="M 1081.492188 452.476562 C 1083.089844 451.246094 1082.691406 447.652344 1082.34375 445.882812 C 1082.351562 444.351562 1082.0625 442.878906 1082.070312 441.34375 C 1082.070312 441.34375 1081.785156 438.339844 1081.835938 440.164062 C 1081.722656 439.578125 1082.195312 438.871094 1082.316406 437.929688 C 1082.207031 435.808594 1079.332031 433.617188 1077.203125 435.257812 C 1073.535156 438.425781 1076.582031 443.03125 1077.628906 446.808594 C 1077.5625 448.042969 1079.539062 455.003906 1081.492188 452.476562 Z M 1081.492188 452.476562 " fill-opacity="1" fill-rule="nonzero"/></g></g></g><g clip-path="url(#af2411e79a)"><g clip-path="url(#a8917193d6)"><g clip-path="url(#a20de7d871)"><path fill="#eddcca" d="M 1092.542969 415.109375 C 1092.78125 414.757812 1093.253906 414.050781 1093.730469 413.347656 C 1094.679688 411.9375 1095.273438 410.289062 1095.925781 408.9375 C 1096.941406 406.289062 1098.1875 403.289062 1098.554688 400.460938 C 1099.039062 396.695312 1093.917969 395.554688 1092.785156 399.144531 C 1092.1875 400.789062 1092.242188 402.617188 1091.644531 404.265625 C 1091.402344 406.148438 1090.804688 407.796875 1090.269531 409.738281 C 1089.730469 411.679688 1088.773438 414.621094 1090.832031 415.75 C 1091.539062 416.226562 1092.363281 415.757812 1092.542969 415.109375 Z M 1092.542969 415.109375 " fill-opacity="1" fill-rule="nonzero"/></g></g></g><g clip-path="url(#95a8368e73)"><g clip-path="url(#4bf3b05146)"><g clip-path="url(#fcc2ee0ee1)"><path fill="#eddcca" d="M 1069.175781 423.972656 C 1069.066406 421.851562 1068.660156 419.785156 1067.960938 417.78125 C 1067.617188 416.011719 1067.566406 414.183594 1066.980469 412.769531 C 1066.222656 410.46875 1062.75 409.921875 1061.679688 412.277344 C 1060.316406 414.6875 1061.71875 417.167969 1063.304688 419 C 1064.589844 420.890625 1065.757812 423.722656 1067.523438 424.90625 C 1068.226562 425.382812 1069.347656 424.855469 1069.175781 423.972656 Z M 1069.175781 423.972656 " fill-opacity="1" fill-rule="nonzero"/></g></g></g><g clip-path="url(#cba0fbb0d6)"><g clip-path="url(#9e30449a40)"><g clip-path="url(#7816ea174c)"><path fill="#eddcca" d="M 1104.363281 303.507812 C 1106.84375 302.101562 1109.382812 300.992188 1111.804688 299.292969 C 1114.523438 297.535156 1118.0625 296.84375 1119.195312 293.253906 C 1119.554688 291.960938 1118.675781 290.601562 1117.4375 290.535156 C 1113.667969 290.050781 1110.59375 293.101562 1107.992188 295.449219 C 1106.15625 297.03125 1103.085938 298.550781 1101.722656 300.960938 C 1100.890625 302.960938 1102.710938 304.441406 1104.363281 303.507812 Z M 1104.363281 303.507812 " fill-opacity="1" fill-rule="nonzero"/></g></g></g><g clip-path="url(#fbb895933a)"><g clip-path="url(#c197c89ef2)"><g clip-path="url(#013ee3f265)"><path fill="#eddcca" d="M 1145.441406 286.582031 C 1145.847656 288.648438 1149.089844 288.011719 1150.507812 287.429688 C 1154.222656 286.085938 1157.589844 284.511719 1161.363281 283.464844 C 1165.433594 282.363281 1163.222656 275.753906 1159.5625 277.390625 C 1156.492188 278.910156 1153.480469 280.722656 1150.46875 282.539062 C 1149.109375 283.417969 1147.390625 285.589844 1145.917969 285.878906 C 1145.5625 285.640625 1145.386719 286.289062 1145.441406 286.582031 Z M 1145.441406 286.582031 " fill-opacity="1" fill-rule="nonzero"/></g></g></g><g clip-path="url(#571c30d2b1)"><g clip-path="url(#c82ba65ee8)"><g clip-path="url(#4a3d2c2a87)"><path fill="#eddcca" d="M 1162.464844 303.148438 C 1165.414062 302.570312 1168.359375 301.992188 1171.195312 300.824219 C 1173.496094 300.070312 1176.386719 299.195312 1178.21875 297.613281 C 1180.347656 295.972656 1180.007812 292.671875 1177.121094 292.011719 C 1173.941406 291.410156 1171.636719 293.699219 1169.15625 295.101562 C 1166.378906 296.566406 1162.660156 297.90625 1160.707031 300.429688 C 1160.054688 301.785156 1160.988281 303.4375 1162.464844 303.148438 Z M 1162.464844 303.148438 " fill-opacity="1" fill-rule="nonzero"/></g></g></g><g clip-path="url(#3b7e1e82c2)"><g clip-path="url(#ab90f3ba59)"><g clip-path="url(#12d5531cdb)"><path fill="#eddcca" d="M 1186.277344 315.320312 C 1192.175781 314.167969 1196.789062 309.589844 1202.21875 307.605469 C 1208.238281 305.511719 1202.558594 296.828125 1198.238281 301.347656 C 1194.15625 305.511719 1188.136719 307.609375 1184.523438 312.605469 C 1183.925781 314.25 1184.804688 315.609375 1186.277344 315.320312 Z M 1186.277344 315.320312 " fill-opacity="1" fill-rule="nonzero"/></g></g></g><g clip-path="url(#4db7bcb01c)"><g clip-path="url(#f9e542faba)"><g clip-path="url(#97bb281046)"><path fill="#eddcca" d="M 1142.800781 401.285156 C 1141.738281 402.105469 1141.558594 402.753906 1141.4375 403.695312 C 1140.839844 405.34375 1140.246094 406.992188 1139.945312 408.582031 C 1139.285156 411.464844 1139.15625 413.941406 1138.792969 416.765625 C 1138.484375 419.886719 1143.195312 420.496094 1144.5625 418.085938 C 1145.214844 416.734375 1145.097656 416.144531 1144.8125 414.667969 C 1144.523438 413.195312 1144.824219 411.605469 1144.828125 410.074219 C 1145.25 407.542969 1145.855469 404.363281 1145.039062 401.765625 C 1144.925781 401.175781 1143.570312 400.523438 1142.800781 401.285156 Z M 1142.800781 401.285156 " fill-opacity="1" fill-rule="nonzero"/></g></g></g><g clip-path="url(#8b4fcc13cd)"><g clip-path="url(#d4ac03b293)"><g clip-path="url(#d04cd559a5)"><path fill="#eddcca" d="M 1128.011719 430.511719 C 1127.179688 432.511719 1127.878906 434.515625 1128.578125 436.523438 C 1129.507812 439.707031 1130.617188 442.246094 1132.375 444.960938 C 1134.65625 448.800781 1140.917969 444.820312 1138.105469 441.390625 C 1136.40625 438.96875 1134.410156 436.605469 1133.007812 434.125 C 1132.128906 432.765625 1131.078125 430.523438 1129.488281 430.222656 C 1128.78125 429.746094 1127.898438 429.921875 1128.011719 430.511719 Z M 1128.011719 430.511719 " fill-opacity="1" fill-rule="nonzero"/></g></g></g><g clip-path="url(#ea8572f4dd)"><g clip-path="url(#85aa40878c)"><g clip-path="url(#d407d0285f)"><path fill="#eddcca" d="M 1104.957031 464.414062 C 1105.417969 466.773438 1108.179688 468.375 1109.707031 469.914062 C 1111.234375 471.449219 1113.109375 473.226562 1115.109375 474.058594 C 1120.519531 476.671875 1122.976562 467.3125 1117.671875 466.820312 C 1115.789062 466.578125 1114.4375 465.925781 1113.027344 464.976562 C 1112.320312 464.503906 1111.261719 463.792969 1110.261719 463.375 C 1109.261719 462.957031 1108.261719 462.542969 1107.261719 462.125 C 1106.207031 461.414062 1104.667969 462.941406 1104.957031 464.414062 Z M 1104.957031 464.414062 " fill-opacity="1" fill-rule="nonzero"/></g></g></g><g clip-path="url(#40d647d044)"><g clip-path="url(#e777594c1f)"><g clip-path="url(#bd006aa93f)"><path fill="#eddcca" d="M 1051.613281 439.042969 C 1051.800781 436.863281 1052.042969 434.980469 1051.640625 432.917969 C 1051.175781 430.558594 1050.714844 428.199219 1050.195312 425.546875 C 1049.214844 420.535156 1041.074219 422.742188 1042.40625 427.988281 C 1043.164062 430.289062 1043.921875 432.589844 1044.679688 434.890625 C 1045.378906 436.898438 1044.898438 439.136719 1046.71875 440.617188 C 1048.1875 441.859375 1051.429688 441.222656 1051.613281 439.042969 Z M 1051.613281 439.042969 " fill-opacity="1" fill-rule="nonzero"/></g></g></g><g clip-path="url(#09e2f08dd8)"><g clip-path="url(#0f3089e00f)"><g clip-path="url(#4a15ec18db)"><path fill="#eddcca" d="M 1044.8125 401.191406 C 1045.058594 399.308594 1045.949219 397.601562 1046.132812 395.421875 C 1046.375 393.539062 1046.265625 391.417969 1046.804688 389.472656 C 1048.355469 384.886719 1040.292969 382.789062 1039.152344 387.914062 C 1038.792969 389.207031 1038.964844 390.089844 1038.902344 391.328125 C 1038.839844 392.566406 1038.832031 394.097656 1038.769531 395.335938 C 1038.933594 397.75 1038.808594 400.226562 1040.742188 402.292969 C 1042.210938 403.539062 1044.511719 402.78125 1044.8125 401.191406 Z M 1044.8125 401.191406 " fill-opacity="1" fill-rule="nonzero"/></g></g></g><g clip-path="url(#b2a73a6c74)"><g clip-path="url(#ecb22fdd68)"><g clip-path="url(#f00ad0542e)"><path fill="#eddcca" d="M 1110.734375 375.117188 C 1112.746094 372.886719 1114.585938 369.769531 1115.597656 367.125 C 1116.667969 364.769531 1118.214844 361.714844 1118.285156 358.945312 C 1118.417969 354.9375 1112.347656 355.210938 1112.214844 359.214844 C 1112.328125 359.804688 1111.617188 360.863281 1111.378906 361.214844 C 1110.785156 362.863281 1110.1875 364.507812 1109.59375 366.15625 C 1108.816406 368.453125 1106.863281 370.976562 1107.085938 373.6875 C 1106.902344 375.867188 1109.195312 376.644531 1110.734375 375.117188 Z M 1110.734375 375.117188 " fill-opacity="1" fill-rule="nonzero"/></g></g></g><g clip-path="url(#2b414f98ce)"><g clip-path="url(#955b38ff9a)"><g clip-path="url(#7d32b447e1)"><path fill="#eddcca" d="M 1075.4375 390.296875 C 1075.558594 389.351562 1075.976562 388.351562 1076.097656 387.410156 C 1076.515625 386.410156 1076.285156 385.230469 1076.640625 383.9375 C 1077.066406 381.40625 1077.839844 379.109375 1078.320312 376.875 C 1078.808594 373.105469 1073.628906 371.671875 1072.257812 375.613281 C 1071.300781 378.554688 1071.347656 381.914062 1071.335938 384.976562 C 1071.445312 387.097656 1070.898438 390.570312 1073.253906 391.640625 C 1074.253906 392.058594 1075.316406 391.238281 1075.4375 390.296875 Z M 1075.4375 390.296875 " fill-opacity="1" fill-rule="nonzero"/></g></g></g><g clip-path="url(#cf98922a1c)"><g clip-path="url(#ec716a0ee5)"><g clip-path="url(#62c98dfa1c)"><path fill="#eddcca" d="M 1163.617188 338.738281 C 1165.328125 338.097656 1166.628906 336.925781 1167.871094 335.457031 C 1169.117188 333.988281 1170.769531 333.050781 1172.367188 331.820312 C 1175.261719 329.417969 1170.390625 324.863281 1167.902344 327.796875 C 1166.898438 328.914062 1165.597656 330.085938 1164.648438 331.496094 C 1163.640625 332.613281 1163.105469 334.554688 1161.746094 335.433594 C 1160.738281 336.546875 1161.609375 339.4375 1163.617188 338.738281 Z M 1163.617188 338.738281 " fill-opacity="1" fill-rule="nonzero"/></g></g></g><g clip-path="url(#287ed318fe)"><g clip-path="url(#ea5207d9b0)"><g clip-path="url(#c85a47bafe)"><path fill="#eddcca" d="M 1199.433594 282.4375 C 1201.484375 285.097656 1205.257812 284.050781 1208.265625 283.769531 C 1209.445312 283.539062 1210.328125 283.363281 1211.566406 283.429688 C 1211.273438 283.488281 1212.804688 283.492188 1212.453125 283.253906 C 1211.507812 283.132812 1214.042969 283.558594 1214.335938 283.5 C 1216.808594 283.625 1218.765625 281.101562 1218.007812 278.800781 C 1218.007812 278.800781 1217.949219 278.503906 1217.949219 278.503906 C 1217.71875 277.324219 1216.25 276.082031 1214.957031 275.722656 C 1212.71875 275.242188 1210.769531 276.238281 1208.765625 276.9375 C 1206.226562 278.046875 1203.277344 278.625 1200.625 279.144531 C 1199.445312 279.375 1198.613281 281.375 1199.433594 282.4375 Z M 1199.433594 282.4375 " fill-opacity="1" fill-rule="nonzero"/></g></g></g><g clip-path="url(#c575929b78)"><g clip-path="url(#8ad6a00d3c)"><g clip-path="url(#637ca4c6f6)"><path fill="#eddcca" d="M 1072.304688 466.523438 C 1073.707031 469.003906 1076.234375 470.957031 1078.40625 472.675781 C 1080.875 474.335938 1083.933594 475.878906 1086.242188 473.589844 C 1087.542969 472.417969 1087.195312 470.648438 1086.023438 469.347656 C 1085.554688 468.519531 1084.667969 468.695312 1083.375 468.335938 C 1082.726562 468.15625 1081.667969 467.445312 1081.023438 467.265625 C 1080.257812 466.496094 1079.257812 466.078125 1078.496094 465.3125 C 1077.144531 464.65625 1076.144531 464.242188 1074.847656 463.882812 C 1073.199219 463.285156 1071.367188 464.871094 1072.304688 466.523438 Z M 1072.304688 466.523438 " fill-opacity="1" fill-rule="nonzero"/></g></g></g><g clip-path="url(#873580f198)"><g clip-path="url(#20c9247f8e)"><g clip-path="url(#3278ffed3f)"><path fill="#754c24" d="M 48.4375 176.019531 C 48.519531 175.917969 48.503906 175.753906 48.378906 175.675781 C 45.378906 173.425781 43.058594 170.707031 41.472656 167.582031 C 41.15625 166.933594 40.863281 166.296875 40.609375 165.65625 C 39.769531 163.550781 39.265625 161.332031 39.082031 159.035156 C 39.070312 158.890625 38.960938 158.789062 38.816406 158.800781 C 38.667969 158.8125 38.570312 158.941406 38.585938 159.085938 C 38.753906 161.425781 39.269531 163.6875 40.121094 165.832031 C 40.375 166.496094 40.675781 167.167969 41.015625 167.8125 C 42.636719 171.011719 44.992188 173.789062 48.066406 176.085938 C 48.191406 176.164062 48.355469 176.148438 48.4375 176.019531 Z M 44.132812 140.28125 C 47.324219 134.839844 51.9375 129.585938 57.128906 125.476562 C 57.257812 125.382812 57.261719 125.234375 57.167969 125.105469 C 57.085938 124.996094 56.925781 124.96875 56.820312 125.058594 C 51.558594 129.230469 46.914062 134.53125 43.695312 140.023438 C 43.640625 140.074219 43.640625 140.160156 43.65625 140.242188 C 43.691406 140.296875 43.722656 140.335938 43.773438 140.363281 C 43.894531 140.441406 44.058594 140.40625 44.132812 140.28125 Z M 11.347656 10.609375 C 11.398438 10.472656 11.339844 10.316406 11.203125 10.261719 C 7.78125 8.789062 4.289062 7.371094 0.78125 6.070312 L -0.128906 6.277344 C 3.628906 7.652344 7.355469 9.164062 11.011719 10.730469 C 11.128906 10.789062 11.289062 10.734375 11.347656 10.609375 Z M 78.214844 179.167969 C 80.769531 178.160156 83.304688 176.863281 85.734375 175.292969 C 85.847656 175.222656 85.894531 175.0625 85.800781 174.9375 C 85.734375 174.824219 85.578125 174.792969 85.445312 174.867188 C 83.050781 176.410156 80.550781 177.679688 78.015625 178.683594 C 74.347656 180.132812 70.601562 180.964844 66.941406 181.15625 C 66.792969 181.148438 66.671875 181.28125 66.6875 181.429688 L 66.703125 181.507812 C 66.746094 181.605469 66.84375 181.667969 66.949219 181.664062 C 70.695312 181.472656 74.480469 180.632812 78.214844 179.167969 Z M 46.320312 29.5 C 46.398438 29.378906 46.363281 29.214844 46.257812 29.132812 C 40.757812 25.519531 34.996094 22.09375 29.132812 18.945312 C 29.007812 18.871094 28.851562 18.925781 28.792969 19.046875 C 28.75 19.117188 28.742188 19.183594 28.78125 19.261719 C 28.796875 19.320312 28.847656 19.371094 28.898438 19.40625 C 34.734375 22.535156 40.476562 25.96875 45.953125 29.5625 C 46.074219 29.640625 46.238281 29.601562 46.320312 29.5 Z M 80.40625 112.21875 C 84.3125 110.671875 88.414062 109.355469 92.613281 108.273438 C 92.753906 108.21875 92.851562 108.089844 92.800781 107.957031 C 92.789062 107.808594 92.617188 107.71875 92.5 107.769531 C 88.261719 108.859375 84.132812 110.179688 80.234375 111.726562 C 78.027344 112.585938 75.839844 113.554688 73.746094 114.539062 C 73.613281 114.613281 73.5625 114.753906 73.609375 114.886719 C 73.6875 115.019531 73.847656 115.066406 73.960938 115.023438 C 76.050781 114.015625 78.21875 113.078125 80.40625 112.21875 Z M 99.988281 161.449219 C 103.695312 156.148438 106.550781 150.082031 108.46875 143.445312 C 108.5 143.3125 108.429688 143.179688 108.289062 143.125 C 108.152344 143.09375 108 143.167969 107.96875 143.304688 C 106.0625 149.898438 103.234375 155.890625 99.5625 161.164062 C 99.511719 161.222656 99.511719 161.324219 99.53125 161.40625 C 99.5625 161.441406 99.589844 161.476562 99.640625 161.511719 C 99.746094 161.59375 99.910156 161.578125 99.988281 161.449219 Z M 77.34375 54.300781 C 77.449219 54.210938 77.453125 54.042969 77.34375 53.9375 C 73.292969 49.972656 68.816406 46.003906 64.066406 42.132812 C 63.496094 41.691406 62.949219 41.242188 62.378906 40.800781 C 62.273438 40.714844 62.109375 40.734375 62.023438 40.835938 C 61.957031 40.914062 61.957031 41 61.976562 41.101562 C 62.007812 41.136719 62.035156 41.175781 62.066406 41.210938 C 62.613281 41.636719 63.179688 42.082031 63.730469 42.53125 C 68.480469 46.398438 72.953125 50.351562 76.984375 54.316406 C 77.085938 54.398438 77.238281 54.410156 77.34375 54.300781 Z M 111.222656 123.75 C 111.253906 117.074219 110.402344 110.429688 108.710938 104.019531 C 108.699219 103.871094 108.535156 103.800781 108.394531 103.835938 C 108.25 103.867188 108.15625 104.015625 108.210938 104.152344 C 109.890625 110.519531 110.730469 117.105469 110.707031 123.738281 C 110.695312 123.785156 110.703125 123.824219 110.710938 123.84375 C 110.753906 123.941406 110.855469 124.003906 110.957031 124 C 111.109375 124.007812 111.210938 123.898438 111.222656 123.75 Z M 101.417969 85.503906 C 98.472656 79.863281 94.851562 74.230469 90.613281 68.78125 C 90.523438 68.671875 90.371094 68.644531 90.261719 68.734375 C 90.171875 68.796875 90.136719 68.929688 90.183594 69.027344 C 90.1875 69.050781 90.191406 69.066406 90.21875 69.105469 C 94.410156 74.523438 98.027344 80.132812 100.957031 85.734375 C 101.027344 85.863281 101.191406 85.914062 101.300781 85.84375 C 101.441406 85.792969 101.507812 85.628906 101.417969 85.503906 Z M 132.324219 104.488281 C 132.335938 104.335938 132.222656 104.214844 132.070312 104.207031 C 125.339844 103.800781 118.636719 103.882812 112.148438 104.445312 C 112.003906 104.457031 111.902344 104.585938 111.917969 104.730469 L 111.933594 104.792969 C 111.972656 104.886719 112.078125 104.972656 112.183594 104.96875 C 118.652344 104.410156 125.332031 104.316406 132.039062 104.722656 C 132.1875 104.730469 132.316406 104.636719 132.324219 104.488281 Z M 171.34375 111.964844 C 171.375 111.832031 171.304688 111.695312 171.164062 111.644531 C 164.621094 109.628906 158.121094 107.984375 151.863281 106.753906 C 151.707031 106.726562 151.578125 106.820312 151.550781 106.972656 C 151.539062 107.019531 151.546875 107.058594 151.5625 107.121094 C 151.601562 107.195312 151.65625 107.246094 151.746094 107.269531 C 158.003906 108.5 164.480469 110.125 171.023438 112.144531 C 171.15625 112.175781 171.292969 112.105469 171.34375 111.964844 Z M 208.300781 126.664062 C 208.355469 126.527344 208.300781 126.386719 208.179688 126.308594 C 201.742188 123.273438 195.765625 120.660156 189.9375 118.332031 C 189.800781 118.277344 189.664062 118.332031 189.609375 118.472656 C 189.582031 118.542969 189.578125 118.605469 189.589844 118.667969 C 189.625 118.722656 189.675781 118.773438 189.746094 118.800781 C 195.582031 121.148438 201.53125 123.746094 207.96875 126.785156 C 208.085938 126.84375 208.242188 126.785156 208.300781 126.664062 Z M 238.039062 141.796875 C 238.097656 141.675781 238.058594 141.515625 237.941406 141.460938 C 233.386719 139.03125 229.613281 137.023438 226.019531 135.164062 C 225.882812 135.113281 225.742188 135.164062 225.667969 135.289062 C 225.640625 135.359375 225.632812 135.421875 225.652344 135.503906 C 225.6875 135.558594 225.714844 135.59375 225.785156 135.621094 C 229.363281 137.503906 233.152344 139.488281 237.683594 141.921875 C 237.804688 141.976562 237.964844 141.941406 238.039062 141.796875 " fill-opacity="1" fill-rule="nonzero"/></g></g></g><g clip-path="url(#fde9bb0319)"><g clip-path="url(#026b5d94db)"><g clip-path="url(#04cfd32cbc)"><path fill="#754c24" d="M 238.695312 195.152344 L 257.425781 156.917969 L 330.085938 175.824219 Z M 330.289062 175.179688 L 291.789062 158.8125 L 260.726562 145.613281 L 269.421875 104.507812 Z M 324.179688 173.757812 L 257.851562 156.496094 L 262.324219 152.894531 Z M 260.820312 146.214844 L 324.882812 173.445312 L 262.488281 152.398438 Z M 331.292969 176.089844 C 331.308594 176.085938 331.316406 176.085938 331.328125 176.078125 C 331.347656 176.074219 331.351562 176.058594 331.367188 176.046875 C 331.382812 176.03125 331.402344 176.023438 331.414062 176.007812 C 331.417969 176.007812 331.421875 176.007812 331.421875 176.007812 C 331.429688 175.996094 331.425781 175.984375 331.433594 175.972656 C 331.4375 175.960938 331.453125 175.957031 331.457031 175.945312 C 331.457031 175.941406 331.453125 175.9375 331.457031 175.9375 C 331.457031 175.933594 331.460938 175.929688 331.460938 175.929688 C 331.464844 175.917969 331.457031 175.90625 331.460938 175.894531 C 331.464844 175.882812 331.472656 175.871094 331.472656 175.859375 C 331.472656 175.855469 331.46875 175.851562 331.46875 175.851562 C 331.472656 175.832031 331.457031 175.8125 331.453125 175.792969 C 331.449219 175.773438 331.453125 175.761719 331.445312 175.742188 C 331.441406 175.738281 331.4375 175.734375 331.429688 175.722656 C 331.425781 175.714844 331.421875 175.699219 331.414062 175.691406 C 331.410156 175.6875 331.414062 175.6875 331.410156 175.683594 L 269.472656 103.773438 C 269.410156 103.695312 269.308594 103.664062 269.214844 103.691406 C 269.117188 103.714844 269.042969 103.792969 269.019531 103.886719 L 260.175781 145.710938 C 260.171875 145.75 260.179688 145.78125 260.1875 145.816406 C 260.1875 145.820312 260.179688 145.828125 260.179688 145.832031 L 261.980469 152.507812 L 257.121094 156.417969 C 257.113281 156.421875 257.121094 156.4375 257.113281 156.445312 C 257.089844 156.464844 257.066406 156.476562 257.050781 156.503906 L 238 195.402344 C 237.964844 195.464844 237.964844 195.542969 237.988281 195.609375 C 238 195.632812 238.011719 195.652344 238.027344 195.675781 C 238.089844 195.75 238.1875 195.789062 238.285156 195.765625 L 331.269531 176.105469 C 331.277344 176.105469 331.285156 176.09375 331.292969 176.089844 " fill-opacity="1" fill-rule="nonzero"/></g></g></g><g clip-path="url(#fdbcd2099c)"><g clip-path="url(#d2cda4878c)"><g clip-path="url(#ac42e68016)"><path fill="#ffb8c6" d="M 298.496094 712.402344 C 302.96875 699.417969 305.929688 685.976562 307.292969 672.308594 C 308.011719 665.417969 308.253906 658.480469 308.132812 651.5625 C 308.039062 645.546875 308.054688 639.066406 306.382812 633.246094 C 304.9375 628.113281 301.753906 624.117188 296.757812 621.976562 C 291.304688 619.609375 285.03125 619.375 279.214844 618.769531 C 264.746094 617.140625 250.28125 615.515625 235.8125 613.886719 C 224.191406 612.558594 211.695312 612.15625 200.769531 607.65625 C 195.9375 605.652344 191.507812 602.667969 188.480469 598.328125 C 185.195312 593.605469 184.054688 587.84375 184.464844 582.179688 C 185.300781 570.679688 191.5625 560.105469 198.992188 551.570312 C 206.613281 542.878906 216.347656 535.847656 227.105469 531.625 C 231.039062 530.113281 237.304688 528.722656 240.738281 532.023438 C 245.8125 536.875 238.949219 544.027344 235.691406 547.648438 C 228.023438 556.214844 219.308594 563.835938 209.820312 570.292969 C 190.832031 583.265625 168.648438 591.761719 145.769531 594.300781 C 133.929688 595.648438 120.746094 594.9375 111.640625 586.183594 C 105.320312 580.0625 102.007812 571.550781 99.324219 563.34375 C 96.492188 554.824219 94.230469 546.003906 89.894531 538.105469 C 87.820312 534.40625 85.363281 530.910156 82.183594 528.054688 C 77.910156 524.128906 72.53125 521.648438 67.101562 519.640625 C 43.289062 510.976562 15.460938 508.617188 -3.414062 489.960938 C -11.898438 481.570312 -16.292969 470.785156 -17.34375 458.96875 C -18.371094 446.972656 -16.515625 434.917969 -15.933594 422.972656 C -15.636719 417.238281 -15.695312 411.46875 -16.359375 405.753906 C -16.480469 404.601562 -18.25 404.898438 -18.128906 406.050781 C -15.386719 429.8125 -25.226562 455.746094 -14.195312 478.269531 C -2.769531 501.617188 24.515625 509.199219 47.550781 515.5625 C 54.371094 517.472656 61.253906 519.332031 67.828125 521.878906 C 73.484375 524.027344 78.828125 526.867188 82.914062 531.375 C 89.101562 538.203125 92.1875 547.171875 94.949219 555.804688 C 97.707031 564.4375 100.199219 573.34375 105.15625 581.066406 C 107.53125 584.734375 110.546875 588.050781 114.121094 590.585938 C 119.160156 594.050781 125.09375 595.808594 131.09375 596.375 C 143.03125 597.558594 155.578125 595.144531 167.070312 591.957031 C 178.375 588.8125 189.335938 584.371094 199.589844 578.652344 C 209.777344 572.988281 219.253906 566.109375 227.816406 558.175781 C 232.066406 554.234375 236.097656 550.09375 239.746094 545.609375 C 242.902344 541.796875 246.273438 535.902344 242.554688 531.3125 C 239.730469 527.894531 234.578125 527.839844 230.65625 528.632812 C 225.382812 529.703125 220.296875 532.476562 215.75 535.246094 C 205.886719 541.242188 197.355469 549.417969 191.0625 559.152344 C 185.121094 568.378906 180.722656 580.109375 183.410156 591.136719 C 186.019531 601.796875 195.082031 608.085938 205.160156 610.996094 C 210.402344 612.5 215.769531 613.359375 221.164062 613.984375 C 228.570312 614.875 235.929688 615.640625 243.339844 616.472656 C 257.988281 618.117188 272.722656 619.472656 287.332031 621.476562 C 293.367188 622.285156 299.855469 623.921875 303.042969 629.597656 C 306.078125 635.015625 306.078125 641.921875 306.351562 647.953125 C 306.828125 662.351562 305.558594 676.871094 302.582031 691.03125 C 301.070312 698.078125 299.152344 704.964844 296.820312 711.804688 C 296.410156 712.84375 298.082031 713.5 298.496094 712.402344 Z M 298.496094 712.402344 " fill-opacity="1" fill-rule="nonzero"/></g></g></g><g clip-path="url(#4d76b25572)"><g clip-path="url(#bb260d19b9)"><g clip-path="url(#226f35c1a7)"><path fill="#ffb8c6" d="M 185.851562 491.644531 C 186.3125 491.65625 186.695312 491.296875 186.773438 490.851562 C 186.832031 490.328125 186.488281 489.875 185.972656 489.785156 C 181.980469 489.320312 177.992188 488.855469 174 488.390625 C 174.246094 486.625 174.457031 484.851562 174.707031 483.050781 C 174.476562 481.164062 173.351562 479.929688 172.488281 479.992188 C 171.59375 480.042969 170.433594 481.578125 170.71875 483.757812 C 170.714844 485.175781 170.671875 486.589844 170.667969 488.007812 C 168.933594 487.804688 167.230469 487.609375 165.496094 487.40625 C 165.222656 487.355469 164.808594 487.28125 164.304688 487.335938 C 163.007812 487.457031 161.496094 488.394531 161.417969 489.410156 C 161.378906 490.433594 162.808594 491.753906 165.046875 491.90625 C 166.894531 491.878906 168.742188 491.855469 170.621094 491.835938 C 170.582031 494.632812 170.550781 497.398438 170.542969 500.203125 C 170.566406 500.667969 170.890625 501.042969 171.34375 501.089844 C 171.855469 501.183594 172.316406 500.800781 172.40625 500.285156 C 172.773438 497.441406 173.175781 494.601562 173.535156 491.789062 C 177.652344 491.742188 181.734375 491.691406 185.851562 491.644531 Z M 185.851562 491.644531 " fill-opacity="1" fill-rule="nonzero"/></g></g></g><g clip-path="url(#38470dddc0)"><g clip-path="url(#4623dcb6da)"><g clip-path="url(#885be54e7c)"><path fill="#ffb8c6" d="M 223.949219 492.167969 C 224.039062 491.257812 222.804688 490.257812 221.648438 489.980469 C 221.207031 489.867188 220.851562 489.875 220.601562 489.898438 C 219.082031 489.875 217.527344 489.847656 216.007812 489.824219 C 216.160156 488.574219 216.3125 487.324219 216.464844 486.070312 C 216.941406 484.203125 216.109375 482.707031 215.320312 482.566406 C 214.601562 482.4375 213.441406 483.367188 213.007812 484.992188 C 213.007812 486.589844 213.011719 488.152344 213.007812 489.75 C 209.445312 489.679688 205.871094 489.648438 202.339844 489.585938 C 201.882812 489.574219 201.527344 489.972656 201.515625 490.429688 C 201.511719 490.855469 201.839844 491.199219 202.21875 491.265625 C 205.804688 491.800781 209.402344 492.300781 213.023438 492.84375 C 213.035156 495.363281 213.039062 497.921875 213.011719 500.4375 C 213.035156 500.90625 213.398438 501.253906 213.859375 501.265625 C 214.246094 501.261719 214.582031 500.96875 214.65625 500.554688 C 214.949219 498.121094 215.25 495.652344 215.546875 493.1875 C 217.175781 493.40625 218.792969 493.660156 220.421875 493.878906 C 222.476562 494.070312 223.894531 493.078125 223.949219 492.167969 Z M 223.949219 492.167969 " fill-opacity="1" fill-rule="nonzero"/></g></g></g><g clip-path="url(#2a558059ac)"><g clip-path="url(#5479e1c2ce)"><g clip-path="url(#1998736004)"><path fill="#ffb8c6" d="M 211.101562 508.371094 C 205.761719 507.914062 200.421875 507.457031 195.085938 507 C 195.332031 504.628906 195.578125 502.257812 195.796875 499.847656 C 195.429688 497.332031 193.832031 495.769531 192.71875 495.855469 C 191.53125 495.960938 190.058594 498.042969 190.5 500.925781 C 190.554688 502.816406 190.570312 504.703125 190.621094 506.59375 C 188.320312 506.394531 186.015625 506.195312 183.714844 506 C 183.335938 505.929688 182.78125 505.867188 182.125 505.964844 C 180.378906 506.21875 178.375 507.53125 178.382812 508.878906 C 178.347656 510.257812 180.3125 511.960938 183.34375 512.039062 C 185.804688 511.945312 188.273438 511.820312 190.765625 511.734375 C 190.847656 515.441406 190.929688 519.148438 191.007812 522.890625 C 191.039062 523.5 191.484375 523.96875 192.109375 524.046875 C 192.804688 524.132812 193.421875 523.640625 193.511719 522.945312 C 193.90625 519.144531 194.265625 515.339844 194.65625 511.574219 C 200.117188 511.34375 205.585938 511.078125 211.046875 510.847656 C 211.65625 510.8125 212.167969 510.335938 212.242188 509.710938 C 212.285156 509.078125 211.792969 508.457031 211.101562 508.371094 Z M 211.101562 508.371094 " fill-opacity="1" fill-rule="nonzero"/></g></g></g><g mask="url(#bb89c7a251)"><g transform="matrix(1, 0, 0, 1, 865, 688)"><g clip-path="url(#71404eb46b)"><g clip-path="url(#4f78d2434b)"><g clip-path="url(#e592c76ed1)"><g clip-path="url(#ba1d26ae53)"><path fill="#d0c3f1" d="M 6.914062 20.367188 C 10.679688 17.910156 14.824219 16.480469 19.335938 16.308594 C 23.589844 16.152344 26.609375 18.289062 28.113281 22.3125 C 30.160156 27.691406 28.621094 33.253906 24.855469 37.214844 C 23.753906 37.96875 22.710938 38.890625 21.746094 39.925781 C 19.300781 42.503906 23.027344 46.46875 25.871094 44.480469 C 26.976562 43.726562 28.003906 42.863281 28.957031 41.894531 C 31.914062 39.988281 35.460938 39.503906 39.046875 40.5 C 43.242188 41.671875 47.046875 44.886719 48.144531 49.1875 C 49.054688 52.65625 47.960938 56.191406 46.152344 59.144531 C 46.113281 59.171875 46.101562 59.234375 46.054688 59.320312 C 44.566406 59.902344 43.140625 60.660156 41.84375 61.597656 C 39.882812 62.988281 37.160156 65.003906 37.199219 67.664062 C 37.199219 69.167969 38.429688 70.105469 39.726562 70.507812 C 42.351562 71.355469 46.246094 68.058594 47.96875 66.558594 C 48.703125 65.898438 49.339844 65.25 49.914062 64.589844 C 51.328125 64.21875 52.796875 64.078125 54.253906 64.160156 C 58.460938 64.410156 62.207031 66.585938 64.164062 70.25 C 67.214844 75.914062 64.925781 82.039062 60.996094 86.546875 C 59.3125 87.636719 57.832031 89.023438 56.601562 90.613281 C 54.554688 93.300781 57.773438 97.394531 60.726562 95.167969 C 62.183594 94.066406 63.59375 92.890625 64.828125 91.621094 C 68.242188 89.832031 72.234375 90.550781 75.152344 94.207031 C 79.085938 99.265625 78.765625 106.148438 73.484375 110.335938 C 71.488281 111.910156 72.960938 114.941406 75.484375 114.296875 C 86.214844 111.550781 85.632812 97.492188 79.941406 90.40625 C 77.359375 87.167969 73.808594 84.800781 69.707031 84.316406 C 69.976562 83.761719 70.214844 83.164062 70.394531 82.558594 C 72.425781 76.609375 71.910156 69.917969 67.953125 64.824219 C 64.507812 60.398438 59.105469 58.003906 53.554688 57.917969 C 54.757812 54.464844 54.984375 50.765625 54 47.1875 C 52.226562 40.710938 46.484375 36.078125 40.179688 34.410156 C 38.136719 33.863281 36.0625 33.664062 34.042969 33.859375 C 35.703125 29.183594 35.703125 23.96875 33.464844 19.097656 C 30.921875 13.628906 26.238281 10.15625 20.132812 10.125 C 14.125 10.078125 8.378906 12.003906 3.398438 15.289062 C 0.0742188 17.445312 3.550781 22.546875 6.914062 20.367188 Z M 40.3125 64.253906 C 39.757812 64.46875 39.65625 64.160156 40.3125 64.253906 Z M 43.214844 68.511719 C 42.988281 69.363281 42.589844 69.097656 43.214844 68.511719 Z M 43.214844 68.511719 " fill-opacity="1" fill-rule="nonzero"/></g></g></g></g></g></g><g clip-path="url(#2826115116)"><path fill="#ffbb40" d="M 911.191406 540.480469 C 910.226562 538.078125 907.453125 537.777344 905.199219 538.105469 C 903.71875 538.320312 902.289062 538.8125 900.914062 539.441406 C 901.902344 537.859375 902.480469 536.027344 902.34375 534.171875 C 902.097656 531.246094 899.292969 529.226562 896.410156 529.363281 C 894.101562 529.472656 891.738281 530.835938 891.132812 533.1875 C 890.777344 534.523438 891.023438 535.917969 891.492188 537.203125 C 891.628906 537.585938 892.535156 539.222656 892.644531 539.988281 C 892.617188 539.988281 892.535156 539.960938 892.453125 539.878906 C 892.289062 539.742188 892.066406 539.605469 891.902344 539.46875 C 891.4375 539.085938 890.96875 538.675781 890.5 538.292969 C 889.511719 537.503906 888.46875 536.765625 887.289062 536.300781 C 884.429688 535.207031 881.242188 536.410156 879.429688 538.785156 C 877.644531 541.164062 878.496094 543.675781 880.859375 545.207031 C 882.175781 546.050781 883.660156 546.542969 885.199219 546.625 C 882.148438 549.195312 880.914062 553.511719 883.386719 557.117188 C 884.511719 558.753906 886.433594 560.09375 888.441406 560.367188 C 890.445312 560.613281 891.957031 559.492188 892.890625 557.824219 C 893.796875 556.242188 894.210938 554.4375 894.761719 552.746094 C 894.84375 552.472656 895.199219 551.296875 895.417969 551.296875 C 895.503906 551.296875 896.1875 553.15625 896.296875 553.429688 C 897.207031 555.367188 898.6875 557.117188 900.503906 558.261719 C 902.5625 559.601562 904.542969 559.492188 906.21875 557.660156 C 907.753906 555.96875 909.488281 553.648438 908.332031 551.296875 C 907.589844 549.796875 906.21875 548.839844 904.679688 548.238281 C 908.550781 547.253906 912.894531 544.769531 911.191406 540.480469 Z M 892.644531 539.988281 C 892.617188 539.988281 892.589844 540.015625 892.5625 540.042969 C 892.589844 539.988281 892.617188 539.988281 892.644531 539.988281 Z M 907.480469 545.917969 C 905.722656 546.925781 903.660156 547.335938 901.65625 547.472656 C 900.832031 547.527344 900.886719 548.59375 901.65625 548.703125 C 903.746094 548.976562 906.65625 549.957031 907.371094 552.199219 C 907.949219 554.027344 905.914062 556.652344 904.457031 557.632812 C 902.726562 558.808594 900.585938 556.953125 899.402344 555.75 C 898.632812 554.957031 898.003906 554.054688 897.507812 553.074219 C 897.152344 552.335938 896.929688 551.515625 896.519531 550.832031 C 896.050781 550.039062 895.144531 549.820312 894.484375 550.53125 C 893.742188 551.324219 893.523438 552.664062 893.222656 553.648438 C 892.78125 555.148438 892.316406 556.789062 891.324219 558.015625 C 889.789062 559.902344 887.371094 559.136719 885.695312 557.824219 C 884.046875 556.542969 883.054688 554.492188 883.195312 552.363281 C 883.386719 549.46875 885.527344 547.390625 888.082031 546.269531 C 888.742188 545.96875 888.277344 544.960938 887.617188 545.152344 C 885.417969 545.753906 883.222656 545.34375 881.378906 544.113281 C 880.417969 543.457031 879.484375 542.5 879.59375 541.246094 C 879.730469 539.6875 881.160156 538.347656 882.480469 537.667969 C 885.117188 536.273438 887.589844 537.421875 889.703125 539.140625 C 890.445312 539.742188 892.039062 541.765625 893.195312 541.082031 C 893.550781 540.863281 893.550781 540.480469 893.359375 540.207031 C 893.359375 539.988281 893.304688 539.742188 893.222656 539.523438 C 892.945312 538.566406 892.453125 537.667969 892.175781 536.738281 C 891.378906 534.171875 892.011719 531.628906 894.707031 530.617188 C 897.316406 529.636719 900.941406 531.21875 901.160156 534.199219 C 901.355469 536.710938 900.089844 539.277344 898.25 540.917969 C 897.78125 541.328125 898.386719 542.117188 898.9375 541.792969 C 900.421875 540.890625 901.984375 540.152344 903.660156 539.660156 C 905.53125 539.140625 908.800781 538.566406 909.925781 540.671875 C 911.164062 542.910156 909.320312 544.878906 907.480469 545.917969 Z M 907.480469 545.917969 " fill-opacity="1" fill-rule="nonzero"/></g><path fill="#754c24" d="M 896.242188 542.609375 C 895.417969 542.445312 894.347656 542.445312 893.632812 542.9375 C 893.441406 543.074219 893.222656 543.292969 893.058594 543.511719 C 892.917969 543.648438 892.78125 543.8125 892.699219 544.003906 C 892.398438 544.714844 892.535156 545.671875 892.863281 546.324219 C 893.6875 547.964844 895.886719 548.210938 896.984375 546.707031 C 897.976562 545.453125 898.304688 543.019531 896.242188 542.609375 Z M 896.023438 545.671875 C 895.144531 547.363281 893.9375 546.132812 893.742188 545.042969 C 893.824219 545.015625 893.882812 544.988281 893.964844 544.933594 C 894.210938 544.742188 894.238281 544.46875 894.429688 544.277344 C 894.707031 544.03125 895.144531 544.058594 895.472656 544.058594 C 895.914062 544.085938 896.269531 544.085938 896.355469 544.605469 C 896.355469 544.933594 896.160156 545.371094 896.023438 545.671875 Z M 896.023438 545.671875 " fill-opacity="1" fill-rule="nonzero"/><path fill="#c8d9ee" d="M 629.605469 635.789062 C 629.460938 639.175781 627.300781 641.648438 625.28125 641.8125 C 622.902344 642 619.742188 639.035156 620.101562 634.683594 C 618.246094 636.378906 615.65625 636.730469 613.804688 635.648438 C 612.472656 634.871094 611.640625 633.460938 611.546875 632.09375 C 611.378906 629.601562 613.613281 626.941406 617.128906 626.1875 C 613.445312 626.257812 610.855469 623.246094 611.191406 620.5625 C 611.523438 617.90625 614.777344 615.695312 617.582031 616.585938 C 619.339844 617.152344 620.621094 618.894531 620.882812 620.988281 C 620.550781 618.515625 621.667969 616.09375 623.710938 614.941406 C 626.230469 613.503906 629.84375 614.164062 631.363281 616.707031 C 632.457031 618.539062 632.265625 620.988281 630.863281 622.917969 C 633.214844 620.046875 636.875 619.765625 638.609375 621.316406 C 639.941406 622.515625 640.105469 624.777344 639.394531 626.492188 C 638.277344 629.128906 635.378906 629.578125 635.257812 629.601562 C 635.496094 629.71875 638.085938 630.894531 638.609375 633.671875 C 638.824219 634.894531 638.730469 636.824219 637.515625 637.835938 C 635.828125 639.199219 632.265625 638.730469 629.605469 635.789062 Z M 629.605469 635.789062 " fill-opacity="1" fill-rule="nonzero"/><path fill="#ffffff" d="M 620.90625 625.058594 C 622.761719 622.613281 627.75 622.492188 629.84375 624.964844 C 631.269531 626.660156 631.21875 629.460938 629.222656 631.105469 C 627.039062 632.894531 623.546875 632.496094 621.644531 630.707031 C 620.027344 629.175781 619.671875 626.707031 620.90625 625.058594 Z M 620.90625 625.058594 " fill-opacity="1" fill-rule="nonzero"/><path fill="#ffe4b3" d="M 756.394531 157.554688 C 756.921875 156.710938 756.921875 155.609375 756.5 154.820312 C 756.660156 153.871094 756.289062 152.765625 755.5 152.082031 C 755.921875 150.191406 754.238281 147.875 751.976562 149.03125 C 749.925781 150.085938 747.875 151.085938 745.769531 152.03125 C 747.347656 150.191406 748.875 148.402344 750.453125 146.667969 C 752.082031 144.824219 750.292969 142.722656 748.347656 142.667969 C 747.929688 141.773438 747.035156 141.195312 746.085938 141.089844 C 745.402344 140.460938 744.296875 140.144531 743.300781 140.40625 C 742.617188 139.722656 741.5625 139.410156 740.667969 139.566406 C 739.195312 138.828125 736.832031 139.617188 736.566406 141.828125 C 736.410156 143.511719 736.25 145.195312 736.09375 146.875 C 735.515625 145.929688 734.9375 145.035156 734.359375 144.089844 C 734.304688 143.878906 734.199219 143.722656 734.042969 143.511719 C 733.886719 143.140625 733.621094 142.773438 733.410156 142.457031 C 732.203125 140.722656 729.992188 141.089844 728.941406 142.300781 C 727.996094 142.511719 727.152344 143.300781 726.835938 144.300781 C 725.890625 144.511719 725.050781 145.195312 724.679688 146.035156 C 723.261719 146.875 722.628906 149.296875 724.367188 150.714844 C 725.679688 151.769531 726.996094 152.820312 728.363281 153.820312 C 727.257812 153.765625 726.152344 153.765625 725.101562 153.765625 C 724.890625 153.714844 724.679688 153.714844 724.417969 153.714844 C 723.996094 153.714844 723.578125 153.714844 723.15625 153.765625 C 721.050781 153.820312 720.105469 155.871094 720.578125 157.394531 C 720.261719 158.289062 720.472656 159.445312 721.105469 160.234375 C 720.734375 161.128906 720.894531 162.234375 721.421875 162.972656 C 721.421875 164.601562 723.101562 166.496094 725.207031 165.8125 C 726.835938 165.285156 728.414062 164.757812 729.992188 164.179688 C 729.363281 165.074219 728.730469 165.96875 728.152344 166.914062 C 727.996094 167.074219 727.890625 167.230469 727.730469 167.441406 C 727.519531 167.808594 727.3125 168.125 727.101562 168.492188 C 725.996094 170.28125 727.257812 172.175781 728.785156 172.648438 C 729.363281 173.382812 730.414062 173.859375 731.464844 173.753906 C 732.042969 174.542969 732.992188 175.015625 733.9375 174.960938 C 734.726562 175.488281 735.882812 175.59375 736.832031 175.171875 C 738.40625 176.328125 741.144531 175.75 741.039062 173.226562 C 740.933594 170.914062 740.878906 168.652344 740.828125 166.335938 C 741.878906 168.441406 742.878906 170.597656 743.824219 172.699219 C 744.824219 174.910156 747.453125 174.171875 748.347656 172.4375 C 749.347656 172.386719 750.242188 171.808594 750.714844 171.019531 C 751.609375 170.648438 752.292969 169.753906 752.449219 168.703125 C 754.292969 168.019531 755.289062 165.390625 753.082031 164.128906 C 751.082031 162.972656 749.136719 161.761719 747.191406 160.550781 C 749.503906 160.8125 751.871094 161.128906 754.1875 161.5 C 756.605469 161.867188 757.394531 159.238281 756.394531 157.554688 Z M 756.394531 157.554688 " fill-opacity="1" fill-rule="nonzero"/><path fill="#ffffff" d="M 739.722656 163.023438 C 737.621094 163.023438 736.042969 162.550781 734.675781 161.445312 C 733.570312 160.605469 732.886719 159.5 732.621094 158.132812 C 732.359375 156.605469 732.78125 155.34375 733.726562 154.1875 C 734.09375 153.765625 734.515625 153.398438 735.042969 153.136719 C 735.199219 153.03125 735.410156 152.925781 735.566406 152.820312 C 736.199219 152.347656 736.933594 152.136719 737.722656 152.082031 C 738.722656 151.976562 739.617188 152.082031 740.566406 152.453125 C 741.773438 152.871094 742.824219 153.554688 743.667969 154.554688 C 744.878906 155.976562 745.246094 157.605469 744.824219 159.394531 C 744.507812 160.761719 743.667969 161.761719 742.40625 162.390625 C 741.457031 162.8125 740.40625 163.023438 739.722656 163.023438 Z M 739.722656 163.023438 " fill-opacity="1" fill-rule="nonzero"/><g clip-path="url(#652720cc22)"><path fill="#ffbb40" d="M 1357.046875 41.226562 C 1356.085938 38.765625 1353.3125 38.460938 1351.058594 38.792969 C 1349.574219 39.019531 1348.148438 39.523438 1346.773438 40.164062 C 1347.761719 38.542969 1348.339844 36.667969 1348.203125 34.765625 C 1347.953125 31.773438 1345.152344 29.703125 1342.265625 29.84375 C 1339.960938 29.957031 1337.597656 31.355469 1336.992188 33.761719 C 1336.636719 35.128906 1336.882812 36.558594 1337.347656 37.871094 C 1337.488281 38.261719 1338.394531 39.941406 1338.503906 40.726562 C 1338.476562 40.726562 1338.394531 40.695312 1338.3125 40.613281 C 1338.144531 40.472656 1337.925781 40.332031 1337.761719 40.191406 C 1337.292969 39.800781 1336.828125 39.382812 1336.359375 38.992188 C 1335.371094 38.179688 1334.328125 37.425781 1333.144531 36.949219 C 1330.289062 35.828125 1327.101562 37.058594 1325.289062 39.492188 C 1323.503906 41.925781 1324.355469 44.5 1326.714844 46.066406 C 1328.035156 46.933594 1329.519531 47.4375 1331.058594 47.523438 C 1328.007812 50.152344 1326.773438 54.570312 1329.246094 58.261719 C 1330.371094 59.941406 1332.292969 61.3125 1334.300781 61.589844 C 1336.304688 61.84375 1337.816406 60.695312 1338.75 58.988281 C 1339.65625 57.367188 1340.070312 55.523438 1340.617188 53.789062 C 1340.703125 53.507812 1341.058594 52.304688 1341.277344 52.304688 C 1341.359375 52.304688 1342.046875 54.207031 1342.15625 54.488281 C 1343.0625 56.472656 1344.546875 58.261719 1346.359375 59.4375 C 1348.421875 60.808594 1350.398438 60.695312 1352.074219 58.824219 C 1353.613281 57.089844 1355.34375 54.710938 1354.191406 52.304688 C 1353.449219 50.765625 1352.074219 49.789062 1350.539062 49.171875 C 1354.410156 48.164062 1358.753906 45.621094 1357.046875 41.226562 Z M 1338.503906 40.726562 C 1338.476562 40.726562 1338.449219 40.753906 1338.421875 40.78125 C 1338.449219 40.726562 1338.476562 40.726562 1338.503906 40.726562 Z M 1353.339844 46.792969 C 1351.582031 47.828125 1349.519531 48.25 1347.515625 48.390625 C 1346.691406 48.445312 1346.746094 49.535156 1347.515625 49.648438 C 1349.601562 49.925781 1352.515625 50.933594 1353.230469 53.226562 C 1353.808594 55.101562 1351.773438 57.789062 1350.316406 58.792969 C 1348.585938 59.996094 1346.445312 58.09375 1345.261719 56.863281 C 1344.492188 56.054688 1343.859375 55.128906 1343.367188 54.125 C 1343.007812 53.367188 1342.789062 52.527344 1342.378906 51.828125 C 1341.910156 51.019531 1341.003906 50.792969 1340.34375 51.523438 C 1339.601562 52.332031 1339.382812 53.703125 1339.082031 54.710938 C 1338.640625 56.25 1338.171875 57.925781 1337.183594 59.1875 C 1335.644531 61.117188 1333.226562 60.332031 1331.550781 58.988281 C 1329.902344 57.675781 1328.914062 55.578125 1329.050781 53.394531 C 1329.246094 50.429688 1331.386719 48.304688 1333.941406 47.15625 C 1334.601562 46.851562 1334.136719 45.816406 1333.476562 46.011719 C 1331.277344 46.625 1329.078125 46.207031 1327.238281 44.949219 C 1326.277344 44.277344 1325.34375 43.296875 1325.453125 42.011719 C 1325.589844 40.417969 1327.019531 39.046875 1328.335938 38.347656 C 1330.976562 36.921875 1333.449219 38.09375 1335.5625 39.859375 C 1336.304688 40.472656 1337.898438 42.542969 1339.054688 41.84375 C 1339.410156 41.621094 1339.410156 41.226562 1339.21875 40.949219 C 1339.21875 40.726562 1339.164062 40.472656 1339.082031 40.25 C 1338.804688 39.269531 1338.3125 38.347656 1338.035156 37.394531 C 1337.238281 34.765625 1337.871094 32.164062 1340.5625 31.128906 C 1343.175781 30.125 1346.800781 31.746094 1347.019531 34.792969 C 1347.210938 37.367188 1345.949219 39.996094 1344.109375 41.675781 C 1343.640625 42.09375 1344.246094 42.90625 1344.796875 42.570312 C 1346.277344 41.648438 1347.84375 40.894531 1349.519531 40.390625 C 1351.390625 39.859375 1354.660156 39.269531 1355.785156 41.425781 C 1357.019531 43.71875 1355.179688 45.730469 1353.339844 46.792969 Z M 1353.339844 46.792969 " fill-opacity="1" fill-rule="nonzero"/></g><path fill="#754c24" d="M 1342.101562 43.410156 C 1341.277344 43.242188 1340.207031 43.242188 1339.492188 43.746094 C 1339.300781 43.886719 1339.082031 44.109375 1338.914062 44.332031 C 1338.777344 44.472656 1338.640625 44.640625 1338.558594 44.835938 C 1338.257812 45.5625 1338.394531 46.542969 1338.722656 47.214844 C 1339.546875 48.890625 1341.746094 49.144531 1342.84375 47.605469 C 1343.832031 46.320312 1344.164062 43.828125 1342.101562 43.410156 Z M 1341.882812 46.542969 C 1341.003906 48.277344 1339.792969 47.019531 1339.601562 45.898438 C 1339.683594 45.871094 1339.738281 45.84375 1339.820312 45.789062 C 1340.070312 45.589844 1340.097656 45.3125 1340.289062 45.117188 C 1340.5625 44.863281 1341.003906 44.890625 1341.332031 44.890625 C 1341.773438 44.921875 1342.128906 44.921875 1342.210938 45.453125 C 1342.210938 45.789062 1342.019531 46.234375 1341.882812 46.542969 Z M 1341.882812 46.542969 " fill-opacity="1" fill-rule="nonzero"/><g clip-path="url(#d837b1348b)"><path fill="#ffbb40" d="M 1374.796875 710.902344 C 1373.835938 708.441406 1371.0625 708.132812 1368.808594 708.46875 C 1367.324219 708.695312 1365.894531 709.199219 1364.523438 709.839844 C 1365.511719 708.21875 1366.089844 706.34375 1365.949219 704.441406 C 1365.703125 701.449219 1362.902344 699.378906 1360.015625 699.519531 C 1357.707031 699.632812 1355.34375 701.03125 1354.742188 703.433594 C 1354.382812 704.804688 1354.632812 706.230469 1355.097656 707.546875 C 1355.234375 707.9375 1356.140625 709.617188 1356.253906 710.398438 C 1356.226562 710.398438 1356.140625 710.371094 1356.058594 710.289062 C 1355.894531 710.148438 1355.675781 710.007812 1355.511719 709.867188 C 1355.042969 709.476562 1354.578125 709.058594 1354.109375 708.664062 C 1353.121094 707.855469 1352.074219 707.097656 1350.894531 706.625 C 1348.039062 705.503906 1344.851562 706.734375 1343.035156 709.167969 C 1341.25 711.601562 1342.101562 714.175781 1344.464844 715.742188 C 1345.785156 716.609375 1347.269531 717.113281 1348.808594 717.195312 C 1345.757812 719.828125 1344.519531 724.246094 1346.992188 727.9375 C 1348.121094 729.617188 1350.042969 730.988281 1352.046875 731.265625 C 1354.054688 731.519531 1355.566406 730.371094 1356.5 728.664062 C 1357.40625 727.042969 1357.820312 725.195312 1358.367188 723.460938 C 1358.449219 723.183594 1358.808594 721.980469 1359.027344 721.980469 C 1359.109375 721.980469 1359.796875 723.882812 1359.90625 724.160156 C 1360.8125 726.148438 1362.296875 727.9375 1364.109375 729.113281 C 1366.171875 730.484375 1368.148438 730.371094 1369.824219 728.496094 C 1371.363281 726.761719 1373.09375 724.386719 1371.941406 721.980469 C 1371.199219 720.441406 1369.824219 719.460938 1368.285156 718.847656 C 1372.160156 717.839844 1376.5 715.296875 1374.796875 710.902344 Z M 1356.253906 710.398438 C 1356.226562 710.398438 1356.199219 710.429688 1356.167969 710.457031 C 1356.199219 710.398438 1356.226562 710.398438 1356.253906 710.398438 Z M 1371.089844 716.46875 C 1369.332031 717.503906 1367.269531 717.925781 1365.265625 718.0625 C 1364.441406 718.121094 1364.496094 719.210938 1365.265625 719.324219 C 1367.351562 719.601562 1370.265625 720.609375 1370.980469 722.902344 C 1371.554688 724.777344 1369.523438 727.460938 1368.066406 728.46875 C 1366.335938 729.671875 1364.191406 727.769531 1363.011719 726.539062 C 1362.242188 725.726562 1361.609375 724.804688 1361.117188 723.796875 C 1360.757812 723.042969 1360.539062 722.203125 1360.125 721.503906 C 1359.660156 720.695312 1358.753906 720.46875 1358.09375 721.195312 C 1357.351562 722.007812 1357.132812 723.378906 1356.828125 724.386719 C 1356.390625 725.925781 1355.921875 727.601562 1354.933594 728.859375 C 1353.394531 730.792969 1350.976562 730.007812 1349.300781 728.664062 C 1347.652344 727.351562 1346.664062 725.253906 1346.800781 723.070312 C 1346.992188 720.105469 1349.136719 717.980469 1351.691406 716.832031 C 1352.351562 716.527344 1351.882812 715.492188 1351.222656 715.6875 C 1349.027344 716.300781 1346.828125 715.882812 1344.988281 714.625 C 1344.027344 713.953125 1343.09375 712.972656 1343.203125 711.6875 C 1343.339844 710.09375 1344.769531 708.722656 1346.085938 708.023438 C 1348.722656 706.597656 1351.195312 707.769531 1353.3125 709.53125 C 1354.054688 710.148438 1355.648438 712.21875 1356.800781 711.519531 C 1357.160156 711.296875 1357.160156 710.902344 1356.964844 710.625 C 1356.964844 710.398438 1356.910156 710.148438 1356.828125 709.925781 C 1356.554688 708.945312 1356.058594 708.023438 1355.785156 707.070312 C 1354.988281 704.441406 1355.621094 701.839844 1358.3125 700.804688 C 1360.921875 699.800781 1364.550781 701.421875 1364.769531 704.46875 C 1364.960938 707.042969 1363.699219 709.671875 1361.855469 711.351562 C 1361.390625 711.769531 1361.996094 712.582031 1362.542969 712.246094 C 1364.027344 711.324219 1365.59375 710.566406 1367.269531 710.0625 C 1369.136719 709.53125 1372.40625 708.945312 1373.535156 711.097656 C 1374.769531 713.394531 1372.929688 715.40625 1371.089844 716.46875 Z M 1371.089844 716.46875 " fill-opacity="1" fill-rule="nonzero"/></g><path fill="#754c24" d="M 1359.851562 713.085938 C 1359.027344 712.917969 1357.957031 712.917969 1357.242188 713.421875 C 1357.050781 713.5625 1356.828125 713.785156 1356.664062 714.007812 C 1356.527344 714.148438 1356.390625 714.316406 1356.308594 714.511719 C 1356.003906 715.238281 1356.140625 716.21875 1356.472656 716.890625 C 1357.296875 718.566406 1359.496094 718.820312 1360.59375 717.28125 C 1361.582031 715.996094 1361.910156 713.503906 1359.851562 713.085938 Z M 1359.632812 716.21875 C 1358.753906 717.953125 1357.542969 716.695312 1357.351562 715.574219 C 1357.433594 715.546875 1357.488281 715.519531 1357.570312 715.460938 C 1357.820312 715.265625 1357.847656 714.988281 1358.039062 714.792969 C 1358.3125 714.539062 1358.753906 714.566406 1359.082031 714.566406 C 1359.523438 714.597656 1359.878906 714.597656 1359.960938 715.128906 C 1359.960938 715.460938 1359.769531 715.910156 1359.632812 716.21875 Z M 1359.632812 716.21875 " fill-opacity="1" fill-rule="nonzero"/><g clip-path="url(#65a6998f9e)"><path fill="#ffe4b3" d="M 542.921875 749.953125 C 543.445312 749.109375 543.445312 748.003906 543.027344 747.214844 C 543.183594 746.269531 542.816406 745.164062 542.027344 744.480469 C 542.449219 742.589844 540.765625 740.273438 538.503906 741.429688 C 536.453125 742.484375 534.402344 743.480469 532.296875 744.429688 C 533.875 742.589844 535.398438 740.800781 536.976562 739.0625 C 538.609375 737.222656 536.820312 735.121094 534.875 735.066406 C 534.453125 734.171875 533.558594 733.59375 532.613281 733.488281 C 531.929688 732.859375 530.824219 732.542969 529.824219 732.804688 C 529.140625 732.121094 528.089844 731.804688 527.195312 731.964844 C 525.722656 731.226562 523.355469 732.015625 523.09375 734.226562 C 522.933594 735.910156 522.777344 737.589844 522.621094 739.273438 C 522.039062 738.328125 521.460938 737.433594 520.882812 736.488281 C 520.832031 736.277344 520.726562 736.117188 520.566406 735.910156 C 520.410156 735.539062 520.148438 735.171875 519.9375 734.855469 C 518.726562 733.121094 516.519531 733.488281 515.464844 734.699219 C 514.519531 734.910156 513.679688 735.699219 513.363281 736.699219 C 512.414062 736.90625 511.574219 737.589844 511.207031 738.433594 C 509.785156 739.273438 509.15625 741.695312 510.890625 743.113281 C 512.207031 744.164062 513.519531 745.21875 514.886719 746.21875 C 513.785156 746.164062 512.679688 746.164062 511.628906 746.164062 C 511.417969 746.113281 511.207031 746.113281 510.941406 746.113281 C 510.523438 746.113281 510.101562 746.113281 509.679688 746.164062 C 507.578125 746.21875 506.628906 748.269531 507.105469 749.792969 C 506.789062 750.6875 507 751.84375 507.628906 752.632812 C 507.261719 753.527344 507.417969 754.632812 507.945312 755.367188 C 507.945312 757 509.628906 758.890625 511.730469 758.207031 C 513.363281 757.683594 514.941406 757.15625 516.519531 756.578125 C 515.886719 757.472656 515.257812 758.367188 514.675781 759.3125 C 514.519531 759.472656 514.414062 759.628906 514.257812 759.839844 C 514.046875 760.207031 513.835938 760.523438 513.625 760.890625 C 512.519531 762.679688 513.785156 764.574219 515.308594 765.046875 C 515.886719 765.78125 516.9375 766.253906 517.992188 766.148438 C 518.570312 766.9375 519.515625 767.414062 520.464844 767.359375 C 521.25 767.886719 522.410156 767.992188 523.355469 767.570312 C 524.933594 768.726562 527.667969 768.148438 527.5625 765.625 C 527.457031 763.308594 527.40625 761.046875 527.351562 758.734375 C 528.40625 760.839844 529.402344 762.996094 530.351562 765.097656 C 531.351562 767.308594 533.980469 766.570312 534.875 764.835938 C 535.875 764.78125 536.765625 764.203125 537.242188 763.414062 C 538.136719 763.046875 538.820312 762.152344 538.976562 761.101562 C 540.816406 760.417969 541.816406 757.789062 539.609375 756.527344 C 537.609375 755.367188 535.664062 754.160156 533.71875 752.949219 C 536.03125 753.210938 538.398438 753.527344 540.710938 753.894531 C 543.132812 754.265625 543.921875 751.632812 542.921875 749.953125 Z M 542.921875 749.953125 " fill-opacity="1" fill-rule="nonzero"/></g><path fill="#ffffff" d="M 526.25 755.421875 C 524.144531 755.421875 522.566406 754.949219 521.199219 753.84375 C 520.09375 753 519.410156 751.898438 519.148438 750.53125 C 518.886719 749.003906 519.304688 747.742188 520.253906 746.585938 C 520.621094 746.164062 521.042969 745.796875 521.566406 745.535156 C 521.726562 745.429688 521.9375 745.324219 522.09375 745.21875 C 522.722656 744.746094 523.460938 744.535156 524.25 744.480469 C 525.25 744.375 526.144531 744.480469 527.089844 744.847656 C 528.300781 745.269531 529.351562 745.953125 530.191406 746.953125 C 531.402344 748.375 531.769531 750.003906 531.351562 751.792969 C 531.035156 753.160156 530.191406 754.160156 528.929688 754.789062 C 527.984375 755.210938 526.933594 755.421875 526.25 755.421875 Z M 526.25 755.421875 " fill-opacity="1" fill-rule="nonzero"/></svg>