<svg xmlns="http://www.w3.org/2000/svg" xmlns:xlink="http://www.w3.org/1999/xlink" width="750" zoomAndPan="magnify" viewBox="0 0 562.5 262.499992" height="350" preserveAspectRatio="xMidYMid meet" version="1.0"><defs><g/><clipPath id="e281bf5d00"><path d="M 58.546875 142 L 67 142 L 67 148 L 58.546875 148 Z M 58.546875 142 " clip-rule="nonzero"/></clipPath><clipPath id="21d7eaa0c0"><path d="M 75 129.988281 L 461 129.988281 L 461 156.960938 L 75 156.960938 Z M 75 129.988281 " clip-rule="nonzero"/></clipPath><clipPath id="d207291109"><path d="M 469 139 L 477.375 139 L 477.375 145 L 469 145 Z M 469 139 " clip-rule="nonzero"/></clipPath><clipPath id="7ee730272e"><path d="M 28.644531 113.886719 L 94.554688 113.886719 L 94.554688 177.570312 L 28.644531 177.570312 Z M 28.644531 113.886719 " clip-rule="nonzero"/></clipPath><clipPath id="3e72f805d6"><path d="M 170.175781 80.128906 L 236.089844 80.128906 L 236.089844 143.8125 L 170.175781 143.8125 Z M 170.175781 80.128906 " clip-rule="nonzero"/></clipPath><clipPath id="e93a5a4db4"><path d="M 292.835938 125.46875 L 358.746094 125.46875 L 358.746094 189.152344 L 292.835938 189.152344 Z M 292.835938 125.46875 " clip-rule="nonzero"/></clipPath><clipPath id="71fa761b6b"><path d="M 449.316406 98.253906 L 515.230469 98.253906 L 515.230469 161.9375 L 449.316406 161.9375 Z M 449.316406 98.253906 " clip-rule="nonzero"/></clipPath></defs><g clip-path="url(#e281bf5d00)"><path fill="#505050" d="M 65.195312 147.097656 C 65.03125 147.097656 64.875 147.066406 64.71875 146.996094 C 62.917969 146.207031 61.140625 145.367188 59.371094 144.480469 C 58.796875 144.191406 58.5625 143.492188 58.855469 142.921875 C 59.144531 142.347656 59.851562 142.121094 60.429688 142.410156 C 62.15625 143.277344 63.90625 144.101562 65.671875 144.875 C 66.257812 145.136719 66.527344 145.824219 66.265625 146.40625 C 66.070312 146.839844 65.640625 147.097656 65.195312 147.097656 " fill-opacity="1" fill-rule="nonzero"/></g><g clip-path="url(#21d7eaa0c0)"><path fill="#505050" d="M 227.898438 132.910156 C 227.859375 132.910156 227.816406 132.90625 227.773438 132.902344 C 223.871094 132.5 219.898438 132.296875 215.96875 132.296875 C 215.324219 132.296875 214.769531 131.777344 214.769531 131.132812 C 214.769531 130.492188 215.265625 129.972656 215.914062 129.972656 L 215.96875 129.972656 C 219.984375 129.972656 224.035156 130.183594 228.015625 130.59375 C 228.660156 130.660156 229.128906 131.230469 229.058594 131.867188 C 229 132.464844 228.492188 132.910156 227.898438 132.910156 Z M 436.097656 132.917969 C 436.058594 132.917969 436.015625 132.914062 435.972656 132.910156 C 432.042969 132.503906 428.054688 132.296875 424.113281 132.296875 C 423.46875 132.296875 422.941406 131.777344 422.941406 131.132812 C 422.941406 130.492188 423.46875 129.972656 424.113281 129.972656 C 428.136719 129.972656 432.207031 130.183594 436.214844 130.601562 C 436.863281 130.667969 437.328125 131.242188 437.257812 131.878906 C 437.199219 132.472656 436.6875 132.917969 436.097656 132.917969 Z M 400.28125 134.757812 C 399.742188 134.757812 399.253906 134.382812 399.136719 133.835938 C 399.003906 133.210938 399.410156 132.59375 400.039062 132.460938 C 403.972656 131.636719 408.003906 131.011719 412.015625 130.597656 C 412.652344 130.527344 413.234375 130.992188 413.300781 131.628906 C 413.367188 132.269531 412.898438 132.839844 412.257812 132.90625 C 408.328125 133.3125 404.378906 133.925781 400.527344 134.734375 C 400.445312 134.75 400.363281 134.757812 400.28125 134.757812 Z M 192.089844 134.777344 C 191.546875 134.777344 191.0625 134.402344 190.945312 133.851562 C 190.808594 133.226562 191.214844 132.609375 191.847656 132.476562 C 195.789062 131.648438 199.816406 131.019531 203.820312 130.601562 C 204.449219 130.535156 205.042969 131 205.105469 131.636719 C 205.175781 132.273438 204.707031 132.847656 204.066406 132.914062 C 200.144531 133.316406 196.199219 133.9375 192.332031 134.75 C 192.25 134.765625 192.171875 134.777344 192.089844 134.777344 Z M 251.335938 137.8125 C 251.21875 137.8125 251.09375 137.792969 250.976562 137.753906 C 247.21875 136.554688 243.359375 135.539062 239.503906 134.730469 C 238.871094 134.597656 238.464844 133.980469 238.597656 133.351562 C 238.734375 132.722656 239.363281 132.332031 239.988281 132.457031 C 243.925781 133.28125 247.863281 134.320312 251.695312 135.542969 C 252.308594 135.738281 252.648438 136.394531 252.449219 137.007812 C 252.292969 137.496094 251.832031 137.8125 251.335938 137.8125 Z M 459.535156 137.84375 C 459.417969 137.84375 459.292969 137.828125 459.171875 137.785156 C 455.417969 136.582031 451.558594 135.558594 447.699219 134.75 C 447.070312 134.613281 446.664062 134 446.796875 133.371094 C 446.929688 132.742188 447.570312 132.351562 448.1875 132.476562 C 452.125 133.304688 456.0625 134.347656 459.894531 135.578125 C 460.511719 135.777344 460.847656 136.429688 460.648438 137.039062 C 460.492188 137.53125 460.03125 137.84375 459.535156 137.84375 Z M 377.484375 142.050781 C 377.035156 142.050781 376.605469 141.789062 376.414062 141.359375 C 376.148438 140.773438 376.414062 140.085938 377.011719 139.828125 C 380.6875 138.214844 384.5 136.773438 388.332031 135.546875 C 388.945312 135.351562 389.605469 135.6875 389.804688 136.292969 C 390.003906 136.90625 389.667969 137.558594 389.050781 137.757812 C 385.292969 138.957031 381.5625 140.371094 377.957031 141.949219 C 377.804688 142.015625 377.640625 142.050781 377.484375 142.050781 Z M 169.292969 142.09375 C 168.84375 142.09375 168.417969 141.835938 168.222656 141.402344 C 167.960938 140.816406 168.226562 140.128906 168.816406 139.871094 C 172.503906 138.25 176.3125 136.808594 180.132812 135.578125 C 180.765625 135.382812 181.414062 135.71875 181.609375 136.328125 C 181.808594 136.9375 181.472656 137.589844 180.859375 137.789062 C 177.109375 138.992188 173.378906 140.40625 169.769531 141.992188 C 169.613281 142.0625 169.453125 142.09375 169.292969 142.09375 Z M 273.386719 147.144531 C 273.226562 147.144531 273.066406 147.113281 272.914062 147.042969 C 271.078125 146.238281 269.261719 145.386719 267.464844 144.480469 C 265.683594 143.589844 263.882812 142.742188 262.066406 141.949219 C 261.476562 141.6875 261.207031 141 261.472656 140.417969 C 261.730469 139.828125 262.433594 139.566406 263.015625 139.824219 C 264.851562 140.628906 266.703125 141.5 268.519531 142.410156 C 270.285156 143.292969 272.066406 144.132812 273.859375 144.921875 C 274.453125 145.179688 274.71875 145.867188 274.457031 146.453125 C 274.261719 146.886719 273.835938 147.144531 273.386719 147.144531 Z M 355.433594 151.386719 C 354.9375 151.386719 354.480469 151.074219 354.320312 150.582031 C 354.121094 149.972656 354.457031 149.320312 355.074219 149.121094 C 358.820312 147.917969 362.554688 146.507812 366.167969 144.921875 C 366.75 144.667969 367.453125 144.925781 367.710938 145.511719 C 367.972656 146.097656 367.707031 146.785156 367.113281 147.046875 C 363.425781 148.664062 359.617188 150.105469 355.796875 151.332031 C 355.675781 151.371094 355.550781 151.386719 355.433594 151.386719 Z M 147.238281 151.421875 C 146.746094 151.421875 146.285156 151.105469 146.125 150.617188 C 145.929688 150.007812 146.265625 149.351562 146.878906 149.152344 C 150.632812 147.957031 154.367188 146.546875 157.972656 144.964844 C 158.5625 144.707031 159.257812 144.972656 159.519531 145.558594 C 159.78125 146.144531 159.515625 146.832031 158.921875 147.089844 C 155.238281 148.703125 151.429688 150.140625 147.601562 151.367188 C 147.480469 151.402344 147.359375 151.421875 147.238281 151.421875 Z M 87.992188 154.425781 C 87.910156 154.425781 87.832031 154.417969 87.75 154.402344 C 83.8125 153.574219 79.875 152.527344 76.039062 151.296875 C 75.425781 151.097656 75.089844 150.445312 75.289062 149.832031 C 75.484375 149.226562 76.152344 148.886719 76.765625 149.085938 C 80.519531 150.296875 84.378906 151.320312 88.234375 152.128906 C 88.863281 152.265625 89.269531 152.878906 89.136719 153.507812 C 89.019531 154.050781 88.53125 154.425781 87.992188 154.425781 Z M 296.183594 154.449219 C 296.101562 154.449219 296.023438 154.441406 295.941406 154.425781 C 291.992188 153.59375 288.054688 152.554688 284.230469 151.328125 C 283.613281 151.132812 283.277344 150.476562 283.476562 149.867188 C 283.679688 149.257812 284.332031 148.921875 284.953125 149.121094 C 288.699219 150.320312 292.558594 151.339844 296.425781 152.148438 C 297.0625 152.285156 297.464844 152.898438 297.328125 153.527344 C 297.214844 154.074219 296.726562 154.449219 296.183594 154.449219 Z M 331.992188 156.300781 C 331.402344 156.300781 330.890625 155.855469 330.828125 155.257812 C 330.761719 154.621094 331.230469 154.050781 331.871094 153.984375 C 335.796875 153.578125 339.742188 152.960938 343.601562 152.148438 C 344.230469 152.027344 344.859375 152.417969 344.988281 153.046875 C 345.125 153.675781 344.71875 154.292969 344.085938 154.425781 C 340.148438 155.25 336.117188 155.878906 332.117188 156.292969 C 332.074219 156.296875 332.035156 156.300781 331.992188 156.300781 Z M 123.792969 156.3125 C 123.203125 156.3125 122.695312 155.867188 122.636719 155.269531 C 122.566406 154.632812 123.035156 154.0625 123.675781 153.996094 C 127.597656 153.59375 131.546875 152.980469 135.410156 152.175781 C 136.03125 152.042969 136.664062 152.445312 136.796875 153.074219 C 136.929688 153.703125 136.523438 154.316406 135.890625 154.449219 C 131.949219 155.269531 127.921875 155.894531 123.917969 156.304688 C 123.878906 156.3125 123.835938 156.3125 123.792969 156.3125 Z M 320.019531 156.917969 C 315.992188 156.917969 311.917969 156.707031 307.914062 156.292969 C 307.269531 156.226562 306.800781 155.65625 306.871094 155.015625 C 306.9375 154.378906 307.519531 153.902344 308.15625 153.984375 C 312.082031 154.390625 316.070312 154.597656 320.019531 154.597656 C 320.664062 154.597656 321.191406 155.117188 321.191406 155.757812 C 321.191406 156.398438 320.664062 156.917969 320.019531 156.917969 Z M 111.820312 156.917969 C 111.820312 156.917969 111.820312 156.917969 111.816406 156.917969 C 107.785156 156.914062 103.714844 156.699219 99.714844 156.28125 C 99.070312 156.214844 98.605469 155.644531 98.675781 155.003906 C 98.742188 154.367188 99.289062 153.902344 99.960938 153.972656 C 103.878906 154.382812 107.871094 154.589844 111.820312 154.597656 C 112.464844 154.597656 112.992188 155.117188 112.992188 155.757812 C 112.992188 156.398438 112.464844 156.917969 111.820312 156.917969 " fill-opacity="1" fill-rule="nonzero"/></g><g clip-path="url(#d207291109)"><path fill="#505050" d="M 476.085938 144.609375 C 475.90625 144.609375 475.726562 144.566406 475.554688 144.480469 C 473.824219 143.613281 472.074219 142.792969 470.316406 142.015625 C 469.722656 141.753906 469.457031 141.070312 469.71875 140.484375 C 469.984375 139.898438 470.679688 139.636719 471.265625 139.894531 C 473.066406 140.683594 474.847656 141.523438 476.613281 142.410156 C 477.191406 142.699219 477.421875 143.398438 477.128906 143.972656 C 476.925781 144.375 476.507812 144.609375 476.085938 144.609375 " fill-opacity="1" fill-rule="nonzero"/></g><g clip-path="url(#7ee730272e)"><path fill="#ffb8c6" d="M 55.28125 114.742188 C 60.621094 113.875 66.246094 112.984375 73.601562 115.769531 C 79.519531 118.011719 84.664062 123.628906 88.914062 128.65625 C 93.964844 134.628906 95.0625 140.359375 94.363281 147.855469 C 93.746094 154.503906 93.75 162.984375 88.765625 167.644531 C 80.941406 174.957031 72.5 177.007812 64.070312 177.484375 C 55.527344 177.964844 46.308594 176.527344 40.894531 171.09375 C 36.964844 167.152344 32.683594 161.46875 30.734375 157.4375 C 27.347656 150.4375 28.535156 144.816406 31.03125 136.917969 C 33.011719 130.652344 36.308594 126.550781 40.449219 122.820312 C 44.878906 118.828125 51.429688 115.367188 55.28125 114.742188 " fill-opacity="1" fill-rule="nonzero"/></g><g clip-path="url(#3e72f805d6)"><path fill="#ffe4b3" d="M 196.816406 80.984375 C 202.152344 80.117188 207.777344 79.226562 215.132812 82.011719 C 221.050781 84.253906 226.199219 89.871094 230.449219 94.898438 C 235.5 100.871094 236.597656 106.601562 235.898438 114.097656 C 235.277344 120.746094 235.28125 129.226562 230.300781 133.886719 C 222.472656 141.199219 214.03125 143.25 205.605469 143.726562 C 197.0625 144.207031 187.839844 142.769531 182.429688 137.335938 C 178.5 133.394531 174.21875 127.710938 172.269531 123.679688 C 168.882812 116.679688 170.070312 111.058594 172.566406 103.160156 C 174.542969 96.894531 177.84375 92.792969 181.984375 89.0625 C 186.410156 85.070312 192.964844 81.609375 196.816406 80.984375 " fill-opacity="1" fill-rule="nonzero"/></g><g clip-path="url(#e93a5a4db4)"><path fill="#ffe1f1" d="M 319.472656 126.324219 C 324.8125 125.457031 330.4375 124.566406 337.792969 127.351562 C 343.710938 129.59375 348.855469 135.214844 353.105469 140.238281 C 358.15625 146.210938 359.253906 151.941406 358.558594 159.4375 C 357.9375 166.085938 357.941406 174.570312 352.957031 179.226562 C 345.132812 186.539062 336.691406 188.589844 328.261719 189.066406 C 319.71875 189.546875 310.5 188.109375 305.085938 182.675781 C 301.15625 178.734375 296.875 173.050781 294.925781 169.019531 C 291.539062 162.019531 292.726562 156.398438 295.222656 148.5 C 297.203125 142.234375 300.5 138.132812 304.640625 134.402344 C 309.070312 130.410156 315.621094 126.949219 319.472656 126.324219 " fill-opacity="1" fill-rule="nonzero"/></g><g clip-path="url(#71fa761b6b)"><path fill="#d0c3f1" d="M 475.957031 99.109375 C 481.292969 98.242188 486.917969 97.351562 494.273438 100.140625 C 500.195312 102.382812 505.339844 108 509.589844 113.023438 C 514.640625 119 515.738281 124.726562 515.039062 132.226562 C 514.421875 138.871094 514.425781 147.355469 509.441406 152.011719 C 501.617188 159.328125 493.175781 161.375 484.746094 161.851562 C 476.203125 162.332031 466.980469 160.894531 461.570312 155.464844 C 457.640625 151.519531 453.359375 145.835938 451.410156 141.804688 C 448.023438 134.804688 449.210938 129.183594 451.707031 121.285156 C 453.683594 115.019531 456.984375 110.917969 461.125 107.1875 C 465.550781 103.195312 472.105469 99.738281 475.957031 99.109375 " fill-opacity="1" fill-rule="nonzero"/></g><g fill="#505050" fill-opacity="1"><g transform="translate(55.105193, 156.008584)"><g><path d="M 8.464844 -19.777344 C 6.21875 -17.207031 3.996094 -14.609375 1.75 -12.035156 C 0.0742188 -10.113281 2.898438 -7.316406 4.570312 -9.238281 C 5.320312 -10.113281 6.09375 -10.988281 6.84375 -11.863281 C 6.34375 -8.589844 5.945312 -5.320312 5.644531 -2.023438 C 5.394531 0.625 9.066406 1.546875 9.316406 -1.125 C 9.839844 -6.765625 10.664062 -12.386719 11.710938 -17.929688 C 12.136719 -20.027344 9.738281 -21.226562 8.464844 -19.777344 Z M 8.464844 -19.777344 "/></g></g></g><g fill="#505050" fill-opacity="1"><g transform="translate(195.502957, 120.481215)"><g><path d="M 12.585938 -4.546875 C 11.113281 -4.894531 9.664062 -4.96875 8.140625 -4.792969 C 7.667969 -4.746094 7.191406 -4.667969 6.71875 -4.59375 C 7.066406 -5.070312 7.417969 -5.570312 7.792969 -6.042969 C 8.714844 -7.265625 9.664062 -8.464844 10.511719 -9.738281 C 11.9375 -11.886719 13.660156 -14.632812 12.609375 -17.253906 C 11.761719 -19.429688 9.089844 -20.601562 6.765625 -20.050781 C 4.09375 -19.402344 2.671875 -16.980469 2.496094 -14.484375 C 2.324219 -11.988281 6.394531 -11.988281 6.566406 -14.484375 C 6.617188 -15.28125 7.34375 -16.757812 8.441406 -16.183594 C 9.414062 -15.683594 8.539062 -14.308594 8.191406 -13.660156 C 6.84375 -11.136719 4.917969 -8.941406 3.246094 -6.617188 C 2.023438 -4.917969 -0.449219 -1.347656 2.996094 -0.300781 C 4.121094 0.0507812 5.46875 -0.425781 6.542969 -0.625 C 8.214844 -0.925781 9.839844 -1.199219 11.511719 -0.773438 C 14.058594 -0.148438 15.132812 -3.894531 12.585938 -4.546875 Z M 12.585938 -4.546875 "/></g></g></g><g fill="#505050" fill-opacity="1"><g transform="translate(318.249544, 169.212159)"><g><path d="M 12.011719 -9.589844 C 11.863281 -9.6875 11.710938 -9.789062 11.539062 -9.863281 C 13.460938 -12.285156 14.683594 -15.359375 12.785156 -17.953125 C 10.113281 -21.574219 4.34375 -20.328125 1.722656 -17.378906 C 0.125 -15.582031 2.773438 -12.9375 4.371094 -14.734375 C 5.144531 -15.609375 6.09375 -16.230469 7.265625 -16.382812 C 8.164062 -16.507812 9.589844 -16.40625 9.914062 -15.382812 C 10.589844 -13.359375 7.316406 -10.636719 5.992188 -9.613281 C 4.371094 -8.367188 6.191406 -6.167969 7.816406 -6.492188 C 8.863281 -6.691406 10.988281 -6.84375 9.613281 -5.292969 C 8.691406 -4.21875 7.292969 -4.070312 5.96875 -3.945312 C 3.597656 -3.695312 3.570312 0.0507812 5.96875 -0.199219 C 9.265625 -0.523438 13.210938 -1.773438 13.808594 -5.59375 C 14.058594 -7.167969 13.359375 -8.742188 12.011719 -9.589844 Z M 12.011719 -9.589844 "/></g></g></g><g fill="#505050" fill-opacity="1"><g transform="translate(474.086984, 138.376062)"><g><path d="M 13.808594 -11.414062 C 13.558594 -11.4375 13.335938 -11.488281 13.109375 -11.539062 C 13.183594 -13.085938 13.285156 -14.632812 13.386719 -16.183594 C 13.558594 -18.605469 9.8125 -18.578125 9.640625 -16.183594 C 9.539062 -14.832031 9.464844 -13.484375 9.390625 -12.113281 C 8.164062 -12.285156 6.941406 -12.410156 5.71875 -12.484375 C 6.394531 -14.757812 6.816406 -17.082031 7.015625 -19.476562 C 7.191406 -21.875 3.472656 -21.875 3.269531 -19.476562 C 3.023438 -16.632812 2.347656 -13.910156 1.347656 -11.238281 C 0.875 -10.0625 2.023438 -8.914062 3.148438 -8.863281 C 5.195312 -8.816406 7.21875 -8.640625 9.214844 -8.390625 C 9.140625 -6.144531 9.089844 -3.921875 9.066406 -1.699219 C 9.066406 0.722656 12.785156 0.722656 12.8125 -1.699219 C 12.835938 -3.722656 12.886719 -5.742188 12.9375 -7.765625 C 15.183594 -7.464844 16.105469 -10.9375 13.808594 -11.414062 Z M 13.808594 -11.414062 "/></g></g></g><g fill="#616d69" fill-opacity="1"><g transform="translate(18.322894, 204.000186)"><g><path d="M 3.71875 -11.21875 L 3.71875 0 L 0.984375 0 L 0.984375 -11.21875 Z M 3.71875 -11.21875 "/></g></g></g><g fill="#616d69" fill-opacity="1"><g transform="translate(26.424721, 204.000186)"><g><path d="M 3.71875 -7.65625 C 3.976562 -8.070312 4.347656 -8.40625 4.828125 -8.65625 C 5.304688 -8.914062 5.851562 -9.046875 6.46875 -9.046875 C 7.207031 -9.046875 7.875 -8.859375 8.46875 -8.484375 C 9.0625 -8.109375 9.53125 -7.570312 9.875 -6.875 C 10.226562 -6.1875 10.40625 -5.382812 10.40625 -4.46875 C 10.40625 -3.550781 10.226562 -2.742188 9.875 -2.046875 C 9.53125 -1.347656 9.0625 -0.8125 8.46875 -0.4375 C 7.875 -0.0625 7.207031 0.125 6.46875 0.125 C 5.84375 0.125 5.296875 0 4.828125 -0.25 C 4.359375 -0.5 3.988281 -0.832031 3.71875 -1.25 L 3.71875 0 L 0.984375 0 L 0.984375 -11.828125 L 3.71875 -11.828125 Z M 7.625 -4.46875 C 7.625 -5.15625 7.429688 -5.691406 7.046875 -6.078125 C 6.671875 -6.472656 6.207031 -6.671875 5.65625 -6.671875 C 5.113281 -6.671875 4.648438 -6.472656 4.265625 -6.078125 C 3.890625 -5.679688 3.703125 -5.140625 3.703125 -4.453125 C 3.703125 -3.773438 3.890625 -3.238281 4.265625 -2.84375 C 4.648438 -2.445312 5.113281 -2.25 5.65625 -2.25 C 6.195312 -2.25 6.660156 -2.445312 7.046875 -2.84375 C 7.429688 -3.25 7.625 -3.789062 7.625 -4.46875 Z M 7.625 -4.46875 "/></g></g></g><g fill="#616d69" fill-opacity="1"><g transform="translate(37.2751, 204.000186)"><g><path d="M 9.796875 -8.921875 L 9.796875 0 L 7.0625 0 L 7.0625 -1.21875 C 6.789062 -0.820312 6.414062 -0.503906 5.9375 -0.265625 C 5.46875 -0.0234375 4.941406 0.09375 4.359375 0.09375 C 3.679688 0.09375 3.082031 -0.0546875 2.5625 -0.359375 C 2.039062 -0.660156 1.632812 -1.097656 1.34375 -1.671875 C 1.050781 -2.253906 0.90625 -2.929688 0.90625 -3.703125 L 0.90625 -8.921875 L 3.625 -8.921875 L 3.625 -4.078125 C 3.625 -3.484375 3.78125 -3.019531 4.09375 -2.6875 C 4.40625 -2.351562 4.820312 -2.1875 5.34375 -2.1875 C 5.875 -2.1875 6.289062 -2.351562 6.59375 -2.6875 C 6.90625 -3.019531 7.0625 -3.484375 7.0625 -4.078125 L 7.0625 -8.921875 Z M 9.796875 -8.921875 "/></g></g></g><g fill="#616d69" fill-opacity="1"><g transform="translate(48.045578, 204.000186)"><g><path d="M 2.359375 -9.84375 C 1.878906 -9.84375 1.488281 -9.984375 1.1875 -10.265625 C 0.882812 -10.546875 0.734375 -10.894531 0.734375 -11.3125 C 0.734375 -11.738281 0.882812 -12.09375 1.1875 -12.375 C 1.488281 -12.65625 1.878906 -12.796875 2.359375 -12.796875 C 2.828125 -12.796875 3.210938 -12.65625 3.515625 -12.375 C 3.828125 -12.09375 3.984375 -11.738281 3.984375 -11.3125 C 3.984375 -10.894531 3.828125 -10.546875 3.515625 -10.265625 C 3.210938 -9.984375 2.828125 -9.84375 2.359375 -9.84375 Z M 3.71875 -8.921875 L 3.71875 0 L 0.984375 0 L 0.984375 -8.921875 Z M 3.71875 -8.921875 "/></g></g></g><g fill="#616d69" fill-opacity="1"><g transform="translate(52.759661, 204.000186)"><g><path d="M 3.71875 -11.828125 L 3.71875 0 L 0.984375 0 L 0.984375 -11.828125 Z M 3.71875 -11.828125 "/></g></g></g><g fill="#616d69" fill-opacity="1"><g transform="translate(57.473745, 204.000186)"><g><path d="M 0.453125 -4.46875 C 0.453125 -5.382812 0.625 -6.1875 0.96875 -6.875 C 1.3125 -7.570312 1.78125 -8.109375 2.375 -8.484375 C 2.976562 -8.859375 3.644531 -9.046875 4.375 -9.046875 C 4.96875 -9.046875 5.503906 -8.921875 5.984375 -8.671875 C 6.472656 -8.429688 6.851562 -8.101562 7.125 -7.6875 L 7.125 -11.828125 L 9.859375 -11.828125 L 9.859375 0 L 7.125 0 L 7.125 -1.28125 C 6.875 -0.851562 6.507812 -0.507812 6.03125 -0.25 C 5.5625 0 5.007812 0.125 4.375 0.125 C 3.644531 0.125 2.976562 -0.0625 2.375 -0.4375 C 1.78125 -0.8125 1.3125 -1.347656 0.96875 -2.046875 C 0.625 -2.742188 0.453125 -3.550781 0.453125 -4.46875 Z M 7.125 -4.453125 C 7.125 -5.140625 6.9375 -5.679688 6.5625 -6.078125 C 6.1875 -6.472656 5.722656 -6.671875 5.171875 -6.671875 C 4.628906 -6.671875 4.171875 -6.472656 3.796875 -6.078125 C 3.421875 -5.691406 3.234375 -5.15625 3.234375 -4.46875 C 3.234375 -3.789062 3.421875 -3.25 3.796875 -2.84375 C 4.171875 -2.445312 4.628906 -2.25 5.171875 -2.25 C 5.722656 -2.25 6.1875 -2.445312 6.5625 -2.84375 C 6.9375 -3.238281 7.125 -3.773438 7.125 -4.453125 Z M 7.125 -4.453125 "/></g></g></g><g fill="#616d69" fill-opacity="1"><g transform="translate(71.711867, 204.000186)"><g><path d="M 0.453125 -4.46875 C 0.453125 -5.382812 0.625 -6.1875 0.96875 -6.875 C 1.3125 -7.570312 1.78125 -8.109375 2.375 -8.484375 C 2.976562 -8.859375 3.644531 -9.046875 4.375 -9.046875 C 5.007812 -9.046875 5.5625 -8.914062 6.03125 -8.65625 C 6.507812 -8.40625 6.875 -8.070312 7.125 -7.65625 L 7.125 -8.921875 L 9.859375 -8.921875 L 9.859375 0 L 7.125 0 L 7.125 -1.265625 C 6.863281 -0.847656 6.492188 -0.507812 6.015625 -0.25 C 5.546875 0 4.992188 0.125 4.359375 0.125 C 3.640625 0.125 2.976562 -0.0625 2.375 -0.4375 C 1.78125 -0.8125 1.3125 -1.347656 0.96875 -2.046875 C 0.625 -2.742188 0.453125 -3.550781 0.453125 -4.46875 Z M 7.125 -4.453125 C 7.125 -5.140625 6.9375 -5.679688 6.5625 -6.078125 C 6.1875 -6.472656 5.722656 -6.671875 5.171875 -6.671875 C 4.628906 -6.671875 4.171875 -6.472656 3.796875 -6.078125 C 3.421875 -5.691406 3.234375 -5.15625 3.234375 -4.46875 C 3.234375 -3.789062 3.421875 -3.25 3.796875 -2.84375 C 4.171875 -2.445312 4.628906 -2.25 5.171875 -2.25 C 5.722656 -2.25 6.1875 -2.445312 6.5625 -2.84375 C 6.9375 -3.238281 7.125 -3.773438 7.125 -4.453125 Z M 7.125 -4.453125 "/></g></g></g><g fill="#616d69" fill-opacity="1"><g transform="translate(82.562247, 204.000186)"><g><path d="M 3.71875 -7.65625 C 3.988281 -8.070312 4.359375 -8.40625 4.828125 -8.65625 C 5.296875 -8.914062 5.84375 -9.046875 6.46875 -9.046875 C 7.207031 -9.046875 7.875 -8.859375 8.46875 -8.484375 C 9.0625 -8.109375 9.53125 -7.570312 9.875 -6.875 C 10.226562 -6.1875 10.40625 -5.382812 10.40625 -4.46875 C 10.40625 -3.550781 10.226562 -2.742188 9.875 -2.046875 C 9.53125 -1.347656 9.0625 -0.8125 8.46875 -0.4375 C 7.875 -0.0625 7.207031 0.125 6.46875 0.125 C 5.851562 0.125 5.304688 0 4.828125 -0.25 C 4.359375 -0.507812 3.988281 -0.84375 3.71875 -1.25 L 3.71875 4.25 L 0.984375 4.25 L 0.984375 -8.921875 L 3.71875 -8.921875 Z M 7.625 -4.46875 C 7.625 -5.15625 7.429688 -5.691406 7.046875 -6.078125 C 6.671875 -6.472656 6.207031 -6.671875 5.65625 -6.671875 C 5.113281 -6.671875 4.648438 -6.472656 4.265625 -6.078125 C 3.890625 -5.679688 3.703125 -5.140625 3.703125 -4.453125 C 3.703125 -3.773438 3.890625 -3.238281 4.265625 -2.84375 C 4.648438 -2.445312 5.113281 -2.25 5.65625 -2.25 C 6.195312 -2.25 6.660156 -2.445312 7.046875 -2.84375 C 7.429688 -3.25 7.625 -3.789062 7.625 -4.46875 Z M 7.625 -4.46875 "/></g></g></g><g fill="#616d69" fill-opacity="1"><g transform="translate(93.412626, 204.000186)"><g><path d="M 3.71875 -7.65625 C 3.988281 -8.070312 4.359375 -8.40625 4.828125 -8.65625 C 5.296875 -8.914062 5.84375 -9.046875 6.46875 -9.046875 C 7.207031 -9.046875 7.875 -8.859375 8.46875 -8.484375 C 9.0625 -8.109375 9.53125 -7.570312 9.875 -6.875 C 10.226562 -6.1875 10.40625 -5.382812 10.40625 -4.46875 C 10.40625 -3.550781 10.226562 -2.742188 9.875 -2.046875 C 9.53125 -1.347656 9.0625 -0.8125 8.46875 -0.4375 C 7.875 -0.0625 7.207031 0.125 6.46875 0.125 C 5.851562 0.125 5.304688 0 4.828125 -0.25 C 4.359375 -0.507812 3.988281 -0.84375 3.71875 -1.25 L 3.71875 4.25 L 0.984375 4.25 L 0.984375 -8.921875 L 3.71875 -8.921875 Z M 7.625 -4.46875 C 7.625 -5.15625 7.429688 -5.691406 7.046875 -6.078125 C 6.671875 -6.472656 6.207031 -6.671875 5.65625 -6.671875 C 5.113281 -6.671875 4.648438 -6.472656 4.265625 -6.078125 C 3.890625 -5.679688 3.703125 -5.140625 3.703125 -4.453125 C 3.703125 -3.773438 3.890625 -3.238281 4.265625 -2.84375 C 4.648438 -2.445312 5.113281 -2.25 5.65625 -2.25 C 6.195312 -2.25 6.660156 -2.445312 7.046875 -2.84375 C 7.429688 -3.25 7.625 -3.789062 7.625 -4.46875 Z M 7.625 -4.46875 "/></g></g></g><g fill="#616d69" fill-opacity="1"><g transform="translate(104.263006, 204.000186)"><g><path d="M 4.625 0.125 C 3.84375 0.125 3.144531 -0.00390625 2.53125 -0.265625 C 1.925781 -0.535156 1.445312 -0.898438 1.09375 -1.359375 C 0.75 -1.828125 0.554688 -2.347656 0.515625 -2.921875 L 3.21875 -2.921875 C 3.25 -2.617188 3.390625 -2.367188 3.640625 -2.171875 C 3.898438 -1.984375 4.21875 -1.890625 4.59375 -1.890625 C 4.925781 -1.890625 5.1875 -1.953125 5.375 -2.078125 C 5.5625 -2.210938 5.65625 -2.390625 5.65625 -2.609375 C 5.65625 -2.859375 5.519531 -3.046875 5.25 -3.171875 C 4.988281 -3.296875 4.5625 -3.429688 3.96875 -3.578125 C 3.320312 -3.722656 2.785156 -3.878906 2.359375 -4.046875 C 1.929688 -4.210938 1.5625 -4.472656 1.25 -4.828125 C 0.945312 -5.191406 0.796875 -5.675781 0.796875 -6.28125 C 0.796875 -6.789062 0.9375 -7.253906 1.21875 -7.671875 C 1.5 -8.097656 1.914062 -8.429688 2.46875 -8.671875 C 3.019531 -8.921875 3.671875 -9.046875 4.421875 -9.046875 C 5.546875 -9.046875 6.429688 -8.769531 7.078125 -8.21875 C 7.722656 -7.664062 8.09375 -6.929688 8.1875 -6.015625 L 5.65625 -6.015625 C 5.613281 -6.316406 5.476562 -6.554688 5.25 -6.734375 C 5.019531 -6.921875 4.71875 -7.015625 4.34375 -7.015625 C 4.03125 -7.015625 3.785156 -6.953125 3.609375 -6.828125 C 3.441406 -6.710938 3.359375 -6.546875 3.359375 -6.328125 C 3.359375 -6.078125 3.492188 -5.882812 3.765625 -5.75 C 4.035156 -5.625 4.457031 -5.5 5.03125 -5.375 C 5.695312 -5.195312 6.234375 -5.023438 6.640625 -4.859375 C 7.054688 -4.703125 7.421875 -4.4375 7.734375 -4.0625 C 8.054688 -3.695312 8.222656 -3.207031 8.234375 -2.59375 C 8.234375 -2.070312 8.085938 -1.601562 7.796875 -1.1875 C 7.503906 -0.78125 7.082031 -0.457031 6.53125 -0.21875 C 5.976562 0.0078125 5.34375 0.125 4.625 0.125 Z M 4.625 0.125 "/></g></g></g><g fill="#616d69" fill-opacity="1"><g transform="translate(266.410582, 212.236841)"><g><path d="M 3.71875 -11.21875 L 3.71875 0 L 0.984375 0 L 0.984375 -11.21875 Z M 3.71875 -11.21875 "/></g></g></g><g fill="#616d69" fill-opacity="1"><g transform="translate(271.124665, 212.236841)"><g/></g></g><g fill="#616d69" fill-opacity="1"><g transform="translate(274.512409, 212.236841)"><g><path d="M 0.453125 -4.46875 C 0.453125 -5.382812 0.625 -6.1875 0.96875 -6.875 C 1.3125 -7.570312 1.78125 -8.109375 2.375 -8.484375 C 2.976562 -8.859375 3.644531 -9.046875 4.375 -9.046875 C 4.96875 -9.046875 5.503906 -8.921875 5.984375 -8.671875 C 6.472656 -8.429688 6.851562 -8.101562 7.125 -7.6875 L 7.125 -11.828125 L 9.859375 -11.828125 L 9.859375 0 L 7.125 0 L 7.125 -1.28125 C 6.875 -0.851562 6.507812 -0.507812 6.03125 -0.25 C 5.5625 0 5.007812 0.125 4.375 0.125 C 3.644531 0.125 2.976562 -0.0625 2.375 -0.4375 C 1.78125 -0.8125 1.3125 -1.347656 0.96875 -2.046875 C 0.625 -2.742188 0.453125 -3.550781 0.453125 -4.46875 Z M 7.125 -4.453125 C 7.125 -5.140625 6.9375 -5.679688 6.5625 -6.078125 C 6.1875 -6.472656 5.722656 -6.671875 5.171875 -6.671875 C 4.628906 -6.671875 4.171875 -6.472656 3.796875 -6.078125 C 3.421875 -5.691406 3.234375 -5.15625 3.234375 -4.46875 C 3.234375 -3.789062 3.421875 -3.25 3.796875 -2.84375 C 4.171875 -2.445312 4.628906 -2.25 5.171875 -2.25 C 5.722656 -2.25 6.1875 -2.445312 6.5625 -2.84375 C 6.9375 -3.238281 7.125 -3.773438 7.125 -4.453125 Z M 7.125 -4.453125 "/></g></g></g><g fill="#616d69" fill-opacity="1"><g transform="translate(285.362788, 212.236841)"><g><path d="M 5.046875 0.125 C 4.171875 0.125 3.382812 -0.0546875 2.6875 -0.421875 C 1.988281 -0.796875 1.441406 -1.328125 1.046875 -2.015625 C 0.648438 -2.710938 0.453125 -3.523438 0.453125 -4.453125 C 0.453125 -5.367188 0.648438 -6.175781 1.046875 -6.875 C 1.453125 -7.570312 2.003906 -8.109375 2.703125 -8.484375 C 3.410156 -8.859375 4.203125 -9.046875 5.078125 -9.046875 C 5.953125 -9.046875 6.738281 -8.859375 7.4375 -8.484375 C 8.144531 -8.109375 8.703125 -7.570312 9.109375 -6.875 C 9.515625 -6.175781 9.71875 -5.367188 9.71875 -4.453125 C 9.71875 -3.535156 9.507812 -2.726562 9.09375 -2.03125 C 8.6875 -1.332031 8.128906 -0.796875 7.421875 -0.421875 C 6.710938 -0.0546875 5.921875 0.125 5.046875 0.125 Z M 5.046875 -2.234375 C 5.566406 -2.234375 6.007812 -2.425781 6.375 -2.8125 C 6.75 -3.195312 6.9375 -3.742188 6.9375 -4.453125 C 6.9375 -5.171875 6.753906 -5.722656 6.390625 -6.109375 C 6.035156 -6.492188 5.597656 -6.6875 5.078125 -6.6875 C 4.546875 -6.6875 4.101562 -6.492188 3.75 -6.109375 C 3.40625 -5.734375 3.234375 -5.179688 3.234375 -4.453125 C 3.234375 -3.742188 3.40625 -3.195312 3.75 -2.8125 C 4.09375 -2.425781 4.523438 -2.234375 5.046875 -2.234375 Z M 5.046875 -2.234375 "/></g></g></g><g fill="#616d69" fill-opacity="1"><g transform="translate(295.542012, 212.236841)"><g/></g></g><g fill="#616d69" fill-opacity="1"><g transform="translate(298.929755, 212.236841)"><g><path d="M 6.46875 -9.015625 C 7.5 -9.015625 8.320312 -8.675781 8.9375 -8 C 9.550781 -7.320312 9.859375 -6.390625 9.859375 -5.203125 L 9.859375 0 L 7.140625 0 L 7.140625 -4.84375 C 7.140625 -5.4375 6.984375 -5.898438 6.671875 -6.234375 C 6.367188 -6.566406 5.957031 -6.734375 5.4375 -6.734375 C 4.914062 -6.734375 4.5 -6.566406 4.1875 -6.234375 C 3.875 -5.898438 3.71875 -5.4375 3.71875 -4.84375 L 3.71875 0 L 0.984375 0 L 0.984375 -11.828125 L 3.71875 -11.828125 L 3.71875 -7.71875 C 4 -8.113281 4.378906 -8.425781 4.859375 -8.65625 C 5.335938 -8.894531 5.875 -9.015625 6.46875 -9.015625 Z M 6.46875 -9.015625 "/></g></g></g><g fill="#616d69" fill-opacity="1"><g transform="translate(309.700233, 212.236841)"><g><path d="M 0.453125 -4.46875 C 0.453125 -5.382812 0.625 -6.1875 0.96875 -6.875 C 1.3125 -7.570312 1.78125 -8.109375 2.375 -8.484375 C 2.976562 -8.859375 3.644531 -9.046875 4.375 -9.046875 C 5.007812 -9.046875 5.5625 -8.914062 6.03125 -8.65625 C 6.507812 -8.40625 6.875 -8.070312 7.125 -7.65625 L 7.125 -8.921875 L 9.859375 -8.921875 L 9.859375 0 L 7.125 0 L 7.125 -1.265625 C 6.863281 -0.847656 6.492188 -0.507812 6.015625 -0.25 C 5.546875 0 4.992188 0.125 4.359375 0.125 C 3.640625 0.125 2.976562 -0.0625 2.375 -0.4375 C 1.78125 -0.8125 1.3125 -1.347656 0.96875 -2.046875 C 0.625 -2.742188 0.453125 -3.550781 0.453125 -4.46875 Z M 7.125 -4.453125 C 7.125 -5.140625 6.9375 -5.679688 6.5625 -6.078125 C 6.1875 -6.472656 5.722656 -6.671875 5.171875 -6.671875 C 4.628906 -6.671875 4.171875 -6.472656 3.796875 -6.078125 C 3.421875 -5.691406 3.234375 -5.15625 3.234375 -4.46875 C 3.234375 -3.789062 3.421875 -3.25 3.796875 -2.84375 C 4.171875 -2.445312 4.628906 -2.25 5.171875 -2.25 C 5.722656 -2.25 6.1875 -2.445312 6.5625 -2.84375 C 6.9375 -3.238281 7.125 -3.773438 7.125 -4.453125 Z M 7.125 -4.453125 "/></g></g></g><g fill="#616d69" fill-opacity="1"><g transform="translate(320.550612, 212.236841)"><g><path d="M 0.453125 -4.453125 C 0.453125 -5.378906 0.640625 -6.1875 1.015625 -6.875 C 1.390625 -7.570312 1.914062 -8.109375 2.59375 -8.484375 C 3.269531 -8.859375 4.046875 -9.046875 4.921875 -9.046875 C 6.035156 -9.046875 6.96875 -8.75 7.71875 -8.15625 C 8.476562 -7.570312 8.972656 -6.75 9.203125 -5.6875 L 6.296875 -5.6875 C 6.054688 -6.375 5.582031 -6.71875 4.875 -6.71875 C 4.375 -6.71875 3.972656 -6.519531 3.671875 -6.125 C 3.378906 -5.738281 3.234375 -5.179688 3.234375 -4.453125 C 3.234375 -3.734375 3.378906 -3.175781 3.671875 -2.78125 C 3.972656 -2.394531 4.375 -2.203125 4.875 -2.203125 C 5.582031 -2.203125 6.054688 -2.546875 6.296875 -3.234375 L 9.203125 -3.234375 C 8.972656 -2.179688 8.476562 -1.359375 7.71875 -0.765625 C 6.957031 -0.171875 6.023438 0.125 4.921875 0.125 C 4.046875 0.125 3.269531 -0.0546875 2.59375 -0.421875 C 1.914062 -0.796875 1.390625 -1.328125 1.015625 -2.015625 C 0.640625 -2.710938 0.453125 -3.523438 0.453125 -4.453125 Z M 0.453125 -4.453125 "/></g></g></g><g fill="#616d69" fill-opacity="1"><g transform="translate(330.218473, 212.236841)"><g><path d="M 6.4375 0 L 3.71875 -3.734375 L 3.71875 0 L 0.984375 0 L 0.984375 -11.828125 L 3.71875 -11.828125 L 3.71875 -5.296875 L 6.421875 -8.921875 L 9.796875 -8.921875 L 6.09375 -4.4375 L 9.828125 0 Z M 6.4375 0 "/></g></g></g><g fill="#616d69" fill-opacity="1"><g transform="translate(340.094072, 212.236841)"><g><path d="M 0.453125 -4.46875 C 0.453125 -5.382812 0.625 -6.1875 0.96875 -6.875 C 1.3125 -7.570312 1.78125 -8.109375 2.375 -8.484375 C 2.976562 -8.859375 3.644531 -9.046875 4.375 -9.046875 C 5.007812 -9.046875 5.5625 -8.914062 6.03125 -8.65625 C 6.507812 -8.40625 6.875 -8.070312 7.125 -7.65625 L 7.125 -8.921875 L 9.859375 -8.921875 L 9.859375 0 L 7.125 0 L 7.125 -1.265625 C 6.863281 -0.847656 6.492188 -0.507812 6.015625 -0.25 C 5.546875 0 4.992188 0.125 4.359375 0.125 C 3.640625 0.125 2.976562 -0.0625 2.375 -0.4375 C 1.78125 -0.8125 1.3125 -1.347656 0.96875 -2.046875 C 0.625 -2.742188 0.453125 -3.550781 0.453125 -4.46875 Z M 7.125 -4.453125 C 7.125 -5.140625 6.9375 -5.679688 6.5625 -6.078125 C 6.1875 -6.472656 5.722656 -6.671875 5.171875 -6.671875 C 4.628906 -6.671875 4.171875 -6.472656 3.796875 -6.078125 C 3.421875 -5.691406 3.234375 -5.15625 3.234375 -4.46875 C 3.234375 -3.789062 3.421875 -3.25 3.796875 -2.84375 C 4.171875 -2.445312 4.628906 -2.25 5.171875 -2.25 C 5.722656 -2.25 6.1875 -2.445312 6.5625 -2.84375 C 6.9375 -3.238281 7.125 -3.773438 7.125 -4.453125 Z M 7.125 -4.453125 "/></g></g></g><g fill="#616d69" fill-opacity="1"><g transform="translate(350.944452, 212.236841)"><g><path d="M 5.96875 -2.3125 L 5.96875 0 L 4.578125 0 C 3.578125 0 2.800781 -0.238281 2.25 -0.71875 C 1.695312 -1.207031 1.421875 -2 1.421875 -3.09375 L 1.421875 -6.65625 L 0.328125 -6.65625 L 0.328125 -8.921875 L 1.421875 -8.921875 L 1.421875 -11.09375 L 4.15625 -11.09375 L 4.15625 -8.921875 L 5.953125 -8.921875 L 5.953125 -6.65625 L 4.15625 -6.65625 L 4.15625 -3.0625 C 4.15625 -2.800781 4.21875 -2.609375 4.34375 -2.484375 C 4.476562 -2.367188 4.691406 -2.3125 4.984375 -2.3125 Z M 5.96875 -2.3125 "/></g></g></g><g fill="#616d69" fill-opacity="1"><g transform="translate(357.432309, 212.236841)"><g><path d="M 6.46875 -9.015625 C 7.5 -9.015625 8.320312 -8.675781 8.9375 -8 C 9.550781 -7.320312 9.859375 -6.390625 9.859375 -5.203125 L 9.859375 0 L 7.140625 0 L 7.140625 -4.84375 C 7.140625 -5.4375 6.984375 -5.898438 6.671875 -6.234375 C 6.367188 -6.566406 5.957031 -6.734375 5.4375 -6.734375 C 4.914062 -6.734375 4.5 -6.566406 4.1875 -6.234375 C 3.875 -5.898438 3.71875 -5.4375 3.71875 -4.84375 L 3.71875 0 L 0.984375 0 L 0.984375 -11.828125 L 3.71875 -11.828125 L 3.71875 -7.71875 C 4 -8.113281 4.378906 -8.425781 4.859375 -8.65625 C 5.335938 -8.894531 5.875 -9.015625 6.46875 -9.015625 Z M 6.46875 -9.015625 "/></g></g></g><g fill="#616d69" fill-opacity="1"><g transform="translate(368.202786, 212.236841)"><g><path d="M 5.046875 0.125 C 4.171875 0.125 3.382812 -0.0546875 2.6875 -0.421875 C 1.988281 -0.796875 1.441406 -1.328125 1.046875 -2.015625 C 0.648438 -2.710938 0.453125 -3.523438 0.453125 -4.453125 C 0.453125 -5.367188 0.648438 -6.175781 1.046875 -6.875 C 1.453125 -7.570312 2.003906 -8.109375 2.703125 -8.484375 C 3.410156 -8.859375 4.203125 -9.046875 5.078125 -9.046875 C 5.953125 -9.046875 6.738281 -8.859375 7.4375 -8.484375 C 8.144531 -8.109375 8.703125 -7.570312 9.109375 -6.875 C 9.515625 -6.175781 9.71875 -5.367188 9.71875 -4.453125 C 9.71875 -3.535156 9.507812 -2.726562 9.09375 -2.03125 C 8.6875 -1.332031 8.128906 -0.796875 7.421875 -0.421875 C 6.710938 -0.0546875 5.921875 0.125 5.046875 0.125 Z M 5.046875 -2.234375 C 5.566406 -2.234375 6.007812 -2.425781 6.375 -2.8125 C 6.75 -3.195312 6.9375 -3.742188 6.9375 -4.453125 C 6.9375 -5.171875 6.753906 -5.722656 6.390625 -6.109375 C 6.035156 -6.492188 5.597656 -6.6875 5.078125 -6.6875 C 4.546875 -6.6875 4.101562 -6.492188 3.75 -6.109375 C 3.40625 -5.734375 3.234375 -5.179688 3.234375 -4.453125 C 3.234375 -3.742188 3.40625 -3.195312 3.75 -2.8125 C 4.09375 -2.425781 4.523438 -2.234375 5.046875 -2.234375 Z M 5.046875 -2.234375 "/></g></g></g><g fill="#616d69" fill-opacity="1"><g transform="translate(378.38201, 212.236841)"><g><path d="M 6.421875 -9.015625 C 7.460938 -9.015625 8.296875 -8.675781 8.921875 -8 C 9.546875 -7.320312 9.859375 -6.390625 9.859375 -5.203125 L 9.859375 0 L 7.140625 0 L 7.140625 -4.84375 C 7.140625 -5.4375 6.984375 -5.898438 6.671875 -6.234375 C 6.367188 -6.566406 5.957031 -6.734375 5.4375 -6.734375 C 4.914062 -6.734375 4.5 -6.566406 4.1875 -6.234375 C 3.875 -5.898438 3.71875 -5.4375 3.71875 -4.84375 L 3.71875 0 L 0.984375 0 L 0.984375 -8.921875 L 3.71875 -8.921875 L 3.71875 -7.734375 C 4 -8.128906 4.375 -8.441406 4.84375 -8.671875 C 5.3125 -8.898438 5.835938 -9.015625 6.421875 -9.015625 Z M 6.421875 -9.015625 "/></g></g></g><g fill="#616d69" fill-opacity="1"><g transform="translate(389.152488, 212.236841)"><g><path d="M 4.625 0.125 C 3.84375 0.125 3.144531 -0.00390625 2.53125 -0.265625 C 1.925781 -0.535156 1.445312 -0.898438 1.09375 -1.359375 C 0.75 -1.828125 0.554688 -2.347656 0.515625 -2.921875 L 3.21875 -2.921875 C 3.25 -2.617188 3.390625 -2.367188 3.640625 -2.171875 C 3.898438 -1.984375 4.21875 -1.890625 4.59375 -1.890625 C 4.925781 -1.890625 5.1875 -1.953125 5.375 -2.078125 C 5.5625 -2.210938 5.65625 -2.390625 5.65625 -2.609375 C 5.65625 -2.859375 5.519531 -3.046875 5.25 -3.171875 C 4.988281 -3.296875 4.5625 -3.429688 3.96875 -3.578125 C 3.320312 -3.722656 2.785156 -3.878906 2.359375 -4.046875 C 1.929688 -4.210938 1.5625 -4.472656 1.25 -4.828125 C 0.945312 -5.191406 0.796875 -5.675781 0.796875 -6.28125 C 0.796875 -6.789062 0.9375 -7.253906 1.21875 -7.671875 C 1.5 -8.097656 1.914062 -8.429688 2.46875 -8.671875 C 3.019531 -8.921875 3.671875 -9.046875 4.421875 -9.046875 C 5.546875 -9.046875 6.429688 -8.769531 7.078125 -8.21875 C 7.722656 -7.664062 8.09375 -6.929688 8.1875 -6.015625 L 5.65625 -6.015625 C 5.613281 -6.316406 5.476562 -6.554688 5.25 -6.734375 C 5.019531 -6.921875 4.71875 -7.015625 4.34375 -7.015625 C 4.03125 -7.015625 3.785156 -6.953125 3.609375 -6.828125 C 3.441406 -6.710938 3.359375 -6.546875 3.359375 -6.328125 C 3.359375 -6.078125 3.492188 -5.882812 3.765625 -5.75 C 4.035156 -5.625 4.457031 -5.5 5.03125 -5.375 C 5.695312 -5.195312 6.234375 -5.023438 6.640625 -4.859375 C 7.054688 -4.703125 7.421875 -4.4375 7.734375 -4.0625 C 8.054688 -3.695312 8.222656 -3.207031 8.234375 -2.59375 C 8.234375 -2.070312 8.085938 -1.601562 7.796875 -1.1875 C 7.503906 -0.78125 7.082031 -0.457031 6.53125 -0.21875 C 5.976562 0.0078125 5.34375 0.125 4.625 0.125 Z M 4.625 0.125 "/></g></g></g><g fill="#616d69" fill-opacity="1"><g transform="translate(163.85835, 67.255987)"><g><path d="M 3.71875 -11.21875 L 3.71875 0 L 0.984375 0 L 0.984375 -11.21875 Z M 3.71875 -11.21875 "/></g></g></g><g fill="#616d69" fill-opacity="1"><g transform="translate(168.572433, 67.255987)"><g/></g></g><g fill="#616d69" fill-opacity="1"><g transform="translate(171.960177, 67.255987)"><g><path d="M 13.796875 -8.921875 L 11.375 0 L 8.359375 0 L 6.953125 -5.78125 L 5.5 0 L 2.5 0 L 0.0625 -8.921875 L 2.796875 -8.921875 L 4.0625 -2.546875 L 5.5625 -8.921875 L 8.453125 -8.921875 L 9.96875 -2.578125 L 11.21875 -8.921875 Z M 13.796875 -8.921875 "/></g></g></g><g fill="#616d69" fill-opacity="1"><g transform="translate(185.798802, 67.255987)"><g><path d="M 3.71875 -7.4375 C 4.039062 -7.925781 4.441406 -8.3125 4.921875 -8.59375 C 5.398438 -8.875 5.929688 -9.015625 6.515625 -9.015625 L 6.515625 -6.125 L 5.765625 -6.125 C 5.085938 -6.125 4.578125 -5.976562 4.234375 -5.6875 C 3.890625 -5.394531 3.71875 -4.878906 3.71875 -4.140625 L 3.71875 0 L 0.984375 0 L 0.984375 -8.921875 L 3.71875 -8.921875 Z M 3.71875 -7.4375 "/></g></g></g><g fill="#616d69" fill-opacity="1"><g transform="translate(192.638219, 67.255987)"><g><path d="M 2.359375 -9.84375 C 1.878906 -9.84375 1.488281 -9.984375 1.1875 -10.265625 C 0.882812 -10.546875 0.734375 -10.894531 0.734375 -11.3125 C 0.734375 -11.738281 0.882812 -12.09375 1.1875 -12.375 C 1.488281 -12.65625 1.878906 -12.796875 2.359375 -12.796875 C 2.828125 -12.796875 3.210938 -12.65625 3.515625 -12.375 C 3.828125 -12.09375 3.984375 -11.738281 3.984375 -11.3125 C 3.984375 -10.894531 3.828125 -10.546875 3.515625 -10.265625 C 3.210938 -9.984375 2.828125 -9.84375 2.359375 -9.84375 Z M 3.71875 -8.921875 L 3.71875 0 L 0.984375 0 L 0.984375 -8.921875 Z M 3.71875 -8.921875 "/></g></g></g><g fill="#616d69" fill-opacity="1"><g transform="translate(197.352303, 67.255987)"><g><path d="M 5.96875 -2.3125 L 5.96875 0 L 4.578125 0 C 3.578125 0 2.800781 -0.238281 2.25 -0.71875 C 1.695312 -1.207031 1.421875 -2 1.421875 -3.09375 L 1.421875 -6.65625 L 0.328125 -6.65625 L 0.328125 -8.921875 L 1.421875 -8.921875 L 1.421875 -11.09375 L 4.15625 -11.09375 L 4.15625 -8.921875 L 5.953125 -8.921875 L 5.953125 -6.65625 L 4.15625 -6.65625 L 4.15625 -3.0625 C 4.15625 -2.800781 4.21875 -2.609375 4.34375 -2.484375 C 4.476562 -2.367188 4.691406 -2.3125 4.984375 -2.3125 Z M 5.96875 -2.3125 "/></g></g></g><g fill="#616d69" fill-opacity="1"><g transform="translate(203.840159, 67.255987)"><g><path d="M 9.40625 -4.609375 C 9.40625 -4.347656 9.382812 -4.078125 9.34375 -3.796875 L 3.171875 -3.796875 C 3.210938 -3.242188 3.390625 -2.820312 3.703125 -2.53125 C 4.015625 -2.238281 4.398438 -2.09375 4.859375 -2.09375 C 5.535156 -2.09375 6.007812 -2.378906 6.28125 -2.953125 L 9.1875 -2.953125 C 9.039062 -2.367188 8.769531 -1.84375 8.375 -1.375 C 7.988281 -0.90625 7.503906 -0.535156 6.921875 -0.265625 C 6.335938 -0.00390625 5.679688 0.125 4.953125 0.125 C 4.078125 0.125 3.296875 -0.0546875 2.609375 -0.421875 C 1.929688 -0.796875 1.398438 -1.328125 1.015625 -2.015625 C 0.640625 -2.710938 0.453125 -3.523438 0.453125 -4.453125 C 0.453125 -5.378906 0.640625 -6.1875 1.015625 -6.875 C 1.390625 -7.570312 1.914062 -8.109375 2.59375 -8.484375 C 3.28125 -8.859375 4.066406 -9.046875 4.953125 -9.046875 C 5.816406 -9.046875 6.582031 -8.863281 7.25 -8.5 C 7.925781 -8.132812 8.453125 -7.617188 8.828125 -6.953125 C 9.210938 -6.285156 9.40625 -5.503906 9.40625 -4.609375 Z M 6.59375 -5.328125 C 6.59375 -5.796875 6.429688 -6.164062 6.109375 -6.4375 C 5.796875 -6.71875 5.398438 -6.859375 4.921875 -6.859375 C 4.460938 -6.859375 4.078125 -6.722656 3.765625 -6.453125 C 3.453125 -6.191406 3.257812 -5.816406 3.1875 -5.328125 Z M 6.59375 -5.328125 "/></g></g></g><g fill="#616d69" fill-opacity="1"><g transform="translate(213.683805, 67.255987)"><g/></g></g><g fill="#616d69" fill-opacity="1"><g transform="translate(217.071549, 67.255987)"><g><path d="M 3.71875 -7.65625 C 3.976562 -8.070312 4.347656 -8.40625 4.828125 -8.65625 C 5.304688 -8.914062 5.851562 -9.046875 6.46875 -9.046875 C 7.207031 -9.046875 7.875 -8.859375 8.46875 -8.484375 C 9.0625 -8.109375 9.53125 -7.570312 9.875 -6.875 C 10.226562 -6.1875 10.40625 -5.382812 10.40625 -4.46875 C 10.40625 -3.550781 10.226562 -2.742188 9.875 -2.046875 C 9.53125 -1.347656 9.0625 -0.8125 8.46875 -0.4375 C 7.875 -0.0625 7.207031 0.125 6.46875 0.125 C 5.84375 0.125 5.296875 0 4.828125 -0.25 C 4.359375 -0.5 3.988281 -0.832031 3.71875 -1.25 L 3.71875 0 L 0.984375 0 L 0.984375 -11.828125 L 3.71875 -11.828125 Z M 7.625 -4.46875 C 7.625 -5.15625 7.429688 -5.691406 7.046875 -6.078125 C 6.671875 -6.472656 6.207031 -6.671875 5.65625 -6.671875 C 5.113281 -6.671875 4.648438 -6.472656 4.265625 -6.078125 C 3.890625 -5.679688 3.703125 -5.140625 3.703125 -4.453125 C 3.703125 -3.773438 3.890625 -3.238281 4.265625 -2.84375 C 4.648438 -2.445312 5.113281 -2.25 5.65625 -2.25 C 6.195312 -2.25 6.660156 -2.445312 7.046875 -2.84375 C 7.429688 -3.25 7.625 -3.789062 7.625 -4.46875 Z M 7.625 -4.46875 "/></g></g></g><g fill="#616d69" fill-opacity="1"><g transform="translate(227.921928, 67.255987)"><g><path d="M 3.71875 -11.828125 L 3.71875 0 L 0.984375 0 L 0.984375 -11.828125 Z M 3.71875 -11.828125 "/></g></g></g><g fill="#616d69" fill-opacity="1"><g transform="translate(232.636011, 67.255987)"><g><path d="M 5.046875 0.125 C 4.171875 0.125 3.382812 -0.0546875 2.6875 -0.421875 C 1.988281 -0.796875 1.441406 -1.328125 1.046875 -2.015625 C 0.648438 -2.710938 0.453125 -3.523438 0.453125 -4.453125 C 0.453125 -5.367188 0.648438 -6.175781 1.046875 -6.875 C 1.453125 -7.570312 2.003906 -8.109375 2.703125 -8.484375 C 3.410156 -8.859375 4.203125 -9.046875 5.078125 -9.046875 C 5.953125 -9.046875 6.738281 -8.859375 7.4375 -8.484375 C 8.144531 -8.109375 8.703125 -7.570312 9.109375 -6.875 C 9.515625 -6.175781 9.71875 -5.367188 9.71875 -4.453125 C 9.71875 -3.535156 9.507812 -2.726562 9.09375 -2.03125 C 8.6875 -1.332031 8.128906 -0.796875 7.421875 -0.421875 C 6.710938 -0.0546875 5.921875 0.125 5.046875 0.125 Z M 5.046875 -2.234375 C 5.566406 -2.234375 6.007812 -2.425781 6.375 -2.8125 C 6.75 -3.195312 6.9375 -3.742188 6.9375 -4.453125 C 6.9375 -5.171875 6.753906 -5.722656 6.390625 -6.109375 C 6.035156 -6.492188 5.597656 -6.6875 5.078125 -6.6875 C 4.546875 -6.6875 4.101562 -6.492188 3.75 -6.109375 C 3.40625 -5.734375 3.234375 -5.179688 3.234375 -4.453125 C 3.234375 -3.742188 3.40625 -3.195312 3.75 -2.8125 C 4.09375 -2.425781 4.523438 -2.234375 5.046875 -2.234375 Z M 5.046875 -2.234375 "/></g></g></g><g fill="#616d69" fill-opacity="1"><g transform="translate(242.815235, 67.255987)"><g><path d="M 4.375 -9.046875 C 5.007812 -9.046875 5.5625 -8.914062 6.03125 -8.65625 C 6.507812 -8.40625 6.875 -8.070312 7.125 -7.65625 L 7.125 -8.921875 L 9.859375 -8.921875 L 9.859375 -0.015625 C 9.859375 0.804688 9.695312 1.550781 9.375 2.21875 C 9.050781 2.882812 8.554688 3.410156 7.890625 3.796875 C 7.222656 4.191406 6.394531 4.390625 5.40625 4.390625 C 4.082031 4.390625 3.007812 4.078125 2.1875 3.453125 C 1.363281 2.835938 0.894531 1.992188 0.78125 0.921875 L 3.484375 0.921875 C 3.566406 1.265625 3.769531 1.535156 4.09375 1.734375 C 4.414062 1.929688 4.8125 2.03125 5.28125 2.03125 C 5.84375 2.03125 6.289062 1.867188 6.625 1.546875 C 6.957031 1.222656 7.125 0.703125 7.125 -0.015625 L 7.125 -1.28125 C 6.863281 -0.863281 6.5 -0.523438 6.03125 -0.265625 C 5.5625 -0.00390625 5.007812 0.125 4.375 0.125 C 3.644531 0.125 2.976562 -0.0625 2.375 -0.4375 C 1.78125 -0.8125 1.3125 -1.347656 0.96875 -2.046875 C 0.625 -2.742188 0.453125 -3.550781 0.453125 -4.46875 C 0.453125 -5.382812 0.625 -6.1875 0.96875 -6.875 C 1.3125 -7.570312 1.78125 -8.109375 2.375 -8.484375 C 2.976562 -8.859375 3.644531 -9.046875 4.375 -9.046875 Z M 7.125 -4.453125 C 7.125 -5.140625 6.9375 -5.679688 6.5625 -6.078125 C 6.1875 -6.472656 5.722656 -6.671875 5.171875 -6.671875 C 4.628906 -6.671875 4.171875 -6.472656 3.796875 -6.078125 C 3.421875 -5.691406 3.234375 -5.15625 3.234375 -4.46875 C 3.234375 -3.789062 3.421875 -3.25 3.796875 -2.84375 C 4.171875 -2.445312 4.628906 -2.25 5.171875 -2.25 C 5.722656 -2.25 6.1875 -2.445312 6.5625 -2.84375 C 6.9375 -3.238281 7.125 -3.773438 7.125 -4.453125 Z M 7.125 -4.453125 "/></g></g></g><g fill="#616d69" fill-opacity="1"><g transform="translate(253.665615, 67.255987)"><g><path d="M 4.625 0.125 C 3.84375 0.125 3.144531 -0.00390625 2.53125 -0.265625 C 1.925781 -0.535156 1.445312 -0.898438 1.09375 -1.359375 C 0.75 -1.828125 0.554688 -2.347656 0.515625 -2.921875 L 3.21875 -2.921875 C 3.25 -2.617188 3.390625 -2.367188 3.640625 -2.171875 C 3.898438 -1.984375 4.21875 -1.890625 4.59375 -1.890625 C 4.925781 -1.890625 5.1875 -1.953125 5.375 -2.078125 C 5.5625 -2.210938 5.65625 -2.390625 5.65625 -2.609375 C 5.65625 -2.859375 5.519531 -3.046875 5.25 -3.171875 C 4.988281 -3.296875 4.5625 -3.429688 3.96875 -3.578125 C 3.320312 -3.722656 2.785156 -3.878906 2.359375 -4.046875 C 1.929688 -4.210938 1.5625 -4.472656 1.25 -4.828125 C 0.945312 -5.191406 0.796875 -5.675781 0.796875 -6.28125 C 0.796875 -6.789062 0.9375 -7.253906 1.21875 -7.671875 C 1.5 -8.097656 1.914062 -8.429688 2.46875 -8.671875 C 3.019531 -8.921875 3.671875 -9.046875 4.421875 -9.046875 C 5.546875 -9.046875 6.429688 -8.769531 7.078125 -8.21875 C 7.722656 -7.664062 8.09375 -6.929688 8.1875 -6.015625 L 5.65625 -6.015625 C 5.613281 -6.316406 5.476562 -6.554688 5.25 -6.734375 C 5.019531 -6.921875 4.71875 -7.015625 4.34375 -7.015625 C 4.03125 -7.015625 3.785156 -6.953125 3.609375 -6.828125 C 3.441406 -6.710938 3.359375 -6.546875 3.359375 -6.328125 C 3.359375 -6.078125 3.492188 -5.882812 3.765625 -5.75 C 4.035156 -5.625 4.457031 -5.5 5.03125 -5.375 C 5.695312 -5.195312 6.234375 -5.023438 6.640625 -4.859375 C 7.054688 -4.703125 7.421875 -4.4375 7.734375 -4.0625 C 8.054688 -3.695312 8.222656 -3.207031 8.234375 -2.59375 C 8.234375 -2.070312 8.085938 -1.601562 7.796875 -1.1875 C 7.503906 -0.78125 7.082031 -0.457031 6.53125 -0.21875 C 5.976562 0.0078125 5.34375 0.125 4.625 0.125 Z M 4.625 0.125 "/></g></g></g><g fill="#616d69" fill-opacity="1"><g transform="translate(446.918766, 85.747213)"><g><path d="M 3.71875 -11.21875 L 3.71875 0 L 0.984375 0 L 0.984375 -11.21875 Z M 3.71875 -11.21875 "/></g></g></g><g fill="#616d69" fill-opacity="1"><g transform="translate(451.63285, 85.747213)"><g/></g></g><g fill="#616d69" fill-opacity="1"><g transform="translate(455.020593, 85.747213)"><g><path d="M 4.625 0.125 C 3.84375 0.125 3.144531 -0.00390625 2.53125 -0.265625 C 1.925781 -0.535156 1.445312 -0.898438 1.09375 -1.359375 C 0.75 -1.828125 0.554688 -2.347656 0.515625 -2.921875 L 3.21875 -2.921875 C 3.25 -2.617188 3.390625 -2.367188 3.640625 -2.171875 C 3.898438 -1.984375 4.21875 -1.890625 4.59375 -1.890625 C 4.925781 -1.890625 5.1875 -1.953125 5.375 -2.078125 C 5.5625 -2.210938 5.65625 -2.390625 5.65625 -2.609375 C 5.65625 -2.859375 5.519531 -3.046875 5.25 -3.171875 C 4.988281 -3.296875 4.5625 -3.429688 3.96875 -3.578125 C 3.320312 -3.722656 2.785156 -3.878906 2.359375 -4.046875 C 1.929688 -4.210938 1.5625 -4.472656 1.25 -4.828125 C 0.945312 -5.191406 0.796875 -5.675781 0.796875 -6.28125 C 0.796875 -6.789062 0.9375 -7.253906 1.21875 -7.671875 C 1.5 -8.097656 1.914062 -8.429688 2.46875 -8.671875 C 3.019531 -8.921875 3.671875 -9.046875 4.421875 -9.046875 C 5.546875 -9.046875 6.429688 -8.769531 7.078125 -8.21875 C 7.722656 -7.664062 8.09375 -6.929688 8.1875 -6.015625 L 5.65625 -6.015625 C 5.613281 -6.316406 5.476562 -6.554688 5.25 -6.734375 C 5.019531 -6.921875 4.71875 -7.015625 4.34375 -7.015625 C 4.03125 -7.015625 3.785156 -6.953125 3.609375 -6.828125 C 3.441406 -6.710938 3.359375 -6.546875 3.359375 -6.328125 C 3.359375 -6.078125 3.492188 -5.882812 3.765625 -5.75 C 4.035156 -5.625 4.457031 -5.5 5.03125 -5.375 C 5.695312 -5.195312 6.234375 -5.023438 6.640625 -4.859375 C 7.054688 -4.703125 7.421875 -4.4375 7.734375 -4.0625 C 8.054688 -3.695312 8.222656 -3.207031 8.234375 -2.59375 C 8.234375 -2.070312 8.085938 -1.601562 7.796875 -1.1875 C 7.503906 -0.78125 7.082031 -0.457031 6.53125 -0.21875 C 5.976562 0.0078125 5.34375 0.125 4.625 0.125 Z M 4.625 0.125 "/></g></g></g><g fill="#616d69" fill-opacity="1"><g transform="translate(463.937396, 85.747213)"><g><path d="M 5.96875 -2.3125 L 5.96875 0 L 4.578125 0 C 3.578125 0 2.800781 -0.238281 2.25 -0.71875 C 1.695312 -1.207031 1.421875 -2 1.421875 -3.09375 L 1.421875 -6.65625 L 0.328125 -6.65625 L 0.328125 -8.921875 L 1.421875 -8.921875 L 1.421875 -11.09375 L 4.15625 -11.09375 L 4.15625 -8.921875 L 5.953125 -8.921875 L 5.953125 -6.65625 L 4.15625 -6.65625 L 4.15625 -3.0625 C 4.15625 -2.800781 4.21875 -2.609375 4.34375 -2.484375 C 4.476562 -2.367188 4.691406 -2.3125 4.984375 -2.3125 Z M 5.96875 -2.3125 "/></g></g></g><g fill="#616d69" fill-opacity="1"><g transform="translate(470.425252, 85.747213)"><g><path d="M 9.796875 -8.921875 L 9.796875 0 L 7.0625 0 L 7.0625 -1.21875 C 6.789062 -0.820312 6.414062 -0.503906 5.9375 -0.265625 C 5.46875 -0.0234375 4.941406 0.09375 4.359375 0.09375 C 3.679688 0.09375 3.082031 -0.0546875 2.5625 -0.359375 C 2.039062 -0.660156 1.632812 -1.097656 1.34375 -1.671875 C 1.050781 -2.253906 0.90625 -2.929688 0.90625 -3.703125 L 0.90625 -8.921875 L 3.625 -8.921875 L 3.625 -4.078125 C 3.625 -3.484375 3.78125 -3.019531 4.09375 -2.6875 C 4.40625 -2.351562 4.820312 -2.1875 5.34375 -2.1875 C 5.875 -2.1875 6.289062 -2.351562 6.59375 -2.6875 C 6.90625 -3.019531 7.0625 -3.484375 7.0625 -4.078125 L 7.0625 -8.921875 Z M 9.796875 -8.921875 "/></g></g></g><g fill="#616d69" fill-opacity="1"><g transform="translate(481.19573, 85.747213)"><g><path d="M 0.453125 -4.46875 C 0.453125 -5.382812 0.625 -6.1875 0.96875 -6.875 C 1.3125 -7.570312 1.78125 -8.109375 2.375 -8.484375 C 2.976562 -8.859375 3.644531 -9.046875 4.375 -9.046875 C 4.96875 -9.046875 5.503906 -8.921875 5.984375 -8.671875 C 6.472656 -8.429688 6.851562 -8.101562 7.125 -7.6875 L 7.125 -11.828125 L 9.859375 -11.828125 L 9.859375 0 L 7.125 0 L 7.125 -1.28125 C 6.875 -0.851562 6.507812 -0.507812 6.03125 -0.25 C 5.5625 0 5.007812 0.125 4.375 0.125 C 3.644531 0.125 2.976562 -0.0625 2.375 -0.4375 C 1.78125 -0.8125 1.3125 -1.347656 0.96875 -2.046875 C 0.625 -2.742188 0.453125 -3.550781 0.453125 -4.46875 Z M 7.125 -4.453125 C 7.125 -5.140625 6.9375 -5.679688 6.5625 -6.078125 C 6.1875 -6.472656 5.722656 -6.671875 5.171875 -6.671875 C 4.628906 -6.671875 4.171875 -6.472656 3.796875 -6.078125 C 3.421875 -5.691406 3.234375 -5.15625 3.234375 -4.46875 C 3.234375 -3.789062 3.421875 -3.25 3.796875 -2.84375 C 4.171875 -2.445312 4.628906 -2.25 5.171875 -2.25 C 5.722656 -2.25 6.1875 -2.445312 6.5625 -2.84375 C 6.9375 -3.238281 7.125 -3.773438 7.125 -4.453125 Z M 7.125 -4.453125 "/></g></g></g><g fill="#616d69" fill-opacity="1"><g transform="translate(492.04611, 85.747213)"><g><path d="M 10.109375 -8.921875 L 4.5 4.234375 L 1.5625 4.234375 L 3.609375 -0.296875 L -0.015625 -8.921875 L 3.03125 -8.921875 L 5.09375 -3.34375 L 7.140625 -8.921875 Z M 10.109375 -8.921875 "/></g></g></g><g fill="#616d69" fill-opacity="1"><g transform="translate(502.145432, 85.747213)"><g/></g></g><g fill="#616d69" fill-opacity="1"><g transform="translate(505.533175, 85.747213)"><g><path d="M 0.53125 -5.625 C 0.53125 -6.726562 0.769531 -7.710938 1.25 -8.578125 C 1.726562 -9.453125 2.394531 -10.128906 3.25 -10.609375 C 4.113281 -11.097656 5.085938 -11.34375 6.171875 -11.34375 C 7.503906 -11.34375 8.644531 -10.988281 9.59375 -10.28125 C 10.539062 -9.582031 11.175781 -8.628906 11.5 -7.421875 L 8.484375 -7.421875 C 8.265625 -7.890625 7.945312 -8.242188 7.53125 -8.484375 C 7.125 -8.734375 6.660156 -8.859375 6.140625 -8.859375 C 5.296875 -8.859375 4.613281 -8.5625 4.09375 -7.96875 C 3.570312 -7.382812 3.3125 -6.601562 3.3125 -5.625 C 3.3125 -4.644531 3.570312 -3.859375 4.09375 -3.265625 C 4.613281 -2.679688 5.296875 -2.390625 6.140625 -2.390625 C 6.660156 -2.390625 7.125 -2.515625 7.53125 -2.765625 C 7.945312 -3.015625 8.265625 -3.375 8.484375 -3.84375 L 11.5 -3.84375 C 11.175781 -2.625 10.539062 -1.664062 9.59375 -0.96875 C 8.644531 -0.269531 7.503906 0.078125 6.171875 0.078125 C 5.085938 0.078125 4.113281 -0.160156 3.25 -0.640625 C 2.394531 -1.128906 1.726562 -1.804688 1.25 -2.671875 C 0.769531 -3.535156 0.53125 -4.519531 0.53125 -5.625 Z M 0.53125 -5.625 "/></g></g></g><g fill="#616d69" fill-opacity="1"><g transform="translate(517.709883, 85.747213)"><g><path d="M 5.046875 0.109375 C 4.222656 0.109375 3.488281 -0.0195312 2.84375 -0.28125 C 2.195312 -0.550781 1.675781 -0.945312 1.28125 -1.46875 C 0.894531 -1.988281 0.691406 -2.617188 0.671875 -3.359375 L 3.578125 -3.359375 C 3.617188 -2.941406 3.757812 -2.625 4 -2.40625 C 4.25 -2.1875 4.570312 -2.078125 4.96875 -2.078125 C 5.375 -2.078125 5.691406 -2.171875 5.921875 -2.359375 C 6.160156 -2.546875 6.28125 -2.804688 6.28125 -3.140625 C 6.28125 -3.410156 6.1875 -3.632812 6 -3.8125 C 5.8125 -4 5.582031 -4.148438 5.3125 -4.265625 C 5.039062 -4.378906 4.65625 -4.515625 4.15625 -4.671875 C 3.425781 -4.890625 2.832031 -5.109375 2.375 -5.328125 C 1.914062 -5.554688 1.519531 -5.890625 1.1875 -6.328125 C 0.863281 -6.765625 0.703125 -7.335938 0.703125 -8.046875 C 0.703125 -9.085938 1.078125 -9.898438 1.828125 -10.484375 C 2.585938 -11.078125 3.578125 -11.375 4.796875 -11.375 C 6.035156 -11.375 7.03125 -11.078125 7.78125 -10.484375 C 8.539062 -9.898438 8.945312 -9.082031 9 -8.03125 L 6.046875 -8.03125 C 6.023438 -8.382812 5.890625 -8.664062 5.640625 -8.875 C 5.398438 -9.082031 5.085938 -9.1875 4.703125 -9.1875 C 4.367188 -9.1875 4.097656 -9.097656 3.890625 -8.921875 C 3.691406 -8.742188 3.59375 -8.492188 3.59375 -8.171875 C 3.59375 -7.804688 3.765625 -7.519531 4.109375 -7.3125 C 4.453125 -7.113281 4.984375 -6.898438 5.703125 -6.671875 C 6.429688 -6.421875 7.019531 -6.179688 7.46875 -5.953125 C 7.925781 -5.734375 8.316406 -5.410156 8.640625 -4.984375 C 8.972656 -4.554688 9.140625 -4.007812 9.140625 -3.34375 C 9.140625 -2.695312 8.976562 -2.113281 8.65625 -1.59375 C 8.332031 -1.070312 7.859375 -0.65625 7.234375 -0.34375 C 6.617188 -0.0390625 5.890625 0.109375 5.046875 0.109375 Z M 5.046875 0.109375 "/></g></g></g></svg>