<svg xmlns="http://www.w3.org/2000/svg" xmlns:xlink="http://www.w3.org/1999/xlink" width="1920" zoomAndPan="magnify" viewBox="0 0 1440 809.999993" height="1080" preserveAspectRatio="xMidYMid meet" version="1.0"><defs><filter x="0%" y="0%" width="100%" height="100%" id="3e2fdd3d98"><feColorMatrix values="0 0 0 0 1 0 0 0 0 1 0 0 0 0 1 0 0 0 1 0" color-interpolation-filters="sRGB"/></filter><mask id="d5351fd1c5"><g filter="url(#3e2fdd3d98)"><rect x="-144" width="1728" fill="#000000" y="-80.999999" height="971.999992" fill-opacity="0.698"/></g></mask><clipPath id="59b336d81b"><path d="M 1 0.09375 L 70.707031 0.09375 L 70.707031 89.34375 L 1 89.34375 Z M 1 0.09375 " clip-rule="nonzero"/></clipPath><clipPath id="b02de06eff"><rect x="0" width="72" y="0" height="91"/></clipPath><mask id="c0f8b51888"><g filter="url(#3e2fdd3d98)"><rect x="-144" width="1728" fill="#000000" y="-80.999999" height="971.999992" fill-opacity="0.698"/></g></mask><clipPath id="349aae7b31"><path d="M 0 7 L 56 7 L 56 98 L 0 98 Z M 0 7 " clip-rule="nonzero"/></clipPath><clipPath id="c88af404f8"><path d="M 41.460938 -1.835938 L 61.988281 11.992188 L 3.3125 99.070312 L -17.210938 85.238281 Z M 41.460938 -1.835938 " clip-rule="nonzero"/></clipPath><clipPath id="4d52e40b77"><path d="M 41.460938 -1.835938 L 61.988281 11.992188 L 3.3125 99.070312 L -17.210938 85.238281 Z M 41.460938 -1.835938 " clip-rule="nonzero"/></clipPath><clipPath id="4b6d7f2c25"><rect x="0" width="60" y="0" height="99"/></clipPath><mask id="9c89cc0c54"><g filter="url(#3e2fdd3d98)"><rect x="-144" width="1728" fill="#000000" y="-80.999999" height="971.999992" fill-opacity="0.698"/></g></mask><clipPath id="dfbe2e204f"><path d="M 7 9 L 43 9 L 43 39 L 7 39 Z M 7 9 " clip-rule="nonzero"/></clipPath><clipPath id="72e59192e2"><path d="M 11.53125 1.074219 L 94.960938 15.980469 L 84.277344 75.785156 L 0.847656 60.878906 Z M 11.53125 1.074219 " clip-rule="nonzero"/></clipPath><clipPath id="c358122202"><path d="M 11.53125 1.074219 L 94.960938 15.980469 L 84.277344 75.785156 L 0.847656 60.878906 Z M 11.53125 1.074219 " clip-rule="nonzero"/></clipPath><clipPath id="6907e1989f"><path d="M 62 13 L 93 13 L 93 39 L 62 39 Z M 62 13 " clip-rule="nonzero"/></clipPath><clipPath id="f0abcf70e7"><path d="M 11.53125 1.074219 L 94.960938 15.980469 L 84.277344 75.785156 L 0.847656 60.878906 Z M 11.53125 1.074219 " clip-rule="nonzero"/></clipPath><clipPath id="58bf0d17d5"><path d="M 11.53125 1.074219 L 94.960938 15.980469 L 84.277344 75.785156 L 0.847656 60.878906 Z M 11.53125 1.074219 " clip-rule="nonzero"/></clipPath><clipPath id="a53c141a90"><path d="M 30 31 L 78 31 L 78 70 L 30 70 Z M 30 31 " clip-rule="nonzero"/></clipPath><clipPath id="9150daa597"><path d="M 11.53125 1.074219 L 94.960938 15.980469 L 84.277344 75.785156 L 0.847656 60.878906 Z M 11.53125 1.074219 " clip-rule="nonzero"/></clipPath><clipPath id="082f8f5690"><path d="M 11.53125 1.074219 L 94.960938 15.980469 L 84.277344 75.785156 L 0.847656 60.878906 Z M 11.53125 1.074219 " clip-rule="nonzero"/></clipPath><clipPath id="9c0e911582"><rect x="0" width="96" y="0" height="77"/></clipPath><mask id="e83d1d0f35"><g filter="url(#3e2fdd3d98)"><rect x="-144" width="1728" fill="#000000" y="-80.999999" height="971.999992" fill-opacity="0.698"/></g></mask><clipPath id="51b13aae51"><path d="M 70 69 L 85 69 L 85 91 L 70 91 Z M 70 69 " clip-rule="nonzero"/></clipPath><clipPath id="ef076f26d0"><path d="M 234.097656 183.8125 L 36.84375 222.445312 L 1.097656 39.910156 L 198.347656 1.28125 Z M 234.097656 183.8125 " clip-rule="nonzero"/></clipPath><clipPath id="2f76178ccb"><path d="M 234.097656 183.8125 L 36.84375 222.445312 L 1.097656 39.910156 L 198.347656 1.28125 Z M 234.097656 183.8125 " clip-rule="nonzero"/></clipPath><clipPath id="d8148a89c4"><path d="M 26 82 L 39 82 L 39 103 L 26 103 Z M 26 82 " clip-rule="nonzero"/></clipPath><clipPath id="d9b840861d"><path d="M 234.097656 183.8125 L 36.84375 222.445312 L 1.097656 39.910156 L 198.347656 1.28125 Z M 234.097656 183.8125 " clip-rule="nonzero"/></clipPath><clipPath id="2478097d70"><path d="M 234.097656 183.8125 L 36.84375 222.445312 L 1.097656 39.910156 L 198.347656 1.28125 Z M 234.097656 183.8125 " clip-rule="nonzero"/></clipPath><clipPath id="b50b42ce36"><path d="M 53 57 L 66 57 L 66 75 L 53 75 Z M 53 57 " clip-rule="nonzero"/></clipPath><clipPath id="34b9bf7daf"><path d="M 234.097656 183.8125 L 36.84375 222.445312 L 1.097656 39.910156 L 198.347656 1.28125 Z M 234.097656 183.8125 " clip-rule="nonzero"/></clipPath><clipPath id="605991cbca"><path d="M 234.097656 183.8125 L 36.84375 222.445312 L 1.097656 39.910156 L 198.347656 1.28125 Z M 234.097656 183.8125 " clip-rule="nonzero"/></clipPath><clipPath id="d6d872093f"><path d="M 100 44 L 114 44 L 114 62 L 100 62 Z M 100 44 " clip-rule="nonzero"/></clipPath><clipPath id="61b322305b"><path d="M 234.097656 183.8125 L 36.84375 222.445312 L 1.097656 39.910156 L 198.347656 1.28125 Z M 234.097656 183.8125 " clip-rule="nonzero"/></clipPath><clipPath id="4268ac6bd5"><path d="M 234.097656 183.8125 L 36.84375 222.445312 L 1.097656 39.910156 L 198.347656 1.28125 Z M 234.097656 183.8125 " clip-rule="nonzero"/></clipPath><clipPath id="ff0eda131c"><path d="M 121 59 L 132 59 L 132 77 L 121 77 Z M 121 59 " clip-rule="nonzero"/></clipPath><clipPath id="7fc5125647"><path d="M 234.097656 183.8125 L 36.84375 222.445312 L 1.097656 39.910156 L 198.347656 1.28125 Z M 234.097656 183.8125 " clip-rule="nonzero"/></clipPath><clipPath id="88788b5e20"><path d="M 234.097656 183.8125 L 36.84375 222.445312 L 1.097656 39.910156 L 198.347656 1.28125 Z M 234.097656 183.8125 " clip-rule="nonzero"/></clipPath><clipPath id="a477cee48f"><path d="M 129 93 L 138 93 L 138 116 L 129 116 Z M 129 93 " clip-rule="nonzero"/></clipPath><clipPath id="2f558c305e"><path d="M 234.097656 183.8125 L 36.84375 222.445312 L 1.097656 39.910156 L 198.347656 1.28125 Z M 234.097656 183.8125 " clip-rule="nonzero"/></clipPath><clipPath id="d38c70c90c"><path d="M 234.097656 183.8125 L 36.84375 222.445312 L 1.097656 39.910156 L 198.347656 1.28125 Z M 234.097656 183.8125 " clip-rule="nonzero"/></clipPath><clipPath id="c4644a274e"><path d="M 100 123 L 109 123 L 109 142 L 100 142 Z M 100 123 " clip-rule="nonzero"/></clipPath><clipPath id="8f4d577343"><path d="M 234.097656 183.8125 L 36.84375 222.445312 L 1.097656 39.910156 L 198.347656 1.28125 Z M 234.097656 183.8125 " clip-rule="nonzero"/></clipPath><clipPath id="4fe6de5a0c"><path d="M 234.097656 183.8125 L 36.84375 222.445312 L 1.097656 39.910156 L 198.347656 1.28125 Z M 234.097656 183.8125 " clip-rule="nonzero"/></clipPath><clipPath id="4ab08b4c1d"><path d="M 82 161 L 89 161 L 89 181 L 82 181 Z M 82 161 " clip-rule="nonzero"/></clipPath><clipPath id="e12cdb175e"><path d="M 234.097656 183.8125 L 36.84375 222.445312 L 1.097656 39.910156 L 198.347656 1.28125 Z M 234.097656 183.8125 " clip-rule="nonzero"/></clipPath><clipPath id="df7a8413f1"><path d="M 234.097656 183.8125 L 36.84375 222.445312 L 1.097656 39.910156 L 198.347656 1.28125 Z M 234.097656 183.8125 " clip-rule="nonzero"/></clipPath><clipPath id="8eeda2bbc6"><path d="M 58 170 L 66 170 L 66 189 L 58 189 Z M 58 170 " clip-rule="nonzero"/></clipPath><clipPath id="631369a1a3"><path d="M 234.097656 183.8125 L 36.84375 222.445312 L 1.097656 39.910156 L 198.347656 1.28125 Z M 234.097656 183.8125 " clip-rule="nonzero"/></clipPath><clipPath id="b546bdec0a"><path d="M 234.097656 183.8125 L 36.84375 222.445312 L 1.097656 39.910156 L 198.347656 1.28125 Z M 234.097656 183.8125 " clip-rule="nonzero"/></clipPath><clipPath id="c475b04c93"><path d="M 72 132 L 82 132 L 82 152 L 72 152 Z M 72 132 " clip-rule="nonzero"/></clipPath><clipPath id="4b635ba963"><path d="M 234.097656 183.8125 L 36.84375 222.445312 L 1.097656 39.910156 L 198.347656 1.28125 Z M 234.097656 183.8125 " clip-rule="nonzero"/></clipPath><clipPath id="f2086b43d1"><path d="M 234.097656 183.8125 L 36.84375 222.445312 L 1.097656 39.910156 L 198.347656 1.28125 Z M 234.097656 183.8125 " clip-rule="nonzero"/></clipPath><clipPath id="227dd5b9c0"><path d="M 43 146 L 53 146 L 53 161 L 43 161 Z M 43 146 " clip-rule="nonzero"/></clipPath><clipPath id="21b3aecf72"><path d="M 234.097656 183.8125 L 36.84375 222.445312 L 1.097656 39.910156 L 198.347656 1.28125 Z M 234.097656 183.8125 " clip-rule="nonzero"/></clipPath><clipPath id="a422bdf3b6"><path d="M 234.097656 183.8125 L 36.84375 222.445312 L 1.097656 39.910156 L 198.347656 1.28125 Z M 234.097656 183.8125 " clip-rule="nonzero"/></clipPath><clipPath id="425a6e538f"><path d="M 84 25 L 103 25 L 103 40 L 84 40 Z M 84 25 " clip-rule="nonzero"/></clipPath><clipPath id="34ff5ba99f"><path d="M 234.097656 183.8125 L 36.84375 222.445312 L 1.097656 39.910156 L 198.347656 1.28125 Z M 234.097656 183.8125 " clip-rule="nonzero"/></clipPath><clipPath id="7c2e767e4d"><path d="M 234.097656 183.8125 L 36.84375 222.445312 L 1.097656 39.910156 L 198.347656 1.28125 Z M 234.097656 183.8125 " clip-rule="nonzero"/></clipPath><clipPath id="9ed1f667a6"><path d="M 128 12 L 147 12 L 147 24 L 128 24 Z M 128 12 " clip-rule="nonzero"/></clipPath><clipPath id="be3bd0d5ec"><path d="M 234.097656 183.8125 L 36.84375 222.445312 L 1.097656 39.910156 L 198.347656 1.28125 Z M 234.097656 183.8125 " clip-rule="nonzero"/></clipPath><clipPath id="4a7e0587ca"><path d="M 234.097656 183.8125 L 36.84375 222.445312 L 1.097656 39.910156 L 198.347656 1.28125 Z M 234.097656 183.8125 " clip-rule="nonzero"/></clipPath><clipPath id="3c3ac5109d"><path d="M 143 27 L 163 27 L 163 39 L 143 39 Z M 143 27 " clip-rule="nonzero"/></clipPath><clipPath id="b45325e9ba"><path d="M 234.097656 183.8125 L 36.84375 222.445312 L 1.097656 39.910156 L 198.347656 1.28125 Z M 234.097656 183.8125 " clip-rule="nonzero"/></clipPath><clipPath id="278a132656"><path d="M 234.097656 183.8125 L 36.84375 222.445312 L 1.097656 39.910156 L 198.347656 1.28125 Z M 234.097656 183.8125 " clip-rule="nonzero"/></clipPath><clipPath id="c07da5c958"><path d="M 167 35 L 181 35 L 181 51 L 167 51 Z M 167 35 " clip-rule="nonzero"/></clipPath><clipPath id="ff1f9d1c4b"><path d="M 234.097656 183.8125 L 36.84375 222.445312 L 1.097656 39.910156 L 198.347656 1.28125 Z M 234.097656 183.8125 " clip-rule="nonzero"/></clipPath><clipPath id="85fedcb015"><path d="M 234.097656 183.8125 L 36.84375 222.445312 L 1.097656 39.910156 L 198.347656 1.28125 Z M 234.097656 183.8125 " clip-rule="nonzero"/></clipPath><clipPath id="04f90acc10"><path d="M 121 136 L 129 136 L 129 155 L 121 155 Z M 121 136 " clip-rule="nonzero"/></clipPath><clipPath id="8a1af3a37b"><path d="M 234.097656 183.8125 L 36.84375 222.445312 L 1.097656 39.910156 L 198.347656 1.28125 Z M 234.097656 183.8125 " clip-rule="nonzero"/></clipPath><clipPath id="9c45357c68"><path d="M 234.097656 183.8125 L 36.84375 222.445312 L 1.097656 39.910156 L 198.347656 1.28125 Z M 234.097656 183.8125 " clip-rule="nonzero"/></clipPath><clipPath id="cf3e076b03"><path d="M 110 165 L 122 165 L 122 182 L 110 182 Z M 110 165 " clip-rule="nonzero"/></clipPath><clipPath id="375d94a3d1"><path d="M 234.097656 183.8125 L 36.84375 222.445312 L 1.097656 39.910156 L 198.347656 1.28125 Z M 234.097656 183.8125 " clip-rule="nonzero"/></clipPath><clipPath id="43f99f4019"><path d="M 234.097656 183.8125 L 36.84375 222.445312 L 1.097656 39.910156 L 198.347656 1.28125 Z M 234.097656 183.8125 " clip-rule="nonzero"/></clipPath><clipPath id="704a1f89d9"><path d="M 87 197 L 104 197 L 104 210 L 87 210 Z M 87 197 " clip-rule="nonzero"/></clipPath><clipPath id="a64404a9f3"><path d="M 234.097656 183.8125 L 36.84375 222.445312 L 1.097656 39.910156 L 198.347656 1.28125 Z M 234.097656 183.8125 " clip-rule="nonzero"/></clipPath><clipPath id="ef70b87f27"><path d="M 234.097656 183.8125 L 36.84375 222.445312 L 1.097656 39.910156 L 198.347656 1.28125 Z M 234.097656 183.8125 " clip-rule="nonzero"/></clipPath><clipPath id="4054681e25"><path d="M 25 158 L 35 158 L 35 177 L 25 177 Z M 25 158 " clip-rule="nonzero"/></clipPath><clipPath id="d7342aa31c"><path d="M 234.097656 183.8125 L 36.84375 222.445312 L 1.097656 39.910156 L 198.347656 1.28125 Z M 234.097656 183.8125 " clip-rule="nonzero"/></clipPath><clipPath id="c656a4d945"><path d="M 234.097656 183.8125 L 36.84375 222.445312 L 1.097656 39.910156 L 198.347656 1.28125 Z M 234.097656 183.8125 " clip-rule="nonzero"/></clipPath><clipPath id="26fabd44b3"><path d="M 21 120 L 30 120 L 30 139 L 21 139 Z M 21 120 " clip-rule="nonzero"/></clipPath><clipPath id="f122e1d4b4"><path d="M 234.097656 183.8125 L 36.84375 222.445312 L 1.097656 39.910156 L 198.347656 1.28125 Z M 234.097656 183.8125 " clip-rule="nonzero"/></clipPath><clipPath id="2e8c864946"><path d="M 234.097656 183.8125 L 36.84375 222.445312 L 1.097656 39.910156 L 198.347656 1.28125 Z M 234.097656 183.8125 " clip-rule="nonzero"/></clipPath><clipPath id="1d3bb09d6a"><path d="M 89 91 L 102 91 L 102 112 L 89 112 Z M 89 91 " clip-rule="nonzero"/></clipPath><clipPath id="b66a956c53"><path d="M 234.097656 183.8125 L 36.84375 222.445312 L 1.097656 39.910156 L 198.347656 1.28125 Z M 234.097656 183.8125 " clip-rule="nonzero"/></clipPath><clipPath id="deafff2274"><path d="M 234.097656 183.8125 L 36.84375 222.445312 L 1.097656 39.910156 L 198.347656 1.28125 Z M 234.097656 183.8125 " clip-rule="nonzero"/></clipPath><clipPath id="3dd69e88bb"><path d="M 54 108 L 62 108 L 62 128 L 54 128 Z M 54 108 " clip-rule="nonzero"/></clipPath><clipPath id="9536317702"><path d="M 234.097656 183.8125 L 36.84375 222.445312 L 1.097656 39.910156 L 198.347656 1.28125 Z M 234.097656 183.8125 " clip-rule="nonzero"/></clipPath><clipPath id="8d5e2b42a5"><path d="M 234.097656 183.8125 L 36.84375 222.445312 L 1.097656 39.910156 L 198.347656 1.28125 Z M 234.097656 183.8125 " clip-rule="nonzero"/></clipPath><clipPath id="e38896ef92"><path d="M 144 62 L 157 62 L 157 75 L 144 75 Z M 144 62 " clip-rule="nonzero"/></clipPath><clipPath id="4da8bb665a"><path d="M 234.097656 183.8125 L 36.84375 222.445312 L 1.097656 39.910156 L 198.347656 1.28125 Z M 234.097656 183.8125 " clip-rule="nonzero"/></clipPath><clipPath id="211ac30f1a"><path d="M 234.097656 183.8125 L 36.84375 222.445312 L 1.097656 39.910156 L 198.347656 1.28125 Z M 234.097656 183.8125 " clip-rule="nonzero"/></clipPath><clipPath id="47a79cfc1a"><path d="M 54 199 L 70 199 L 70 211 L 54 211 Z M 54 199 " clip-rule="nonzero"/></clipPath><clipPath id="1b01187fee"><path d="M 234.097656 183.8125 L 36.84375 222.445312 L 1.097656 39.910156 L 198.347656 1.28125 Z M 234.097656 183.8125 " clip-rule="nonzero"/></clipPath><clipPath id="2580019d2c"><path d="M 234.097656 183.8125 L 36.84375 222.445312 L 1.097656 39.910156 L 198.347656 1.28125 Z M 234.097656 183.8125 " clip-rule="nonzero"/></clipPath><clipPath id="0752eb455a"><rect x="0" width="181" y="0" height="223"/></clipPath><mask id="b2477fae2a"><g filter="url(#3e2fdd3d98)"><rect x="-144" width="1728" fill="#000000" y="-80.999999" height="971.999992" fill-opacity="0.698"/></g></mask><clipPath id="8ea04270a0"><path d="M 0 6 L 239 6 L 239 182 L 0 182 Z M 0 6 " clip-rule="nonzero"/></clipPath><clipPath id="477647757c"><path d="M 53.121094 239.710938 L 0.0585938 6.421875 L 278.691406 -56.953125 L 331.753906 176.339844 Z M 53.121094 239.710938 " clip-rule="nonzero"/></clipPath><clipPath id="564a7839a3"><path d="M 278.441406 -57.160156 L 331.503906 176.132812 L 52.867188 239.503906 L -0.191406 6.214844 Z M 278.441406 -57.160156 " clip-rule="nonzero"/></clipPath><clipPath id="b1732ada7d"><path d="M 237 103 L 331.679688 103 L 331.679688 196 L 237 196 Z M 237 103 " clip-rule="nonzero"/></clipPath><clipPath id="25e3e523d5"><path d="M 53.121094 239.710938 L 0.0585938 6.421875 L 278.691406 -56.953125 L 331.753906 176.339844 Z M 53.121094 239.710938 " clip-rule="nonzero"/></clipPath><clipPath id="407d346c21"><path d="M 278.441406 -57.160156 L 331.503906 176.132812 L 52.867188 239.503906 L -0.191406 6.214844 Z M 278.441406 -57.160156 " clip-rule="nonzero"/></clipPath><clipPath id="1bd62adf44"><rect x="0" width="332" y="0" height="240"/></clipPath><mask id="66b674162e"><g filter="url(#3e2fdd3d98)"><rect x="-144" width="1728" fill="#000000" y="-80.999999" height="971.999992" fill-opacity="0.698"/></g></mask><clipPath id="a8134f65df"><path d="M 0 1 L 309 1 L 309 309 L 0 309 Z M 0 1 " clip-rule="nonzero"/></clipPath><clipPath id="185c688da3"><path d="M -18.378906 1 L 331.476562 37.441406 L 303.117188 309.71875 L -46.742188 273.277344 Z M -18.378906 1 " clip-rule="nonzero"/></clipPath><clipPath id="906249d5e1"><path d="M 303.214844 309.550781 L -46.640625 273.109375 L -18.28125 0.832031 L 331.574219 37.277344 Z M 303.214844 309.550781 " clip-rule="nonzero"/></clipPath><clipPath id="358b819450"><rect x="0" width="333" y="0" height="310"/></clipPath><mask id="dd8e93df9f"><g filter="url(#3e2fdd3d98)"><rect x="-144" width="1728" fill="#000000" y="-80.999999" height="971.999992" fill-opacity="0.698"/></g></mask><clipPath id="3f4930e5e2"><path d="M 5 7 L 32 7 L 32 29 L 5 29 Z M 5 7 " clip-rule="nonzero"/></clipPath><clipPath id="c0fb489a64"><path d="M 8.691406 0.78125 L 69.96875 11.730469 L 62.054688 56.03125 L 0.777344 45.082031 Z M 8.691406 0.78125 " clip-rule="nonzero"/></clipPath><clipPath id="bcc682d397"><path d="M 8.691406 0.78125 L 69.96875 11.730469 L 62.054688 56.03125 L 0.777344 45.082031 Z M 8.691406 0.78125 " clip-rule="nonzero"/></clipPath><clipPath id="d6ed34cba5"><path d="M 46 9 L 69 9 L 69 29 L 46 29 Z M 46 9 " clip-rule="nonzero"/></clipPath><clipPath id="e4d3baded3"><path d="M 8.691406 0.78125 L 69.96875 11.730469 L 62.054688 56.03125 L 0.777344 45.082031 Z M 8.691406 0.78125 " clip-rule="nonzero"/></clipPath><clipPath id="3ba8ce04ad"><path d="M 8.691406 0.78125 L 69.96875 11.730469 L 62.054688 56.03125 L 0.777344 45.082031 Z M 8.691406 0.78125 " clip-rule="nonzero"/></clipPath><clipPath id="6ef5aebf17"><path d="M 22 23 L 57 23 L 57 52 L 22 52 Z M 22 23 " clip-rule="nonzero"/></clipPath><clipPath id="bbacba1bf4"><path d="M 8.691406 0.78125 L 69.96875 11.730469 L 62.054688 56.03125 L 0.777344 45.082031 Z M 8.691406 0.78125 " clip-rule="nonzero"/></clipPath><clipPath id="c107b06ec7"><path d="M 8.691406 0.78125 L 69.96875 11.730469 L 62.054688 56.03125 L 0.777344 45.082031 Z M 8.691406 0.78125 " clip-rule="nonzero"/></clipPath><clipPath id="86a508a7dc"><rect x="0" width="70" y="0" height="57"/></clipPath><mask id="fbefa44f37"><g filter="url(#3e2fdd3d98)"><rect x="-144" width="1728" fill="#000000" y="-80.999999" height="971.999992" fill-opacity="0.698"/></g></mask><clipPath id="1b85b1d159"><path d="M 2 10 L 84 10 L 84 115 L 2 115 Z M 2 10 " clip-rule="nonzero"/></clipPath><clipPath id="d336b0d395"><path d="M 96.097656 105.109375 L 71.304688 122 L -0.0585938 17.25 L 24.734375 0.355469 Z M 96.097656 105.109375 " clip-rule="nonzero"/></clipPath><clipPath id="0130a146c9"><path d="M 96.097656 105.109375 L 71.304688 122 L -0.0585938 17.25 L 24.734375 0.355469 Z M 96.097656 105.109375 " clip-rule="nonzero"/></clipPath><clipPath id="03b08b0c08"><rect x="0" width="95" y="0" height="120"/></clipPath><mask id="f3a69ca340"><g filter="url(#3e2fdd3d98)"><rect x="-144" width="1728" fill="#000000" y="-80.999999" height="971.999992" fill-opacity="0.698"/></g></mask><clipPath id="c471ad8bae"><path d="M 1 1.167969 L 35 1.167969 L 35 32.667969 L 1 32.667969 Z M 1 1.167969 " clip-rule="nonzero"/></clipPath><clipPath id="af0bbe3280"><rect x="0" width="37" y="0" height="34"/></clipPath><mask id="19a2eb0abb"><g filter="url(#3e2fdd3d98)"><rect x="-144" width="1728" fill="#000000" y="-80.999999" height="971.999992" fill-opacity="0.698"/></g></mask><clipPath id="f22f11428d"><path d="M 1 0.160156 L 30 0.160156 L 30 28 L 1 28 Z M 1 0.160156 " clip-rule="nonzero"/></clipPath><clipPath id="b0aec8fb28"><rect x="0" width="31" y="0" height="28"/></clipPath><mask id="4cca1ca4f9"><g filter="url(#3e2fdd3d98)"><rect x="-144" width="1728" fill="#000000" y="-80.999999" height="971.999992" fill-opacity="0.698"/></g></mask><clipPath id="c3c714e815"><rect x="0" width="39" y="0" height="39"/></clipPath><mask id="f358c08b12"><g filter="url(#3e2fdd3d98)"><rect x="-144" width="1728" fill="#000000" y="-80.999999" height="971.999992" fill-opacity="0.698"/></g></mask><clipPath id="1da7ec2bd9"><path d="M 1 0.648438 L 35 0.648438 L 35 32.898438 L 1 32.898438 Z M 1 0.648438 " clip-rule="nonzero"/></clipPath><clipPath id="62dd2e6d99"><rect x="0" width="37" y="0" height="33"/></clipPath><mask id="585b8ec815"><g filter="url(#3e2fdd3d98)"><rect x="-144" width="1728" fill="#000000" y="-80.999999" height="971.999992" fill-opacity="0.698"/></g></mask><clipPath id="bcf46ee277"><path d="M 1 0.324219 L 35 0.324219 L 35 32.574219 L 1 32.574219 Z M 1 0.324219 " clip-rule="nonzero"/></clipPath><clipPath id="e4fab3dba6"><rect x="0" width="37" y="0" height="33"/></clipPath><mask id="15aa704ae1"><g filter="url(#3e2fdd3d98)"><rect x="-144" width="1728" fill="#000000" y="-80.999999" height="971.999992" fill-opacity="0.698"/></g></mask><clipPath id="b6c720af21"><path d="M 0.523438 0.226562 L 37.839844 0.226562 L 37.839844 37.71875 L 0.523438 37.71875 Z M 0.523438 0.226562 " clip-rule="nonzero"/></clipPath><clipPath id="ca3556d88e"><rect x="0" width="38" y="0" height="38"/></clipPath></defs><rect x="-144" width="1728" fill="#ffffff" y="-80.999999" height="971.999992" fill-opacity="1"/><rect x="-144" width="1728" fill="#ffffff" y="-80.999999" height="971.999992" fill-opacity="1"/><rect x="-144" width="1728" fill="#ffffff" y="-80.999999" height="971.999992" fill-opacity="1"/><g mask="url(#d5351fd1c5)"><g transform="matrix(1, 0, 0, 1, 1101, 484)"><g clip-path="url(#b02de06eff)"><g clip-path="url(#59b336d81b)"><path fill="#ffb8c6" d="M 69.773438 68.417969 C 69.308594 68.417969 68.847656 68.417969 68.5 68.417969 C 67.570312 68.304688 66.644531 68.1875 65.71875 67.839844 C 65.71875 67.726562 65.601562 67.726562 65.488281 67.609375 C 65.023438 67.378906 64.558594 67.261719 64.097656 67.148438 C 62.011719 66.105469 60.273438 64.488281 59.460938 62.292969 C 57.957031 58.128906 57.609375 53.503906 57.609375 49.113281 C 57.609375 47.957031 55.753906 47.957031 55.753906 49.113281 C 55.753906 50.730469 55.871094 52.347656 55.988281 54.082031 C 55.871094 54.660156 55.753906 55.355469 55.640625 55.933594 C 55.175781 58.015625 54.714844 60.324219 53.671875 62.175781 C 52.511719 64.140625 50.773438 65.992188 48.574219 66.800781 C 46.71875 67.609375 44.75 67.726562 42.78125 68.070312 C 41.96875 68.1875 42.203125 69.574219 43.011719 69.574219 C 46.835938 69.574219 50.660156 70.039062 52.628906 73.621094 C 53.554688 75.355469 54.480469 77.203125 54.945312 79.054688 C 55.523438 81.136719 55.753906 83.332031 55.871094 85.527344 C 55.871094 86.570312 55.871094 87.496094 55.988281 88.535156 C 55.988281 89.460938 57.492188 89.460938 57.492188 88.535156 C 57.492188 86.800781 57.492188 85.066406 57.378906 83.332031 C 57.378906 80.671875 57.726562 77.898438 58.882812 75.472656 C 59.808594 73.390625 61.316406 71.539062 63.402344 70.730469 C 65.371094 70.039062 67.6875 70.269531 69.773438 70.152344 C 70.929688 70.269531 70.929688 68.417969 69.773438 68.417969 Z M 57.609375 61.828125 C 57.492188 61.828125 57.492188 61.828125 57.609375 61.828125 C 57.492188 61.714844 57.492188 61.597656 57.492188 61.597656 C 57.492188 61.597656 57.492188 61.714844 57.609375 61.828125 Z M 52.976562 66.335938 C 52.976562 66.335938 52.859375 66.222656 52.859375 66.222656 C 52.976562 66.105469 52.976562 66.105469 53.089844 65.992188 C 53.089844 66.105469 53.089844 66.222656 52.976562 66.335938 Z M 49.617188 68.648438 C 49.617188 68.765625 49.5 68.882812 49.5 68.996094 C 49.152344 68.882812 48.921875 68.765625 48.574219 68.648438 C 48.921875 68.648438 49.269531 68.648438 49.617188 68.648438 Z M 57.378906 74.546875 C 57.492188 74.546875 57.492188 74.546875 57.492188 74.546875 C 57.378906 74.660156 57.378906 74.894531 57.261719 75.007812 C 57.378906 74.777344 57.378906 74.660156 57.378906 74.546875 Z M 63.402344 68.765625 C 63.402344 68.648438 63.515625 68.765625 63.515625 68.765625 C 63.515625 68.765625 63.515625 68.765625 63.402344 68.765625 Z M 7.796875 17.089844 C 9.417969 20.09375 9.765625 23.101562 9.882812 26.335938 C 9.882812 27.261719 11.386719 27.261719 11.386719 26.335938 C 11.386719 25.296875 11.386719 24.371094 11.273438 23.445312 C 11.273438 21.710938 11.386719 19.980469 12.082031 18.359375 C 12.660156 16.972656 13.589844 15.699219 14.980469 15.125 C 16.253906 14.660156 17.644531 14.777344 18.917969 14.777344 C 20.074219 14.777344 20.074219 13.042969 18.917969 13.042969 C 18.570312 13.042969 18.222656 13.042969 17.875 13.042969 C 15.558594 12.8125 13.355469 11.539062 12.546875 9.113281 C 11.734375 6.566406 11.503906 3.679688 11.503906 1.019531 C 11.503906 -0.136719 9.648438 -0.136719 9.648438 1.019531 C 9.648438 2.289062 9.765625 3.5625 9.882812 4.832031 C 9.648438 6.335938 9.1875 7.839844 8.492188 9.226562 C 6.984375 12 4.4375 12.578125 1.65625 13.042969 C 0.84375 13.15625 1.078125 14.429688 1.886719 14.546875 C 4.207031 14.429688 6.636719 14.777344 7.796875 17.089844 Z M 11.621094 11.421875 C 11.621094 11.308594 11.621094 11.191406 11.621094 10.960938 C 11.734375 11.078125 11.734375 11.191406 11.851562 11.308594 C 11.734375 11.308594 11.734375 11.421875 11.621094 11.421875 Z M 10.691406 8.648438 C 10.578125 8.648438 10.578125 8.765625 10.578125 8.765625 C 10.578125 8.648438 10.691406 8.535156 10.691406 8.417969 C 10.578125 8.535156 10.691406 8.535156 10.691406 8.648438 Z M 6.636719 13.273438 C 6.636719 13.503906 6.871094 13.851562 7.101562 13.96875 C 6.753906 13.734375 6.40625 13.621094 6.058594 13.503906 C 6.40625 13.390625 6.523438 13.390625 6.636719 13.273438 Z M 51.355469 25.179688 C 53.324219 25.179688 55.292969 25.414062 56.335938 27.378906 C 57.726562 29.921875 57.957031 32.464844 58.074219 35.238281 C 58.074219 36.164062 59.578125 36.164062 59.578125 35.238281 C 59.578125 34.3125 59.578125 33.503906 59.460938 32.578125 C 59.460938 31.078125 59.578125 29.691406 60.15625 28.300781 C 60.621094 27.261719 61.433594 26.222656 62.476562 25.757812 C 63.515625 25.414062 64.792969 25.527344 65.835938 25.414062 C 66.992188 25.414062 66.992188 23.679688 65.835938 23.679688 C 65.488281 23.679688 65.253906 23.679688 64.90625 23.679688 C 62.9375 23.445312 61.199219 22.40625 60.503906 20.441406 C 59.808594 18.246094 59.578125 15.816406 59.695312 13.503906 C 59.695312 12.347656 57.839844 12.347656 57.839844 13.503906 C 57.839844 14.546875 57.957031 15.699219 58.074219 16.855469 C 57.839844 18.128906 57.378906 19.402344 56.796875 20.441406 C 55.523438 22.753906 53.4375 23.101562 51.121094 23.5625 C 50.3125 23.910156 50.542969 25.179688 51.355469 25.179688 Z M 59.695312 25.757812 C 59.808594 25.757812 59.925781 25.644531 60.042969 25.644531 C 59.925781 25.757812 59.808594 25.875 59.695312 25.992188 C 59.695312 25.875 59.695312 25.757812 59.695312 25.757812 Z M 59.578125 22.289062 C 59.578125 22.289062 59.578125 22.175781 59.578125 22.175781 C 59.578125 22.289062 59.695312 22.289062 59.578125 22.289062 C 59.695312 22.289062 59.578125 22.289062 59.578125 22.289062 Z M 58.769531 21.019531 C 58.769531 21.019531 58.652344 20.902344 58.769531 21.019531 C 58.652344 20.902344 58.769531 20.789062 58.769531 20.671875 C 58.769531 20.671875 58.769531 20.902344 58.769531 21.019531 Z M 57.492188 26.105469 C 57.609375 26.105469 57.609375 26.105469 57.726562 26.105469 C 57.726562 26.222656 57.726562 26.453125 57.839844 26.566406 C 57.839844 26.453125 57.726562 26.335938 57.726562 26.335938 C 57.609375 26.222656 57.492188 26.105469 57.492188 26.105469 Z M 15.90625 65.414062 C 15.210938 65.414062 14.398438 65.414062 13.703125 65.644531 C 13.007812 65.875 12.546875 66.453125 12.3125 67.148438 C 11.964844 67.957031 11.851562 68.882812 11.851562 69.691406 C 11.964844 70.382812 11.964844 70.960938 11.964844 71.65625 C 11.964844 72.582031 10.460938 72.582031 10.460938 71.65625 C 10.460938 69.804688 10.230469 68.070312 9.300781 66.453125 C 8.722656 65.296875 7.449219 65.183594 6.175781 65.066406 C 5.363281 65.066406 5.132812 63.792969 5.941406 63.5625 C 7.449219 63.332031 8.839844 63.101562 9.648438 61.597656 C 9.996094 60.902344 10.34375 60.210938 10.460938 59.402344 C 10.34375 58.59375 10.34375 57.78125 10.34375 56.972656 C 10.34375 55.816406 12.199219 55.816406 12.199219 56.972656 C 12.199219 58.476562 12.3125 60.09375 12.777344 61.597656 C 13.125 62.753906 14.167969 63.449219 15.328125 63.5625 C 15.558594 63.5625 15.789062 63.5625 16.136719 63.5625 C 16.949219 63.679688 16.949219 65.527344 15.90625 65.414062 Z M 48.804688 41.714844 C 49.617188 41.714844 50.542969 41.714844 51.355469 41.714844 C 52.511719 41.714844 52.511719 39.980469 51.355469 39.980469 C 50.773438 39.980469 50.195312 39.980469 49.617188 39.980469 C 43.707031 39.632812 37.566406 36.394531 35.367188 30.730469 C 32.933594 24.257812 32.355469 16.855469 32.355469 9.921875 C 32.355469 8.765625 30.5 8.765625 30.5 9.921875 C 30.5 12 30.617188 14.199219 30.847656 16.277344 C 30.734375 17.78125 30.5 19.285156 30.152344 20.789062 C 29.574219 23.910156 28.765625 27.378906 27.257812 30.152344 C 25.519531 33.273438 22.738281 36.046875 19.496094 37.4375 C 16.601562 38.707031 13.355469 38.9375 10.230469 39.402344 C 9.417969 39.515625 9.648438 40.902344 10.460938 40.902344 C 15.09375 40.902344 20.886719 41.25 24.128906 45.066406 C 25.171875 46.335938 25.867188 47.839844 26.5625 49.226562 C 27.835938 51.886719 28.996094 54.546875 29.691406 57.4375 C 30.269531 59.863281 30.5 62.40625 30.617188 64.835938 C 30.617188 66.683594 30.734375 68.535156 30.734375 70.382812 C 30.734375 71.308594 32.238281 71.308594 32.238281 70.382812 C 32.238281 67.839844 32.238281 65.296875 32.007812 62.753906 C 32.007812 61.945312 32.007812 61.25 32.125 60.441406 C 32.585938 56.164062 34.207031 52.117188 36.527344 48.417969 C 37.914062 46.335938 39.421875 44.488281 41.738281 43.332031 C 43.824219 42.523438 46.257812 42.058594 48.804688 41.714844 C 48.6875 41.714844 48.804688 41.714844 48.804688 41.714844 Z M 33.746094 42.871094 C 33.746094 42.871094 33.859375 42.984375 33.859375 42.984375 C 33.859375 43.101562 33.746094 43.101562 33.746094 43.214844 C 33.746094 43.101562 33.746094 42.984375 33.746094 42.871094 Z M 31.777344 52.117188 C 31.777344 52.117188 31.777344 52.003906 31.777344 52.003906 C 31.777344 51.539062 31.777344 51.191406 31.777344 50.730469 C 31.890625 50.730469 32.007812 50.730469 32.238281 50.730469 C 32.125 51.191406 31.890625 51.65625 31.777344 52.117188 Z M 41.160156 40.558594 C 41.390625 40.558594 41.621094 40.558594 41.855469 40.558594 C 41.507812 40.671875 41.042969 40.789062 40.695312 40.902344 C 40.347656 41.019531 40.117188 41.136719 39.886719 41.25 C 40.234375 41.019531 40.695312 40.789062 41.160156 40.558594 Z M 31.542969 22.058594 C 31.542969 21.945312 31.429688 21.945312 31.429688 21.945312 C 31.429688 21.710938 31.429688 21.597656 31.542969 21.367188 C 31.429688 21.597656 31.542969 21.828125 31.542969 22.058594 Z M 19.148438 39.402344 C 19.03125 39.402344 19.03125 39.402344 18.917969 39.402344 C 19.03125 39.402344 19.03125 39.285156 19.148438 39.402344 C 19.148438 39.285156 19.148438 39.402344 19.148438 39.402344 Z M 19.148438 39.402344 " fill-opacity="1" fill-rule="nonzero"/></g></g></g></g><g mask="url(#c0f8b51888)"><g transform="matrix(1, 0, 0, 1, 0, 306)"><g clip-path="url(#4b6d7f2c25)"><g clip-path="url(#349aae7b31)"><g clip-path="url(#c88af404f8)"><g clip-path="url(#4d52e40b77)"><path fill="#d0c3f1" d="M 3.582031 92.753906 C 0.546875 90.621094 -1.808594 87.878906 -3.320312 84.464844 C -4.738281 81.25 -4.015625 78.273438 -1.382812 75.878906 C 2.121094 72.648438 6.863281 72.117188 11.050781 73.785156 C 11.964844 74.402344 12.992188 74.914062 14.078125 75.335938 C 16.804688 76.417969 18.714844 72.335938 16.316406 70.769531 C 15.402344 70.152344 14.429688 69.628906 13.390625 69.195312 C 11.027344 67.511719 9.574219 64.9375 9.246094 61.875 C 8.871094 58.296875 10.175781 54.382812 13.144531 52.214844 C 15.527344 50.449219 18.578125 50.195312 21.398438 50.675781 C 21.429688 50.699219 21.480469 50.6875 21.558594 50.699219 C 22.460938 51.660156 23.476562 52.519531 24.59375 53.230469 C 26.257812 54.308594 28.632812 55.773438 30.667969 54.925781 C 31.820312 54.460938 32.164062 53.230469 32.078125 52.105469 C 31.929688 49.832031 28.210938 47.859375 26.535156 46.996094 C 25.804688 46.636719 25.113281 46.347656 24.429688 46.109375 C 23.710938 45.136719 23.160156 44.054688 22.777344 42.910156 C 21.6875 39.601562 22.214844 36.054688 24.433594 33.421875 C 27.851562 29.335938 33.253906 29.207031 37.910156 30.835938 C 39.261719 31.789062 40.773438 32.5 42.371094 32.953125 C 45.058594 33.699219 47.21875 29.964844 44.609375 28.386719 C 43.320312 27.605469 41.988281 26.886719 40.636719 26.328125 C 38.222656 24.257812 37.558594 20.972656 39.476562 17.605469 C 42.160156 13.027344 47.542969 11.152344 52.367188 13.914062 C 54.1875 14.960938 56.0625 12.898438 54.800781 11.160156 C 49.421875 3.765625 38.804688 8.546875 35.097656 15.097656 C 33.398438 18.082031 32.664062 21.535156 33.542969 24.832031 C 33.035156 24.800781 32.503906 24.796875 31.984375 24.847656 C 26.796875 25.121094 21.816406 27.578125 19.109375 32.1875 C 16.761719 36.195312 16.570312 41.082031 18.199219 45.371094 C 15.179688 45.511719 12.269531 46.480469 9.824219 48.335938 C 5.390625 51.691406 3.585938 57.53125 4.226562 62.886719 C 4.429688 64.621094 4.910156 66.273438 5.675781 67.765625 C 1.578125 67.933594 -2.425781 69.539062 -5.484375 72.761719 C -8.90625 76.398438 -10.148438 81.0625 -8.308594 85.761719 C -6.511719 90.390625 -3.285156 94.207031 0.753906 97.015625 C 3.425781 98.902344 6.28125 94.664062 3.582031 92.753906 Z M 27.097656 53.585938 C 27.433594 53.945312 27.226562 54.117188 27.097656 53.585938 Z M 29.484375 50.046875 C 30.207031 49.957031 30.121094 50.34375 29.484375 50.046875 Z M 29.484375 50.046875 " fill-opacity="1" fill-rule="nonzero"/></g></g></g></g></g></g><g mask="url(#9c89cc0c54)"><g transform="matrix(1, 0, 0, 1, 983, 119)"><g clip-path="url(#9c0e911582)"><g clip-path="url(#dfbe2e204f)"><g clip-path="url(#72e59192e2)"><g clip-path="url(#c358122202)"><path fill="#ffcdb6" d="M 41.078125 25.753906 C 41.699219 25.769531 42.21875 25.285156 42.328125 24.679688 C 42.40625 23.976562 41.9375 23.363281 41.234375 23.238281 C 35.800781 22.605469 30.371094 21.96875 24.9375 21.335938 C 25.265625 18.949219 25.550781 16.554688 25.886719 14.121094 C 25.570312 11.570312 24.035156 9.90625 22.863281 9.984375 C 21.644531 10.054688 20.070312 12.125 20.460938 15.070312 C 20.457031 16.988281 20.40625 18.894531 20.398438 20.8125 C 18.039062 20.535156 15.722656 20.265625 13.359375 19.984375 C 12.988281 19.917969 12.425781 19.820312 11.738281 19.886719 C 9.972656 20.050781 7.914062 21.3125 7.8125 22.6875 C 7.761719 24.066406 9.707031 25.851562 12.757812 26.0625 C 15.269531 26.03125 17.785156 26 20.34375 25.980469 C 20.296875 29.757812 20.257812 33.492188 20.253906 37.277344 C 20.289062 37.90625 20.726562 38.417969 21.34375 38.480469 C 22.042969 38.605469 22.667969 38.09375 22.789062 37.394531 C 23.285156 33.550781 23.824219 29.71875 24.308594 25.921875 C 29.914062 25.867188 35.472656 25.804688 41.078125 25.753906 Z M 41.078125 25.753906 " fill-opacity="1" fill-rule="nonzero"/></g></g></g><g clip-path="url(#6907e1989f)"><g clip-path="url(#f0abcf70e7)"><g clip-path="url(#58bf0d17d5)"><path fill="#ffcdb6" d="M 92.929688 26.53125 C 93.050781 25.304688 91.367188 23.949219 89.792969 23.574219 C 89.195312 23.417969 88.710938 23.425781 88.367188 23.460938 C 86.296875 23.425781 84.183594 23.386719 82.117188 23.351562 C 82.320312 21.664062 82.527344 19.972656 82.730469 18.285156 C 83.375 15.761719 82.242188 13.738281 81.167969 13.546875 C 80.183594 13.371094 78.609375 14.625 78.023438 16.820312 C 78.027344 18.976562 78.035156 21.089844 78.035156 23.246094 C 73.179688 23.144531 68.320312 23.09375 63.511719 23 C 62.886719 22.984375 62.40625 23.523438 62.390625 24.144531 C 62.386719 24.71875 62.832031 25.179688 63.347656 25.273438 C 68.234375 26 73.128906 26.683594 78.058594 27.421875 C 78.078125 30.828125 78.089844 34.28125 78.058594 37.679688 C 78.09375 38.308594 78.585938 38.78125 79.210938 38.796875 C 79.742188 38.796875 80.199219 38.398438 80.296875 37.839844 C 80.691406 34.554688 81.09375 31.222656 81.496094 27.890625 C 83.710938 28.191406 85.914062 28.535156 88.128906 28.835938 C 90.929688 29.097656 92.855469 27.761719 92.929688 26.53125 Z M 92.929688 26.53125 " fill-opacity="1" fill-rule="nonzero"/></g></g></g><g clip-path="url(#a53c141a90)"><g clip-path="url(#9150daa597)"><g clip-path="url(#082f8f5690)"><path fill="#ffcdb6" d="M 75.472656 48.386719 C 68.203125 47.761719 60.9375 47.132812 53.671875 46.507812 C 54 43.304688 54.332031 40.105469 54.625 36.851562 C 54.121094 33.453125 51.941406 31.335938 50.429688 31.449219 C 48.8125 31.59375 46.8125 34.398438 47.421875 38.296875 C 47.496094 40.847656 47.523438 43.394531 47.597656 45.949219 C 44.460938 45.675781 41.328125 45.40625 38.191406 45.132812 C 37.679688 45.039062 36.921875 44.953125 36.03125 45.082031 C 33.65625 45.425781 30.929688 47.191406 30.941406 49.015625 C 30.898438 50.875 33.574219 53.175781 37.699219 53.289062 C 41.050781 53.167969 44.40625 53.003906 47.804688 52.890625 C 47.921875 57.898438 48.039062 62.902344 48.148438 67.957031 C 48.195312 68.78125 48.804688 69.417969 49.65625 69.519531 C 50.597656 69.640625 51.441406 68.976562 51.558594 68.039062 C 52.089844 62.910156 52.574219 57.769531 53.097656 52.683594 C 60.53125 52.382812 67.972656 52.035156 75.40625 51.734375 C 76.234375 51.6875 76.925781 51.046875 77.03125 50.199219 C 77.085938 49.347656 76.414062 48.507812 75.472656 48.386719 Z M 75.472656 48.386719 " fill-opacity="1" fill-rule="nonzero"/></g></g></g></g></g></g><g mask="url(#e83d1d0f35)"><g transform="matrix(1, 0, 0, 1, 1259, 251)"><g clip-path="url(#0752eb455a)"><g clip-path="url(#51b13aae51)"><g clip-path="url(#ef076f26d0)"><g clip-path="url(#2f76178ccb)"><path fill="#eddcca" d="M 74.230469 89.742188 C 76.359375 88.101562 77.609375 85.101562 79.324219 82.925781 C 80.273438 81.515625 81.222656 80.105469 81.933594 79.050781 C 82.40625 78.34375 82.585938 77.695312 83.117188 77.285156 C 83.117188 77.285156 84.542969 75.171875 83.476562 75.992188 C 87.4375 72.765625 82.628906 66.972656 78.726562 70.492188 C 77.722656 71.609375 77.304688 72.609375 76.945312 73.902344 C 76.351562 75.550781 75.460938 77.257812 74.511719 78.667969 C 73.5625 80.078125 72.613281 81.488281 72.019531 83.132812 C 71.601562 84.132812 71.300781 85.722656 70.589844 86.78125 C 69.109375 88.601562 72.101562 91.382812 74.230469 89.742188 Z M 74.230469 89.742188 " fill-opacity="1" fill-rule="nonzero"/></g></g></g><g clip-path="url(#d8148a89c4)"><g clip-path="url(#d9b840861d)"><g clip-path="url(#2478097d70)"><path fill="#eddcca" d="M 28.28125 102.109375 C 30.875 101.292969 32.363281 97.941406 33.785156 95.828125 C 34.734375 94.417969 35.625 92.710938 36.574219 91.300781 C 37.285156 90.242188 37.878906 88.59375 38.355469 87.890625 C 39.957031 85.128906 36.140625 81.28125 33.480469 83.335938 C 32.179688 84.507812 32.058594 85.449219 31.464844 87.097656 C 31.105469 88.390625 30.15625 89.800781 29.796875 91.097656 C 28.785156 93.746094 27.886719 96.980469 26.582031 99.6875 C 25.925781 101.039062 26.804688 102.398438 28.28125 102.109375 Z M 28.28125 102.109375 " fill-opacity="1" fill-rule="nonzero"/></g></g></g><g clip-path="url(#b50b42ce36)"><g clip-path="url(#34b9bf7daf)"><g clip-path="url(#605991cbca)"><path fill="#eddcca" d="M 54.261719 73.753906 C 55.320312 74.464844 56.496094 74.234375 57.324219 73.765625 C 59.214844 72.476562 59.992188 70.183594 61.175781 68.421875 C 62.363281 66.65625 63.195312 64.65625 64.378906 62.894531 C 67.046875 59.3125 62.527344 54.992188 59.15625 58.101562 C 57.085938 60.039062 56.007812 63.921875 54.644531 66.332031 C 53.867188 68.628906 51.792969 72.09375 54.261719 73.753906 Z M 54.261719 73.753906 " fill-opacity="1" fill-rule="nonzero"/></g></g></g><g clip-path="url(#d6d872093f)"><g clip-path="url(#61b322305b)"><g clip-path="url(#4268ac6bd5)"><path fill="#eddcca" d="M 103.039062 61.753906 C 105.988281 61.175781 107.710938 57.46875 109.132812 55.355469 C 110.792969 52.886719 112.566406 51.007812 113.523438 48.066406 C 114.597656 44.183594 108.238281 42.976562 107.457031 46.804688 C 106.976562 49.042969 105.441406 50.566406 104.605469 52.566406 C 103.480469 54.625 102.113281 57.035156 101.042969 59.386719 C 100.097656 60.796875 101.5625 62.042969 103.039062 61.753906 Z M 103.039062 61.753906 " fill-opacity="1" fill-rule="nonzero"/></g></g></g><g clip-path="url(#ff0eda131c)"><g clip-path="url(#7fc5125647)"><g clip-path="url(#88788b5e20)"><path fill="#eddcca" d="M 126.199219 75.277344 C 128.867188 71.695312 129.769531 66.925781 131.789062 63.164062 C 132.441406 61.8125 131.445312 59.863281 130.09375 59.207031 C 128.445312 58.613281 126.792969 59.550781 126.140625 60.902344 C 125.011719 62.960938 124.828125 65.136719 123.992188 67.136719 C 123.160156 69.136719 122.089844 71.492188 121.90625 73.671875 C 121.71875 75.847656 124.777344 77.394531 126.199219 75.277344 Z M 126.199219 75.277344 " fill-opacity="1" fill-rule="nonzero"/></g></g></g><g clip-path="url(#a477cee48f)"><g clip-path="url(#2f558c305e)"><g clip-path="url(#d38c70c90c)"><path fill="#eddcca" d="M 133.820312 114.195312 C 134.902344 108.777344 135.984375 103.363281 137.070312 97.945312 C 137.855469 92.585938 129.785156 92.023438 129.882812 97.210938 C 129.875 98.742188 129.519531 100.035156 129.804688 101.511719 C 129.859375 103.335938 129.851562 104.871094 129.902344 106.695312 C 129.832031 109.464844 128.9375 112.703125 131.226562 115.007812 C 131.75 116.128906 133.757812 115.429688 133.820312 114.195312 Z M 133.820312 114.195312 " fill-opacity="1" fill-rule="nonzero"/></g></g></g><g clip-path="url(#c4644a274e)"><g clip-path="url(#8f4d577343)"><g clip-path="url(#4fe6de5a0c)"><path fill="#eddcca" d="M 104.488281 141.0625 C 106.320312 139.480469 106.921875 136.300781 107.050781 133.824219 C 107.472656 131.292969 108.25 129 108.023438 126.289062 C 107.453125 121.808594 100.375 123.195312 101.183594 127.320312 C 101.992188 131.449219 98.730469 136.679688 101.308594 140.460938 C 102.1875 141.820312 103.71875 141.824219 104.488281 141.0625 Z M 104.488281 141.0625 " fill-opacity="1" fill-rule="nonzero"/></g></g></g><g clip-path="url(#4ab08b4c1d)"><g clip-path="url(#e12cdb175e)"><g clip-path="url(#df7a8413f1)"><path fill="#eddcca" d="M 88.488281 178.175781 C 88.546875 178.472656 88.847656 176.882812 88.789062 176.585938 C 88.851562 175.351562 88.917969 174.113281 88.628906 172.636719 C 88.402344 169.925781 88.769531 167.101562 88.542969 164.390625 C 88.382812 160.441406 81.722656 160.828125 82.472656 164.660156 C 82.871094 168.253906 83.210938 171.554688 84.199219 175.035156 C 84.605469 177.101562 84.476562 179.574219 86.769531 180.347656 C 88.125 181.003906 89.015625 179.296875 88.488281 178.175781 Z M 88.488281 178.175781 " fill-opacity="1" fill-rule="nonzero"/></g></g></g><g clip-path="url(#8eeda2bbc6)"><g clip-path="url(#631369a1a3)"><g clip-path="url(#b546bdec0a)"><path fill="#eddcca" d="M 64.351562 187.800781 C 65.945312 186.570312 65.546875 182.976562 65.203125 181.207031 C 65.207031 179.675781 64.917969 178.199219 64.925781 176.667969 C 64.925781 176.667969 64.644531 173.664062 64.695312 175.488281 C 64.578125 174.898438 65.054688 174.195312 65.175781 173.253906 C 65.066406 171.128906 62.1875 168.9375 60.058594 170.582031 C 56.394531 173.746094 59.4375 178.355469 60.484375 182.128906 C 60.421875 183.367188 62.394531 190.328125 64.351562 187.800781 Z M 64.351562 187.800781 " fill-opacity="1" fill-rule="nonzero"/></g></g></g><g clip-path="url(#c475b04c93)"><g clip-path="url(#4b635ba963)"><g clip-path="url(#f2086b43d1)"><path fill="#eddcca" d="M 75.402344 150.433594 C 75.636719 150.078125 76.113281 149.375 76.585938 148.667969 C 77.535156 147.257812 78.132812 145.613281 78.785156 144.257812 C 79.796875 141.613281 81.046875 138.613281 81.410156 135.785156 C 81.898438 132.015625 76.777344 130.878906 75.640625 134.464844 C 75.046875 136.113281 75.097656 137.941406 74.5 139.589844 C 74.257812 141.472656 73.664062 143.121094 73.125 145.0625 C 72.585938 147.003906 71.632812 149.945312 73.691406 151.074219 C 74.394531 151.546875 75.222656 151.078125 75.402344 150.433594 Z M 75.402344 150.433594 " fill-opacity="1" fill-rule="nonzero"/></g></g></g><g clip-path="url(#227dd5b9c0)"><g clip-path="url(#21b3aecf72)"><g clip-path="url(#a422bdf3b6)"><path fill="#eddcca" d="M 52.03125 159.296875 C 51.921875 157.171875 51.519531 155.109375 50.820312 153.105469 C 50.472656 151.335938 50.421875 149.507812 49.839844 148.09375 C 49.082031 145.792969 45.605469 145.246094 44.535156 147.597656 C 43.171875 150.007812 44.574219 152.488281 46.160156 154.324219 C 47.449219 156.214844 48.617188 159.046875 50.378906 160.230469 C 51.082031 160.707031 52.207031 160.179688 52.03125 159.296875 Z M 52.03125 159.296875 " fill-opacity="1" fill-rule="nonzero"/></g></g></g><g clip-path="url(#425a6e538f)"><g clip-path="url(#34ff5ba99f)"><g clip-path="url(#7c2e767e4d)"><path fill="#eddcca" d="M 87.222656 38.828125 C 89.703125 37.425781 92.238281 36.316406 94.664062 34.617188 C 97.378906 32.859375 100.917969 32.167969 102.050781 28.578125 C 102.410156 27.28125 101.53125 25.925781 100.296875 25.859375 C 96.527344 25.375 93.449219 28.425781 90.847656 30.773438 C 89.015625 32.355469 85.945312 33.875 84.578125 36.285156 C 83.746094 38.285156 85.566406 39.765625 87.222656 38.828125 Z M 87.222656 38.828125 " fill-opacity="1" fill-rule="nonzero"/></g></g></g><g clip-path="url(#9ed1f667a6)"><g clip-path="url(#be3bd0d5ec)"><g clip-path="url(#4a7e0587ca)"><path fill="#eddcca" d="M 128.300781 21.90625 C 128.703125 23.96875 131.945312 23.335938 133.363281 22.75 C 137.082031 21.410156 140.445312 19.832031 144.222656 18.789062 C 148.292969 17.683594 146.078125 11.078125 142.417969 12.710938 C 139.347656 14.230469 136.335938 16.046875 133.324219 17.859375 C 131.964844 18.738281 130.246094 20.914062 128.773438 21.203125 C 128.421875 20.964844 128.242188 21.613281 128.300781 21.90625 Z M 128.300781 21.90625 " fill-opacity="1" fill-rule="nonzero"/></g></g></g><g clip-path="url(#3c3ac5109d)"><g clip-path="url(#b45325e9ba)"><g clip-path="url(#278a132656)"><path fill="#eddcca" d="M 145.320312 38.472656 C 148.269531 37.894531 151.21875 37.316406 154.050781 36.148438 C 156.351562 35.390625 159.242188 34.519531 161.074219 32.9375 C 163.203125 31.296875 162.863281 27.996094 159.976562 27.335938 C 156.796875 26.734375 154.492188 29.023438 152.011719 30.425781 C 149.234375 31.886719 145.519531 33.226562 143.5625 35.753906 C 142.910156 37.105469 143.847656 38.761719 145.320312 38.472656 Z M 145.320312 38.472656 " fill-opacity="1" fill-rule="nonzero"/></g></g></g><g clip-path="url(#c07da5c958)"><g clip-path="url(#ff1f9d1c4b)"><g clip-path="url(#85fedcb015)"><path fill="#eddcca" d="M 169.136719 50.644531 C 175.03125 49.488281 179.648438 44.914062 185.074219 42.929688 C 191.09375 40.832031 185.414062 32.148438 181.09375 36.667969 C 177.011719 40.835938 170.992188 42.933594 167.378906 47.925781 C 166.78125 49.574219 167.660156 50.933594 169.136719 50.644531 Z M 169.136719 50.644531 " fill-opacity="1" fill-rule="nonzero"/></g></g></g><g clip-path="url(#04f90acc10)"><g clip-path="url(#8a1af3a37b)"><g clip-path="url(#9c45357c68)"><path fill="#eddcca" d="M 125.660156 136.609375 C 124.59375 137.429688 124.414062 138.078125 124.292969 139.019531 C 123.699219 140.667969 123.101562 142.316406 122.800781 143.90625 C 122.140625 146.789062 122.015625 149.261719 121.648438 152.089844 C 121.34375 155.210938 126.054688 155.820312 127.417969 153.410156 C 128.070312 152.054688 127.957031 151.464844 127.667969 149.992188 C 127.378906 148.519531 127.679688 146.929688 127.6875 145.398438 C 128.109375 142.863281 128.710938 139.6875 127.894531 137.089844 C 127.78125 136.5 126.429688 135.847656 125.660156 136.609375 Z M 125.660156 136.609375 " fill-opacity="1" fill-rule="nonzero"/></g></g></g><g clip-path="url(#cf3e076b03)"><g clip-path="url(#375d94a3d1)"><g clip-path="url(#43f99f4019)"><path fill="#eddcca" d="M 110.871094 165.832031 C 110.035156 167.832031 110.734375 169.839844 111.433594 171.84375 C 112.363281 175.03125 113.472656 177.570312 115.230469 180.285156 C 117.515625 184.125 123.777344 180.144531 120.960938 176.714844 C 119.261719 174.292969 117.269531 171.925781 115.863281 169.449219 C 114.984375 168.089844 113.933594 165.847656 112.34375 165.542969 C 111.640625 165.070312 110.753906 165.242188 110.871094 165.832031 Z M 110.871094 165.832031 " fill-opacity="1" fill-rule="nonzero"/></g></g></g><g clip-path="url(#704a1f89d9)"><g clip-path="url(#a64404a9f3)"><g clip-path="url(#ef70b87f27)"><path fill="#eddcca" d="M 87.8125 199.738281 C 88.273438 202.097656 91.039062 203.699219 92.5625 205.234375 C 94.089844 206.773438 95.96875 208.550781 97.96875 209.382812 C 103.378906 211.996094 105.832031 202.636719 100.53125 202.144531 C 98.644531 201.902344 97.292969 201.25 95.882812 200.300781 C 95.179688 199.824219 94.121094 199.113281 93.121094 198.699219 C 92.121094 198.28125 91.121094 197.867188 90.121094 197.449219 C 89.0625 196.738281 87.523438 198.261719 87.8125 199.738281 Z M 87.8125 199.738281 " fill-opacity="1" fill-rule="nonzero"/></g></g></g><g clip-path="url(#4054681e25)"><g clip-path="url(#d7342aa31c)"><g clip-path="url(#c656a4d945)"><path fill="#eddcca" d="M 34.472656 174.367188 C 34.65625 172.1875 34.898438 170.304688 34.496094 168.238281 C 34.035156 165.882812 33.570312 163.523438 33.050781 160.871094 C 32.070312 155.855469 23.929688 158.0625 25.265625 163.3125 C 26.023438 165.613281 26.777344 167.914062 27.535156 170.214844 C 28.234375 172.222656 27.753906 174.457031 29.574219 175.9375 C 31.042969 177.183594 34.285156 176.546875 34.472656 174.367188 Z M 34.472656 174.367188 " fill-opacity="1" fill-rule="nonzero"/></g></g></g><g clip-path="url(#26fabd44b3)"><g clip-path="url(#f122e1d4b4)"><g clip-path="url(#2e8c864946)"><path fill="#eddcca" d="M 27.671875 136.515625 C 27.914062 134.628906 28.804688 132.925781 28.988281 130.746094 C 29.234375 128.863281 29.125 126.738281 29.660156 124.796875 C 31.210938 120.207031 23.148438 118.113281 22.007812 123.234375 C 21.648438 124.53125 21.824219 125.414062 21.757812 126.652344 C 21.695312 127.890625 21.6875 129.421875 21.625 130.65625 C 21.792969 133.074219 21.664062 135.546875 23.601562 137.617188 C 25.066406 138.859375 27.371094 138.105469 27.671875 136.515625 Z M 27.671875 136.515625 " fill-opacity="1" fill-rule="nonzero"/></g></g></g><g clip-path="url(#1d3bb09d6a)"><g clip-path="url(#b66a956c53)"><g clip-path="url(#deafff2274)"><path fill="#eddcca" d="M 93.59375 110.441406 C 95.605469 108.210938 97.445312 105.09375 98.457031 102.445312 C 99.527344 100.09375 101.070312 97.035156 101.140625 94.269531 C 101.273438 90.261719 95.203125 90.53125 95.070312 94.539062 C 95.183594 95.128906 94.472656 96.1875 94.238281 96.539062 C 93.640625 98.1875 93.046875 99.832031 92.449219 101.480469 C 91.675781 103.773438 89.71875 106.300781 89.945312 109.011719 C 89.757812 111.191406 92.054688 111.964844 93.59375 110.441406 Z M 93.59375 110.441406 " fill-opacity="1" fill-rule="nonzero"/></g></g></g><g clip-path="url(#3dd69e88bb)"><g clip-path="url(#9536317702)"><g clip-path="url(#8d5e2b42a5)"><path fill="#eddcca" d="M 58.296875 125.617188 C 58.417969 124.675781 58.832031 123.675781 58.953125 122.734375 C 59.371094 121.734375 59.140625 120.554688 59.5 119.261719 C 59.921875 116.730469 60.695312 114.433594 61.175781 112.195312 C 61.664062 108.429688 56.484375 106.992188 55.113281 110.933594 C 54.160156 113.878906 54.203125 117.234375 54.191406 120.300781 C 54.300781 122.421875 53.757812 125.894531 56.109375 126.964844 C 57.109375 127.382812 58.171875 126.5625 58.296875 125.617188 Z M 58.296875 125.617188 " fill-opacity="1" fill-rule="nonzero"/></g></g></g><g clip-path="url(#e38896ef92)"><g clip-path="url(#4da8bb665a)"><g clip-path="url(#211ac30f1a)"><path fill="#eddcca" d="M 146.472656 74.0625 C 148.183594 73.421875 149.488281 72.25 150.730469 70.78125 C 151.972656 69.3125 153.625 68.375 155.222656 67.144531 C 158.121094 64.742188 153.246094 60.183594 150.761719 63.121094 C 149.753906 64.234375 148.453125 65.410156 147.503906 66.820312 C 146.5 67.933594 145.960938 69.878906 144.601562 70.753906 C 143.597656 71.871094 144.46875 74.761719 146.472656 74.0625 Z M 146.472656 74.0625 " fill-opacity="1" fill-rule="nonzero"/></g></g></g><g clip-path="url(#47a79cfc1a)"><g clip-path="url(#1b01187fee)"><g clip-path="url(#2580019d2c)"><path fill="#eddcca" d="M 55.160156 201.847656 C 56.566406 204.328125 59.089844 206.28125 61.265625 208 C 63.730469 209.65625 66.789062 211.203125 69.097656 208.914062 C 70.398438 207.742188 70.050781 205.972656 68.878906 204.671875 C 68.410156 203.84375 67.527344 204.015625 66.230469 203.660156 C 65.582031 203.480469 64.527344 202.769531 63.878906 202.589844 C 63.117188 201.820312 62.117188 201.402344 61.351562 200.632812 C 60 199.980469 59 199.5625 57.707031 199.207031 C 56.058594 198.609375 54.226562 200.191406 55.160156 201.847656 Z M 55.160156 201.847656 " fill-opacity="1" fill-rule="nonzero"/></g></g></g></g></g></g><g mask="url(#b2477fae2a)"><g transform="matrix(1, 0, 0, 1, 0, 0.000000000000039746)"><g clip-path="url(#1bd62adf44)"><g clip-path="url(#8ea04270a0)"><g clip-path="url(#477647757c)"><g clip-path="url(#564a7839a3)"><path fill="#754c24" d="M 48.4375 176.019531 C 48.519531 175.917969 48.503906 175.753906 48.378906 175.675781 C 45.378906 173.425781 43.058594 170.707031 41.472656 167.582031 C 41.15625 166.933594 40.863281 166.296875 40.609375 165.65625 C 39.769531 163.550781 39.265625 161.332031 39.082031 159.035156 C 39.070312 158.890625 38.960938 158.789062 38.816406 158.800781 C 38.667969 158.8125 38.570312 158.941406 38.585938 159.085938 C 38.753906 161.425781 39.269531 163.6875 40.121094 165.832031 C 40.375 166.496094 40.675781 167.167969 41.015625 167.8125 C 42.636719 171.011719 44.992188 173.789062 48.066406 176.085938 C 48.191406 176.164062 48.355469 176.148438 48.4375 176.019531 Z M 44.132812 140.28125 C 47.324219 134.839844 51.9375 129.585938 57.128906 125.476562 C 57.257812 125.382812 57.261719 125.234375 57.167969 125.105469 C 57.085938 124.996094 56.925781 124.96875 56.820312 125.058594 C 51.558594 129.230469 46.914062 134.53125 43.695312 140.023438 C 43.640625 140.074219 43.640625 140.160156 43.65625 140.242188 C 43.691406 140.296875 43.722656 140.335938 43.773438 140.363281 C 43.894531 140.441406 44.058594 140.40625 44.132812 140.28125 Z M 11.347656 10.609375 C 11.398438 10.472656 11.339844 10.316406 11.203125 10.261719 C 7.78125 8.789062 4.289062 7.371094 0.78125 6.070312 L -0.128906 6.277344 C 3.628906 7.652344 7.355469 9.164062 11.011719 10.730469 C 11.128906 10.789062 11.289062 10.734375 11.347656 10.609375 Z M 78.214844 179.167969 C 80.769531 178.160156 83.304688 176.863281 85.734375 175.292969 C 85.847656 175.222656 85.894531 175.0625 85.800781 174.9375 C 85.734375 174.824219 85.578125 174.792969 85.445312 174.867188 C 83.050781 176.410156 80.550781 177.679688 78.015625 178.683594 C 74.347656 180.132812 70.601562 180.964844 66.941406 181.15625 C 66.792969 181.148438 66.671875 181.28125 66.6875 181.429688 L 66.703125 181.507812 C 66.746094 181.605469 66.84375 181.667969 66.949219 181.664062 C 70.695312 181.472656 74.480469 180.632812 78.214844 179.167969 Z M 46.320312 29.5 C 46.398438 29.378906 46.363281 29.214844 46.257812 29.132812 C 40.757812 25.519531 34.996094 22.09375 29.132812 18.945312 C 29.007812 18.871094 28.851562 18.925781 28.792969 19.046875 C 28.75 19.117188 28.742188 19.183594 28.78125 19.261719 C 28.796875 19.320312 28.847656 19.371094 28.898438 19.40625 C 34.734375 22.535156 40.476562 25.96875 45.953125 29.5625 C 46.074219 29.640625 46.238281 29.601562 46.320312 29.5 Z M 80.40625 112.21875 C 84.3125 110.671875 88.414062 109.355469 92.613281 108.273438 C 92.753906 108.21875 92.851562 108.089844 92.800781 107.957031 C 92.789062 107.808594 92.617188 107.71875 92.5 107.769531 C 88.261719 108.859375 84.132812 110.179688 80.234375 111.726562 C 78.027344 112.585938 75.839844 113.554688 73.746094 114.539062 C 73.613281 114.613281 73.5625 114.753906 73.609375 114.886719 C 73.6875 115.019531 73.847656 115.066406 73.960938 115.023438 C 76.050781 114.015625 78.21875 113.078125 80.40625 112.21875 Z M 99.988281 161.449219 C 103.695312 156.148438 106.550781 150.082031 108.46875 143.445312 C 108.5 143.3125 108.429688 143.179688 108.289062 143.125 C 108.152344 143.09375 108 143.167969 107.96875 143.304688 C 106.0625 149.898438 103.234375 155.890625 99.5625 161.164062 C 99.511719 161.222656 99.511719 161.324219 99.53125 161.40625 C 99.5625 161.441406 99.589844 161.476562 99.640625 161.511719 C 99.746094 161.59375 99.910156 161.578125 99.988281 161.449219 Z M 77.34375 54.300781 C 77.449219 54.210938 77.453125 54.042969 77.34375 53.9375 C 73.292969 49.972656 68.816406 46.003906 64.066406 42.132812 C 63.496094 41.691406 62.949219 41.242188 62.378906 40.800781 C 62.273438 40.714844 62.109375 40.734375 62.023438 40.835938 C 61.957031 40.914062 61.957031 41 61.976562 41.101562 C 62.007812 41.136719 62.035156 41.175781 62.066406 41.210938 C 62.613281 41.636719 63.179688 42.082031 63.730469 42.53125 C 68.480469 46.398438 72.953125 50.351562 76.984375 54.316406 C 77.085938 54.398438 77.238281 54.410156 77.34375 54.300781 Z M 111.222656 123.75 C 111.253906 117.074219 110.402344 110.429688 108.710938 104.019531 C 108.699219 103.871094 108.535156 103.800781 108.394531 103.835938 C 108.25 103.867188 108.15625 104.015625 108.210938 104.152344 C 109.890625 110.519531 110.730469 117.105469 110.707031 123.738281 C 110.695312 123.785156 110.703125 123.824219 110.710938 123.84375 C 110.753906 123.941406 110.855469 124.003906 110.957031 124 C 111.109375 124.007812 111.210938 123.898438 111.222656 123.75 Z M 101.417969 85.503906 C 98.472656 79.863281 94.851562 74.230469 90.613281 68.78125 C 90.523438 68.671875 90.371094 68.644531 90.261719 68.734375 C 90.171875 68.796875 90.136719 68.929688 90.183594 69.027344 C 90.1875 69.050781 90.191406 69.066406 90.21875 69.105469 C 94.410156 74.523438 98.027344 80.132812 100.957031 85.734375 C 101.027344 85.863281 101.191406 85.914062 101.300781 85.84375 C 101.441406 85.792969 101.507812 85.628906 101.417969 85.503906 Z M 132.324219 104.488281 C 132.335938 104.335938 132.222656 104.214844 132.070312 104.207031 C 125.339844 103.800781 118.636719 103.882812 112.148438 104.445312 C 112.003906 104.457031 111.902344 104.585938 111.917969 104.730469 L 111.933594 104.792969 C 111.972656 104.886719 112.078125 104.972656 112.183594 104.96875 C 118.652344 104.410156 125.332031 104.316406 132.039062 104.722656 C 132.1875 104.730469 132.316406 104.636719 132.324219 104.488281 Z M 171.34375 111.964844 C 171.375 111.832031 171.304688 111.695312 171.164062 111.644531 C 164.621094 109.628906 158.121094 107.984375 151.863281 106.753906 C 151.707031 106.726562 151.578125 106.820312 151.550781 106.972656 C 151.539062 107.019531 151.546875 107.058594 151.5625 107.121094 C 151.601562 107.195312 151.65625 107.246094 151.746094 107.269531 C 158.003906 108.5 164.480469 110.125 171.023438 112.144531 C 171.15625 112.175781 171.292969 112.105469 171.34375 111.964844 Z M 208.300781 126.664062 C 208.355469 126.527344 208.300781 126.386719 208.179688 126.308594 C 201.742188 123.273438 195.765625 120.660156 189.9375 118.332031 C 189.800781 118.277344 189.664062 118.332031 189.609375 118.472656 C 189.582031 118.542969 189.578125 118.605469 189.589844 118.667969 C 189.625 118.722656 189.675781 118.773438 189.746094 118.800781 C 195.582031 121.148438 201.53125 123.746094 207.96875 126.785156 C 208.085938 126.84375 208.242188 126.785156 208.300781 126.664062 Z M 238.039062 141.796875 C 238.097656 141.675781 238.058594 141.515625 237.941406 141.460938 C 233.386719 139.03125 229.613281 137.023438 226.019531 135.164062 C 225.882812 135.113281 225.742188 135.164062 225.667969 135.289062 C 225.640625 135.359375 225.632812 135.421875 225.652344 135.503906 C 225.6875 135.558594 225.714844 135.59375 225.785156 135.621094 C 229.363281 137.503906 233.152344 139.488281 237.683594 141.921875 C 237.804688 141.976562 237.964844 141.941406 238.039062 141.796875 " fill-opacity="1" fill-rule="nonzero"/></g></g></g><g clip-path="url(#b1732ada7d)"><g clip-path="url(#25e3e523d5)"><g clip-path="url(#407d346c21)"><path fill="#754c24" d="M 238.695312 195.152344 L 257.425781 156.917969 L 330.085938 175.824219 Z M 330.289062 175.179688 L 291.789062 158.8125 L 260.726562 145.613281 L 269.421875 104.507812 Z M 324.179688 173.757812 L 257.851562 156.496094 L 262.324219 152.894531 Z M 260.820312 146.214844 L 324.882812 173.445312 L 262.488281 152.398438 Z M 331.292969 176.089844 C 331.308594 176.085938 331.316406 176.085938 331.328125 176.078125 C 331.347656 176.074219 331.351562 176.058594 331.367188 176.046875 C 331.382812 176.03125 331.402344 176.023438 331.414062 176.007812 C 331.417969 176.007812 331.421875 176.007812 331.421875 176.007812 C 331.429688 175.996094 331.425781 175.984375 331.433594 175.972656 C 331.4375 175.960938 331.453125 175.957031 331.457031 175.945312 C 331.457031 175.941406 331.453125 175.9375 331.457031 175.9375 C 331.457031 175.933594 331.460938 175.929688 331.460938 175.929688 C 331.464844 175.917969 331.457031 175.90625 331.460938 175.894531 C 331.464844 175.882812 331.472656 175.871094 331.472656 175.859375 C 331.472656 175.855469 331.46875 175.851562 331.46875 175.851562 C 331.472656 175.832031 331.457031 175.8125 331.453125 175.792969 C 331.449219 175.773438 331.453125 175.761719 331.445312 175.742188 C 331.441406 175.738281 331.4375 175.734375 331.429688 175.722656 C 331.425781 175.714844 331.421875 175.699219 331.414062 175.691406 C 331.410156 175.6875 331.414062 175.6875 331.410156 175.683594 L 269.472656 103.773438 C 269.410156 103.695312 269.308594 103.664062 269.214844 103.691406 C 269.117188 103.714844 269.042969 103.792969 269.019531 103.886719 L 260.175781 145.710938 C 260.171875 145.75 260.179688 145.78125 260.1875 145.816406 C 260.1875 145.820312 260.179688 145.828125 260.179688 145.832031 L 261.980469 152.507812 L 257.121094 156.417969 C 257.113281 156.421875 257.121094 156.4375 257.113281 156.445312 C 257.089844 156.464844 257.066406 156.476562 257.050781 156.503906 L 238 195.402344 C 237.964844 195.464844 237.964844 195.542969 237.988281 195.609375 C 238 195.632812 238.011719 195.652344 238.027344 195.675781 C 238.089844 195.75 238.1875 195.789062 238.285156 195.765625 L 331.269531 176.105469 C 331.277344 176.105469 331.285156 176.09375 331.292969 176.089844 " fill-opacity="1" fill-rule="nonzero"/></g></g></g></g></g></g><g mask="url(#66b674162e)"><g transform="matrix(1, 0, 0, 1, 0, 404)"><g clip-path="url(#358b819450)"><g clip-path="url(#a8134f65df)"><g clip-path="url(#185c688da3)"><g clip-path="url(#906249d5e1)"><path fill="#ffb8c6" d="M 298.496094 308.402344 C 302.96875 295.417969 305.929688 281.976562 307.292969 268.308594 C 308.011719 261.417969 308.253906 254.480469 308.132812 247.5625 C 308.039062 241.546875 308.054688 235.066406 306.382812 229.246094 C 304.9375 224.113281 301.753906 220.117188 296.757812 217.976562 C 291.304688 215.609375 285.03125 215.375 279.214844 214.769531 C 264.746094 213.140625 250.28125 211.515625 235.8125 209.886719 C 224.191406 208.558594 211.695312 208.15625 200.769531 203.65625 C 195.9375 201.652344 191.507812 198.667969 188.480469 194.328125 C 185.195312 189.605469 184.054688 183.84375 184.464844 178.179688 C 185.300781 166.679688 191.5625 156.105469 198.992188 147.570312 C 206.613281 138.878906 216.347656 131.847656 227.105469 127.625 C 231.039062 126.113281 237.304688 124.722656 240.738281 128.023438 C 245.8125 132.875 238.949219 140.027344 235.691406 143.648438 C 228.023438 152.214844 219.308594 159.835938 209.820312 166.292969 C 190.832031 179.265625 168.648438 187.761719 145.769531 190.300781 C 133.929688 191.648438 120.746094 190.9375 111.640625 182.183594 C 105.320312 176.0625 102.007812 167.550781 99.324219 159.34375 C 96.492188 150.824219 94.230469 142.003906 89.894531 134.105469 C 87.820312 130.40625 85.363281 126.910156 82.183594 124.054688 C 77.910156 120.128906 72.53125 117.648438 67.101562 115.640625 C 43.289062 106.976562 15.460938 104.617188 -3.414062 85.960938 C -11.898438 77.570312 -16.292969 66.785156 -17.34375 54.96875 C -18.371094 42.972656 -16.515625 30.917969 -15.933594 18.972656 C -15.636719 13.238281 -15.695312 7.46875 -16.359375 1.753906 C -16.480469 0.601562 -18.25 0.898438 -18.128906 2.050781 C -15.386719 25.8125 -25.226562 51.746094 -14.195312 74.269531 C -2.769531 97.617188 24.515625 105.199219 47.550781 111.5625 C 54.371094 113.472656 61.253906 115.332031 67.828125 117.878906 C 73.484375 120.027344 78.828125 122.867188 82.914062 127.375 C 89.101562 134.203125 92.1875 143.171875 94.949219 151.804688 C 97.707031 160.4375 100.199219 169.34375 105.15625 177.066406 C 107.53125 180.734375 110.546875 184.050781 114.121094 186.585938 C 119.160156 190.050781 125.09375 191.808594 131.09375 192.375 C 143.03125 193.558594 155.578125 191.144531 167.070312 187.957031 C 178.375 184.8125 189.335938 180.371094 199.589844 174.652344 C 209.777344 168.988281 219.253906 162.109375 227.816406 154.175781 C 232.066406 150.234375 236.097656 146.09375 239.746094 141.609375 C 242.902344 137.796875 246.273438 131.902344 242.554688 127.3125 C 239.730469 123.894531 234.578125 123.839844 230.65625 124.632812 C 225.382812 125.703125 220.296875 128.476562 215.75 131.246094 C 205.886719 137.242188 197.355469 145.417969 191.0625 155.152344 C 185.121094 164.378906 180.722656 176.109375 183.410156 187.136719 C 186.019531 197.796875 195.082031 204.085938 205.160156 206.996094 C 210.402344 208.5 215.769531 209.359375 221.164062 209.984375 C 228.570312 210.875 235.929688 211.640625 243.339844 212.472656 C 257.988281 214.117188 272.722656 215.472656 287.332031 217.476562 C 293.367188 218.285156 299.855469 219.921875 303.042969 225.597656 C 306.078125 231.015625 306.078125 237.921875 306.351562 243.953125 C 306.828125 258.351562 305.558594 272.871094 302.582031 287.03125 C 301.070312 294.078125 299.152344 300.964844 296.820312 307.804688 C 296.410156 308.84375 298.082031 309.5 298.496094 308.402344 Z M 298.496094 308.402344 " fill-opacity="1" fill-rule="nonzero"/></g></g></g></g></g></g><g mask="url(#dd8e93df9f)"><g transform="matrix(1, 0, 0, 1, 165, 445)"><g clip-path="url(#86a508a7dc)"><g clip-path="url(#3f4930e5e2)"><g clip-path="url(#c0fb489a64)"><g clip-path="url(#bcc682d397)"><path fill="#ffb8c6" d="M 30.371094 19.027344 C 30.828125 19.039062 31.210938 18.679688 31.292969 18.230469 C 31.347656 17.710938 31.003906 17.257812 30.488281 17.164062 C 26.5 16.703125 22.507812 16.238281 18.515625 15.773438 C 18.761719 14.003906 18.972656 12.230469 19.222656 10.429688 C 18.992188 8.542969 17.867188 7.3125 17.007812 7.371094 C 16.113281 7.425781 14.953125 8.957031 15.234375 11.136719 C 15.230469 12.558594 15.191406 13.972656 15.183594 15.390625 C 13.449219 15.1875 11.75 14.988281 10.015625 14.785156 C 9.738281 14.738281 9.328125 14.664062 8.820312 14.714844 C 7.523438 14.839844 6.011719 15.777344 5.9375 16.792969 C 5.894531 17.8125 7.324219 19.132812 9.5625 19.285156 C 11.410156 19.261719 13.257812 19.234375 15.136719 19.21875 C 15.097656 22.015625 15.066406 24.777344 15.0625 27.582031 C 15.085938 28.046875 15.40625 28.425781 15.859375 28.472656 C 16.375 28.5625 16.832031 28.183594 16.921875 27.667969 C 17.289062 24.820312 17.691406 21.980469 18.050781 19.167969 C 22.167969 19.125 26.253906 19.070312 30.371094 19.027344 Z M 30.371094 19.027344 " fill-opacity="1" fill-rule="nonzero"/></g></g></g><g clip-path="url(#d6ed34cba5)"><g clip-path="url(#e4d3baded3)"><g clip-path="url(#3ba8ce04ad)"><path fill="#ffb8c6" d="M 68.464844 19.546875 C 68.558594 18.640625 67.320312 17.636719 66.164062 17.359375 C 65.726562 17.246094 65.367188 17.253906 65.117188 17.28125 C 63.597656 17.257812 62.042969 17.226562 60.523438 17.207031 C 60.675781 15.953125 60.828125 14.703125 60.980469 13.453125 C 61.457031 11.585938 60.628906 10.085938 59.835938 9.945312 C 59.117188 9.816406 57.957031 10.746094 57.527344 12.375 C 57.523438 13.972656 57.527344 15.535156 57.527344 17.132812 C 53.960938 17.0625 50.390625 17.027344 46.855469 16.964844 C 46.398438 16.953125 46.042969 17.351562 46.03125 17.8125 C 46.027344 18.238281 46.355469 18.582031 46.734375 18.648438 C 50.324219 19.183594 53.917969 19.683594 57.539062 20.222656 C 57.550781 22.746094 57.554688 25.304688 57.53125 27.820312 C 57.554688 28.285156 57.914062 28.632812 58.375 28.644531 C 58.765625 28.644531 59.101562 28.347656 59.175781 27.9375 C 59.46875 25.503906 59.765625 23.035156 60.066406 20.566406 C 61.691406 20.789062 63.3125 21.039062 64.9375 21.261719 C 66.992188 21.449219 68.410156 20.460938 68.464844 19.546875 Z M 68.464844 19.546875 " fill-opacity="1" fill-rule="nonzero"/></g></g></g><g clip-path="url(#6ef5aebf17)"><g clip-path="url(#bbacba1bf4)"><g clip-path="url(#c107b06ec7)"><path fill="#ffb8c6" d="M 55.617188 35.75 C 50.277344 35.292969 44.941406 34.839844 39.601562 34.382812 C 39.847656 32.011719 40.09375 29.640625 40.3125 27.230469 C 39.945312 24.714844 38.347656 23.148438 37.234375 23.234375 C 36.046875 23.34375 34.578125 25.421875 35.019531 28.308594 C 35.070312 30.199219 35.085938 32.082031 35.140625 33.976562 C 32.835938 33.777344 30.535156 33.578125 28.230469 33.378906 C 27.855469 33.3125 27.296875 33.25 26.644531 33.34375 C 24.898438 33.601562 22.890625 34.910156 22.898438 36.261719 C 22.863281 37.640625 24.828125 39.339844 27.859375 39.421875 C 30.320312 39.328125 32.789062 39.199219 35.285156 39.113281 C 35.367188 42.820312 35.449219 46.527344 35.523438 50.269531 C 35.554688 50.878906 36.003906 51.351562 36.628906 51.425781 C 37.320312 51.515625 37.9375 51.019531 38.027344 50.328125 C 38.421875 46.527344 38.785156 42.722656 39.171875 38.957031 C 44.636719 38.726562 50.101562 38.457031 55.5625 38.226562 C 56.171875 38.195312 56.683594 37.71875 56.757812 37.089844 C 56.800781 36.460938 56.308594 35.839844 55.617188 35.75 Z M 55.617188 35.75 " fill-opacity="1" fill-rule="nonzero"/></g></g></g></g></g></g><g mask="url(#fbefa44f37)"><g transform="matrix(1, 0, 0, 1, 865, 688)"><g clip-path="url(#03b08b0c08)"><g clip-path="url(#1b85b1d159)"><g clip-path="url(#d336b0d395)"><g clip-path="url(#0130a146c9)"><path fill="#d0c3f1" d="M 6.914062 20.367188 C 10.679688 17.910156 14.824219 16.480469 19.335938 16.308594 C 23.589844 16.152344 26.609375 18.289062 28.113281 22.3125 C 30.160156 27.691406 28.621094 33.253906 24.855469 37.214844 C 23.753906 37.96875 22.710938 38.890625 21.746094 39.925781 C 19.300781 42.503906 23.027344 46.46875 25.871094 44.480469 C 26.976562 43.726562 28.003906 42.863281 28.957031 41.894531 C 31.914062 39.988281 35.460938 39.503906 39.046875 40.5 C 43.242188 41.671875 47.046875 44.886719 48.144531 49.1875 C 49.054688 52.65625 47.960938 56.191406 46.152344 59.144531 C 46.113281 59.171875 46.101562 59.234375 46.054688 59.320312 C 44.566406 59.902344 43.140625 60.660156 41.84375 61.597656 C 39.882812 62.988281 37.160156 65.003906 37.199219 67.664062 C 37.199219 69.167969 38.429688 70.105469 39.726562 70.507812 C 42.351562 71.355469 46.246094 68.058594 47.96875 66.558594 C 48.703125 65.898438 49.339844 65.25 49.914062 64.589844 C 51.328125 64.21875 52.796875 64.078125 54.253906 64.160156 C 58.460938 64.410156 62.207031 66.585938 64.164062 70.25 C 67.214844 75.914062 64.925781 82.039062 60.996094 86.546875 C 59.3125 87.636719 57.832031 89.023438 56.601562 90.613281 C 54.554688 93.300781 57.773438 97.394531 60.726562 95.167969 C 62.183594 94.066406 63.59375 92.890625 64.828125 91.621094 C 68.242188 89.832031 72.234375 90.550781 75.152344 94.207031 C 79.085938 99.265625 78.765625 106.148438 73.484375 110.335938 C 71.488281 111.910156 72.960938 114.941406 75.484375 114.296875 C 86.214844 111.550781 85.632812 97.492188 79.941406 90.40625 C 77.359375 87.167969 73.808594 84.800781 69.707031 84.316406 C 69.976562 83.761719 70.214844 83.164062 70.394531 82.558594 C 72.425781 76.609375 71.910156 69.917969 67.953125 64.824219 C 64.507812 60.398438 59.105469 58.003906 53.554688 57.917969 C 54.757812 54.464844 54.984375 50.765625 54 47.1875 C 52.226562 40.710938 46.484375 36.078125 40.179688 34.410156 C 38.136719 33.863281 36.0625 33.664062 34.042969 33.859375 C 35.703125 29.183594 35.703125 23.96875 33.464844 19.097656 C 30.921875 13.628906 26.238281 10.15625 20.132812 10.125 C 14.125 10.078125 8.378906 12.003906 3.398438 15.289062 C 0.0742188 17.445312 3.550781 22.546875 6.914062 20.367188 Z M 40.3125 64.253906 C 39.757812 64.46875 39.65625 64.160156 40.3125 64.253906 Z M 43.214844 68.511719 C 42.988281 69.363281 42.589844 69.097656 43.214844 68.511719 Z M 43.214844 68.511719 " fill-opacity="1" fill-rule="nonzero"/></g></g></g></g></g></g><g mask="url(#f3a69ca340)"><g transform="matrix(1, 0, 0, 1, 877, 528)"><g clip-path="url(#af0bbe3280)"><g clip-path="url(#c471ad8bae)"><path fill="#ffbb40" d="M 34.191406 12.480469 C 33.226562 10.078125 30.453125 9.777344 28.199219 10.105469 C 26.71875 10.320312 25.289062 10.8125 23.914062 11.441406 C 24.902344 9.859375 25.480469 8.027344 25.34375 6.171875 C 25.097656 3.246094 22.292969 1.226562 19.410156 1.363281 C 17.101562 1.472656 14.738281 2.835938 14.132812 5.1875 C 13.777344 6.523438 14.023438 7.917969 14.492188 9.203125 C 14.628906 9.585938 15.535156 11.222656 15.644531 11.988281 C 15.617188 11.988281 15.535156 11.960938 15.453125 11.878906 C 15.289062 11.742188 15.066406 11.605469 14.902344 11.46875 C 14.4375 11.085938 13.96875 10.675781 13.5 10.292969 C 12.511719 9.503906 11.46875 8.765625 10.289062 8.300781 C 7.429688 7.207031 4.242188 8.410156 2.429688 10.785156 C 0.644531 13.164062 1.496094 15.675781 3.859375 17.207031 C 5.175781 18.050781 6.660156 18.542969 8.199219 18.625 C 5.148438 21.195312 3.914062 25.511719 6.386719 29.117188 C 7.511719 30.753906 9.433594 32.09375 11.441406 32.367188 C 13.445312 32.613281 14.957031 31.492188 15.890625 29.824219 C 16.796875 28.242188 17.210938 26.4375 17.761719 24.746094 C 17.84375 24.472656 18.199219 23.296875 18.417969 23.296875 C 18.503906 23.296875 19.1875 25.15625 19.296875 25.429688 C 20.207031 27.367188 21.6875 29.117188 23.503906 30.261719 C 25.5625 31.601562 27.542969 31.492188 29.21875 29.660156 C 30.753906 27.96875 32.488281 25.648438 31.332031 23.296875 C 30.589844 21.796875 29.21875 20.839844 27.679688 20.238281 C 31.550781 19.253906 35.894531 16.769531 34.191406 12.480469 Z M 15.644531 11.988281 C 15.617188 11.988281 15.589844 12.015625 15.5625 12.042969 C 15.589844 11.988281 15.617188 11.988281 15.644531 11.988281 Z M 30.480469 17.917969 C 28.722656 18.925781 26.660156 19.335938 24.65625 19.472656 C 23.832031 19.527344 23.886719 20.59375 24.65625 20.703125 C 26.746094 20.976562 29.65625 21.957031 30.371094 24.199219 C 30.949219 26.027344 28.914062 28.652344 27.457031 29.632812 C 25.726562 30.808594 23.585938 28.953125 22.402344 27.75 C 21.632812 26.957031 21.003906 26.054688 20.507812 25.074219 C 20.152344 24.335938 19.929688 23.515625 19.519531 22.832031 C 19.050781 22.039062 18.144531 21.820312 17.484375 22.53125 C 16.742188 23.324219 16.523438 24.664062 16.222656 25.648438 C 15.78125 27.148438 15.316406 28.789062 14.324219 30.015625 C 12.789062 31.902344 10.371094 31.136719 8.695312 29.824219 C 7.046875 28.542969 6.054688 26.492188 6.195312 24.363281 C 6.386719 21.46875 8.527344 19.390625 11.082031 18.269531 C 11.742188 17.96875 11.277344 16.960938 10.617188 17.152344 C 8.417969 17.753906 6.222656 17.34375 4.378906 16.113281 C 3.417969 15.457031 2.484375 14.5 2.59375 13.246094 C 2.730469 11.6875 4.160156 10.347656 5.480469 9.667969 C 8.117188 8.273438 10.589844 9.421875 12.703125 11.140625 C 13.445312 11.742188 15.039062 13.765625 16.195312 13.082031 C 16.550781 12.863281 16.550781 12.480469 16.359375 12.207031 C 16.359375 11.988281 16.304688 11.742188 16.222656 11.523438 C 15.945312 10.566406 15.453125 9.667969 15.175781 8.738281 C 14.378906 6.171875 15.011719 3.628906 17.707031 2.617188 C 20.316406 1.636719 23.941406 3.21875 24.160156 6.199219 C 24.355469 8.710938 23.089844 11.277344 21.25 12.917969 C 20.78125 13.328125 21.386719 14.117188 21.9375 13.792969 C 23.421875 12.890625 24.984375 12.152344 26.660156 11.660156 C 28.53125 11.140625 31.800781 10.566406 32.925781 12.671875 C 34.164062 14.910156 32.320312 16.878906 30.480469 17.917969 Z M 30.480469 17.917969 " fill-opacity="1" fill-rule="nonzero"/></g><path fill="#754c24" d="M 19.242188 14.609375 C 18.417969 14.445312 17.347656 14.445312 16.632812 14.9375 C 16.441406 15.074219 16.222656 15.292969 16.058594 15.511719 C 15.917969 15.648438 15.78125 15.8125 15.699219 16.003906 C 15.398438 16.714844 15.535156 17.671875 15.863281 18.324219 C 16.6875 19.964844 18.886719 20.210938 19.984375 18.707031 C 20.976562 17.453125 21.304688 15.019531 19.242188 14.609375 Z M 19.023438 17.671875 C 18.144531 19.363281 16.9375 18.132812 16.742188 17.042969 C 16.824219 17.015625 16.882812 16.988281 16.964844 16.933594 C 17.210938 16.742188 17.238281 16.46875 17.429688 16.277344 C 17.707031 16.03125 18.144531 16.058594 18.472656 16.058594 C 18.914062 16.085938 19.269531 16.085938 19.355469 16.605469 C 19.355469 16.933594 19.160156 17.371094 19.023438 17.671875 Z M 19.023438 17.671875 " fill-opacity="1" fill-rule="nonzero"/></g></g></g><g mask="url(#19a2eb0abb)"><g transform="matrix(1, 0, 0, 1, 610, 614)"><g clip-path="url(#b0aec8fb28)"><g clip-path="url(#f22f11428d)"><path fill="#c8d9ee" d="M 19.605469 21.789062 C 19.460938 25.175781 17.300781 27.648438 15.28125 27.8125 C 12.902344 28 9.742188 25.035156 10.101562 20.683594 C 8.246094 22.378906 5.65625 22.730469 3.804688 21.648438 C 2.472656 20.871094 1.640625 19.460938 1.546875 18.09375 C 1.378906 15.601562 3.613281 12.941406 7.128906 12.1875 C 3.445312 12.257812 0.855469 9.246094 1.191406 6.5625 C 1.523438 3.90625 4.777344 1.695312 7.582031 2.585938 C 9.339844 3.152344 10.621094 4.894531 10.882812 6.988281 C 10.550781 4.515625 11.667969 2.09375 13.710938 0.941406 C 16.230469 -0.496094 19.84375 0.164062 21.363281 2.707031 C 22.457031 4.539062 22.265625 6.988281 20.863281 8.917969 C 23.214844 6.046875 26.875 5.765625 28.609375 7.316406 C 29.941406 8.515625 30.105469 10.777344 29.394531 12.492188 C 28.277344 15.128906 25.378906 15.578125 25.257812 15.601562 C 25.496094 15.71875 28.085938 16.894531 28.609375 19.671875 C 28.824219 20.894531 28.730469 22.824219 27.515625 23.835938 C 25.828125 25.199219 22.265625 24.730469 19.605469 21.789062 Z M 19.605469 21.789062 " fill-opacity="1" fill-rule="nonzero"/></g><path fill="#ffffff" d="M 10.90625 11.058594 C 12.761719 8.613281 17.75 8.492188 19.84375 10.964844 C 21.269531 12.660156 21.21875 15.460938 19.222656 17.105469 C 17.039062 18.894531 13.546875 18.496094 11.644531 16.707031 C 10.027344 15.175781 9.671875 12.707031 10.90625 11.058594 Z M 10.90625 11.058594 " fill-opacity="1" fill-rule="nonzero"/></g></g></g><g mask="url(#4cca1ca4f9)"><g transform="matrix(1, 0, 0, 1, 719, 138)"><g clip-path="url(#c3c714e815)"><path fill="#ffe4b3" d="M 37.394531 19.554688 C 37.921875 18.710938 37.921875 17.609375 37.5 16.820312 C 37.660156 15.871094 37.289062 14.765625 36.5 14.082031 C 36.921875 12.191406 35.238281 9.875 32.976562 11.03125 C 30.925781 12.085938 28.875 13.085938 26.769531 14.03125 C 28.347656 12.191406 29.875 10.402344 31.453125 8.667969 C 33.082031 6.824219 31.292969 4.722656 29.347656 4.667969 C 28.929688 3.773438 28.035156 3.195312 27.085938 3.089844 C 26.402344 2.460938 25.296875 2.144531 24.300781 2.40625 C 23.617188 1.722656 22.5625 1.410156 21.667969 1.566406 C 20.195312 0.828125 17.832031 1.617188 17.566406 3.828125 C 17.410156 5.511719 17.25 7.195312 17.09375 8.875 C 16.515625 7.929688 15.9375 7.035156 15.359375 6.089844 C 15.304688 5.878906 15.199219 5.722656 15.042969 5.511719 C 14.886719 5.140625 14.621094 4.773438 14.410156 4.457031 C 13.203125 2.722656 10.992188 3.089844 9.941406 4.300781 C 8.996094 4.511719 8.152344 5.300781 7.835938 6.300781 C 6.890625 6.511719 6.050781 7.195312 5.679688 8.035156 C 4.261719 8.875 3.628906 11.296875 5.367188 12.714844 C 6.679688 13.769531 7.996094 14.820312 9.363281 15.820312 C 8.257812 15.765625 7.152344 15.765625 6.101562 15.765625 C 5.890625 15.714844 5.679688 15.714844 5.417969 15.714844 C 4.996094 15.714844 4.578125 15.714844 4.15625 15.765625 C 2.050781 15.820312 1.105469 17.871094 1.578125 19.394531 C 1.261719 20.289062 1.472656 21.445312 2.105469 22.234375 C 1.734375 23.128906 1.894531 24.234375 2.421875 24.972656 C 2.421875 26.601562 4.101562 28.496094 6.207031 27.8125 C 7.835938 27.285156 9.414062 26.757812 10.992188 26.179688 C 10.363281 27.074219 9.730469 27.96875 9.152344 28.914062 C 8.996094 29.074219 8.890625 29.230469 8.730469 29.441406 C 8.519531 29.808594 8.3125 30.125 8.101562 30.492188 C 6.996094 32.28125 8.257812 34.175781 9.785156 34.648438 C 10.363281 35.382812 11.414062 35.859375 12.464844 35.753906 C 13.042969 36.542969 13.992188 37.015625 14.9375 36.960938 C 15.726562 37.488281 16.882812 37.59375 17.832031 37.171875 C 19.40625 38.328125 22.144531 37.75 22.039062 35.226562 C 21.933594 32.914062 21.878906 30.652344 21.828125 28.335938 C 22.878906 30.441406 23.878906 32.597656 24.824219 34.699219 C 25.824219 36.910156 28.453125 36.171875 29.347656 34.4375 C 30.347656 34.386719 31.242188 33.808594 31.714844 33.019531 C 32.609375 32.648438 33.292969 31.753906 33.449219 30.703125 C 35.292969 30.019531 36.289062 27.390625 34.082031 26.128906 C 32.082031 24.972656 30.136719 23.761719 28.191406 22.550781 C 30.503906 22.8125 32.871094 23.128906 35.1875 23.5 C 37.605469 23.867188 38.394531 21.238281 37.394531 19.554688 Z M 37.394531 19.554688 " fill-opacity="1" fill-rule="nonzero"/><path fill="#ffffff" d="M 20.722656 25.023438 C 18.621094 25.023438 17.042969 24.550781 15.675781 23.445312 C 14.570312 22.605469 13.886719 21.5 13.621094 20.132812 C 13.359375 18.605469 13.78125 17.34375 14.726562 16.1875 C 15.09375 15.765625 15.515625 15.398438 16.042969 15.136719 C 16.199219 15.03125 16.410156 14.925781 16.566406 14.820312 C 17.199219 14.347656 17.933594 14.136719 18.722656 14.082031 C 19.722656 13.976562 20.617188 14.082031 21.566406 14.453125 C 22.773438 14.871094 23.824219 15.554688 24.667969 16.554688 C 25.878906 17.976562 26.246094 19.605469 25.824219 21.394531 C 25.507812 22.761719 24.667969 23.761719 23.40625 24.390625 C 22.457031 24.8125 21.40625 25.023438 20.722656 25.023438 Z M 20.722656 25.023438 " fill-opacity="1" fill-rule="nonzero"/></g></g></g><g mask="url(#f358c08b12)"><g transform="matrix(1, 0, 0, 1, 1323, 29)"><g clip-path="url(#62dd2e6d99)"><g clip-path="url(#1da7ec2bd9)"><path fill="#ffbb40" d="M 34.050781 12.226562 C 33.085938 9.765625 30.3125 9.460938 28.058594 9.792969 C 26.574219 10.019531 25.148438 10.523438 23.773438 11.164062 C 24.761719 9.542969 25.339844 7.667969 25.203125 5.765625 C 24.953125 2.773438 22.152344 0.703125 19.265625 0.84375 C 16.960938 0.957031 14.597656 2.355469 13.992188 4.761719 C 13.636719 6.128906 13.882812 7.558594 14.347656 8.871094 C 14.488281 9.261719 15.394531 10.941406 15.503906 11.726562 C 15.476562 11.726562 15.394531 11.695312 15.3125 11.613281 C 15.144531 11.472656 14.925781 11.332031 14.761719 11.191406 C 14.292969 10.800781 13.828125 10.382812 13.359375 9.992188 C 12.371094 9.179688 11.328125 8.425781 10.144531 7.949219 C 7.289062 6.828125 4.101562 8.058594 2.289062 10.492188 C 0.503906 12.925781 1.355469 15.5 3.71875 17.066406 C 5.035156 17.933594 6.519531 18.4375 8.058594 18.523438 C 5.007812 21.152344 3.773438 25.570312 6.246094 29.261719 C 7.371094 30.941406 9.292969 32.3125 11.300781 32.589844 C 13.304688 32.84375 14.816406 31.695312 15.75 29.988281 C 16.65625 28.367188 17.070312 26.523438 17.617188 24.789062 C 17.703125 24.507812 18.058594 23.304688 18.277344 23.304688 C 18.359375 23.304688 19.046875 25.207031 19.15625 25.488281 C 20.0625 27.472656 21.546875 29.261719 23.359375 30.4375 C 25.421875 31.808594 27.398438 31.695312 29.074219 29.824219 C 30.613281 28.089844 32.34375 25.710938 31.191406 23.304688 C 30.449219 21.765625 29.074219 20.789062 27.539062 20.171875 C 31.410156 19.164062 35.753906 16.621094 34.050781 12.226562 Z M 15.503906 11.726562 C 15.476562 11.726562 15.449219 11.753906 15.421875 11.78125 C 15.449219 11.726562 15.476562 11.726562 15.503906 11.726562 Z M 30.339844 17.792969 C 28.582031 18.828125 26.519531 19.25 24.515625 19.390625 C 23.691406 19.445312 23.746094 20.535156 24.515625 20.648438 C 26.601562 20.925781 29.515625 21.933594 30.230469 24.226562 C 30.808594 26.101562 28.773438 28.789062 27.316406 29.792969 C 25.585938 30.996094 23.445312 29.09375 22.261719 27.863281 C 21.492188 27.054688 20.859375 26.128906 20.367188 25.125 C 20.007812 24.367188 19.789062 23.527344 19.378906 22.828125 C 18.910156 22.019531 18.003906 21.792969 17.34375 22.523438 C 16.601562 23.332031 16.382812 24.703125 16.082031 25.710938 C 15.640625 27.25 15.171875 28.925781 14.183594 30.1875 C 12.644531 32.117188 10.226562 31.332031 8.550781 29.988281 C 6.902344 28.675781 5.914062 26.578125 6.050781 24.394531 C 6.246094 21.429688 8.386719 19.304688 10.941406 18.15625 C 11.601562 17.851562 11.136719 16.816406 10.476562 17.011719 C 8.277344 17.625 6.078125 17.207031 4.238281 15.949219 C 3.277344 15.277344 2.34375 14.296875 2.453125 13.011719 C 2.589844 11.417969 4.019531 10.046875 5.335938 9.347656 C 7.976562 7.921875 10.449219 9.09375 12.5625 10.859375 C 13.304688 11.472656 14.898438 13.542969 16.054688 12.84375 C 16.410156 12.621094 16.410156 12.226562 16.21875 11.949219 C 16.21875 11.726562 16.164062 11.472656 16.082031 11.25 C 15.804688 10.269531 15.3125 9.347656 15.035156 8.394531 C 14.238281 5.765625 14.871094 3.164062 17.5625 2.128906 C 20.175781 1.125 23.800781 2.746094 24.019531 5.792969 C 24.214844 8.367188 22.949219 10.996094 21.109375 12.675781 C 20.640625 13.09375 21.246094 13.90625 21.796875 13.570312 C 23.277344 12.648438 24.84375 11.894531 26.519531 11.390625 C 28.390625 10.859375 31.660156 10.269531 32.785156 12.425781 C 34.019531 14.71875 32.179688 16.730469 30.339844 17.792969 Z M 30.339844 17.792969 " fill-opacity="1" fill-rule="nonzero"/></g><path fill="#754c24" d="M 19.101562 14.410156 C 18.277344 14.242188 17.207031 14.242188 16.492188 14.746094 C 16.300781 14.886719 16.082031 15.109375 15.914062 15.332031 C 15.777344 15.472656 15.640625 15.640625 15.558594 15.835938 C 15.257812 16.5625 15.394531 17.542969 15.722656 18.214844 C 16.546875 19.890625 18.746094 20.144531 19.84375 18.605469 C 20.832031 17.320312 21.164062 14.828125 19.101562 14.410156 Z M 18.882812 17.542969 C 18.003906 19.277344 16.792969 18.019531 16.601562 16.898438 C 16.683594 16.871094 16.738281 16.84375 16.820312 16.789062 C 17.070312 16.589844 17.097656 16.3125 17.289062 16.117188 C 17.5625 15.863281 18.003906 15.890625 18.332031 15.890625 C 18.773438 15.921875 19.128906 15.921875 19.210938 16.453125 C 19.210938 16.789062 19.019531 17.234375 18.882812 17.542969 Z M 18.882812 17.542969 " fill-opacity="1" fill-rule="nonzero"/></g></g></g><g mask="url(#585b8ec815)"><g transform="matrix(1, 0, 0, 1, 1341, 699)"><g clip-path="url(#e4fab3dba6)"><g clip-path="url(#bcf46ee277)"><path fill="#ffbb40" d="M 33.796875 11.902344 C 32.835938 9.441406 30.0625 9.132812 27.808594 9.46875 C 26.324219 9.695312 24.894531 10.199219 23.523438 10.839844 C 24.511719 9.21875 25.089844 7.34375 24.949219 5.441406 C 24.703125 2.449219 21.902344 0.378906 19.015625 0.519531 C 16.707031 0.632812 14.34375 2.03125 13.742188 4.433594 C 13.382812 5.804688 13.632812 7.230469 14.097656 8.546875 C 14.234375 8.9375 15.140625 10.617188 15.253906 11.398438 C 15.226562 11.398438 15.140625 11.371094 15.058594 11.289062 C 14.894531 11.148438 14.675781 11.007812 14.511719 10.867188 C 14.042969 10.476562 13.578125 10.058594 13.109375 9.664062 C 12.121094 8.855469 11.074219 8.097656 9.894531 7.625 C 7.039062 6.503906 3.851562 7.734375 2.035156 10.167969 C 0.25 12.601562 1.101562 15.175781 3.464844 16.742188 C 4.785156 17.609375 6.269531 18.113281 7.808594 18.195312 C 4.757812 20.828125 3.519531 25.246094 5.992188 28.9375 C 7.121094 30.617188 9.042969 31.988281 11.046875 32.265625 C 13.054688 32.519531 14.566406 31.371094 15.5 29.664062 C 16.40625 28.042969 16.816406 26.195312 17.367188 24.460938 C 17.449219 24.183594 17.808594 22.980469 18.027344 22.980469 C 18.109375 22.980469 18.796875 24.882812 18.90625 25.160156 C 19.8125 27.148438 21.296875 28.9375 23.109375 30.113281 C 25.171875 31.484375 27.148438 31.371094 28.824219 29.496094 C 30.363281 27.761719 32.09375 25.386719 30.941406 22.980469 C 30.199219 21.441406 28.824219 20.460938 27.285156 19.847656 C 31.160156 18.839844 35.5 16.296875 33.796875 11.902344 Z M 15.253906 11.398438 C 15.226562 11.398438 15.199219 11.429688 15.167969 11.457031 C 15.199219 11.398438 15.226562 11.398438 15.253906 11.398438 Z M 30.089844 17.46875 C 28.332031 18.503906 26.269531 18.925781 24.265625 19.0625 C 23.441406 19.121094 23.496094 20.210938 24.265625 20.324219 C 26.351562 20.601562 29.265625 21.609375 29.980469 23.902344 C 30.554688 25.777344 28.523438 28.460938 27.066406 29.46875 C 25.335938 30.671875 23.191406 28.769531 22.011719 27.539062 C 21.242188 26.726562 20.609375 25.804688 20.117188 24.796875 C 19.757812 24.042969 19.539062 23.203125 19.125 22.503906 C 18.660156 21.695312 17.753906 21.46875 17.09375 22.195312 C 16.351562 23.007812 16.132812 24.378906 15.828125 25.386719 C 15.390625 26.925781 14.921875 28.601562 13.933594 29.859375 C 12.394531 31.792969 9.976562 31.007812 8.300781 29.664062 C 6.652344 28.351562 5.664062 26.253906 5.800781 24.070312 C 5.992188 21.105469 8.136719 18.980469 10.691406 17.832031 C 11.351562 17.527344 10.882812 16.492188 10.222656 16.6875 C 8.027344 17.300781 5.828125 16.882812 3.988281 15.625 C 3.027344 14.953125 2.09375 13.972656 2.203125 12.6875 C 2.339844 11.09375 3.769531 9.722656 5.085938 9.023438 C 7.722656 7.597656 10.195312 8.769531 12.3125 10.53125 C 13.054688 11.148438 14.648438 13.21875 15.800781 12.519531 C 16.160156 12.296875 16.160156 11.902344 15.964844 11.625 C 15.964844 11.398438 15.910156 11.148438 15.828125 10.925781 C 15.554688 9.945312 15.058594 9.023438 14.785156 8.070312 C 13.988281 5.441406 14.621094 2.839844 17.3125 1.804688 C 19.921875 0.800781 23.550781 2.421875 23.769531 5.46875 C 23.960938 8.042969 22.699219 10.671875 20.855469 12.351562 C 20.390625 12.769531 20.996094 13.582031 21.542969 13.246094 C 23.027344 12.324219 24.59375 11.566406 26.269531 11.0625 C 28.136719 10.53125 31.40625 9.945312 32.535156 12.097656 C 33.769531 14.394531 31.929688 16.40625 30.089844 17.46875 Z M 30.089844 17.46875 " fill-opacity="1" fill-rule="nonzero"/></g><path fill="#754c24" d="M 18.851562 14.085938 C 18.027344 13.917969 16.957031 13.917969 16.242188 14.421875 C 16.050781 14.5625 15.828125 14.785156 15.664062 15.007812 C 15.527344 15.148438 15.390625 15.316406 15.308594 15.511719 C 15.003906 16.238281 15.140625 17.21875 15.472656 17.890625 C 16.296875 19.566406 18.496094 19.820312 19.59375 18.28125 C 20.582031 16.996094 20.910156 14.503906 18.851562 14.085938 Z M 18.632812 17.21875 C 17.753906 18.953125 16.542969 17.695312 16.351562 16.574219 C 16.433594 16.546875 16.488281 16.519531 16.570312 16.460938 C 16.816406 16.265625 16.847656 15.988281 17.039062 15.792969 C 17.3125 15.539062 17.753906 15.566406 18.082031 15.566406 C 18.523438 15.597656 18.878906 15.597656 18.960938 16.128906 C 18.960938 16.460938 18.769531 16.910156 18.632812 17.21875 Z M 18.632812 17.21875 " fill-opacity="1" fill-rule="nonzero"/></g></g></g><g mask="url(#15aa704ae1)"><g transform="matrix(1, 0, 0, 1, 506, 731)"><g clip-path="url(#ca3556d88e)"><g clip-path="url(#b6c720af21)"><path fill="#ffe4b3" d="M 36.921875 18.953125 C 37.445312 18.109375 37.445312 17.003906 37.027344 16.214844 C 37.183594 15.269531 36.816406 14.164062 36.027344 13.480469 C 36.449219 11.589844 34.765625 9.273438 32.503906 10.429688 C 30.453125 11.484375 28.402344 12.480469 26.296875 13.429688 C 27.875 11.589844 29.398438 9.800781 30.976562 8.0625 C 32.609375 6.222656 30.820312 4.121094 28.875 4.066406 C 28.453125 3.171875 27.558594 2.59375 26.613281 2.488281 C 25.929688 1.859375 24.824219 1.542969 23.824219 1.804688 C 23.140625 1.121094 22.089844 0.804688 21.195312 0.964844 C 19.722656 0.226562 17.355469 1.015625 17.09375 3.226562 C 16.933594 4.910156 16.777344 6.589844 16.621094 8.273438 C 16.039062 7.328125 15.460938 6.433594 14.882812 5.488281 C 14.832031 5.277344 14.726562 5.117188 14.566406 4.910156 C 14.410156 4.539062 14.148438 4.171875 13.9375 3.855469 C 12.726562 2.121094 10.519531 2.488281 9.464844 3.699219 C 8.519531 3.910156 7.679688 4.699219 7.363281 5.699219 C 6.414062 5.90625 5.574219 6.589844 5.207031 7.433594 C 3.785156 8.273438 3.15625 10.695312 4.890625 12.113281 C 6.207031 13.164062 7.519531 14.21875 8.886719 15.21875 C 7.785156 15.164062 6.679688 15.164062 5.628906 15.164062 C 5.417969 15.113281 5.207031 15.113281 4.941406 15.113281 C 4.523438 15.113281 4.101562 15.113281 3.679688 15.164062 C 1.578125 15.21875 0.628906 17.269531 1.105469 18.792969 C 0.789062 19.6875 1 20.84375 1.628906 21.632812 C 1.261719 22.527344 1.417969 23.632812 1.945312 24.367188 C 1.945312 26 3.628906 27.890625 5.730469 27.207031 C 7.363281 26.683594 8.941406 26.15625 10.519531 25.578125 C 9.886719 26.472656 9.257812 27.367188 8.675781 28.3125 C 8.519531 28.472656 8.414062 28.628906 8.257812 28.839844 C 8.046875 29.207031 7.835938 29.523438 7.625 29.890625 C 6.519531 31.679688 7.785156 33.574219 9.308594 34.046875 C 9.886719 34.78125 10.9375 35.253906 11.992188 35.148438 C 12.570312 35.9375 13.515625 36.414062 14.464844 36.359375 C 15.25 36.886719 16.410156 36.992188 17.355469 36.570312 C 18.933594 37.726562 21.667969 37.148438 21.5625 34.625 C 21.457031 32.308594 21.40625 30.046875 21.351562 27.734375 C 22.40625 29.839844 23.402344 31.996094 24.351562 34.097656 C 25.351562 36.308594 27.980469 35.570312 28.875 33.835938 C 29.875 33.78125 30.765625 33.203125 31.242188 32.414062 C 32.136719 32.046875 32.820312 31.152344 32.976562 30.101562 C 34.816406 29.417969 35.816406 26.789062 33.609375 25.527344 C 31.609375 24.367188 29.664062 23.160156 27.71875 21.949219 C 30.03125 22.210938 32.398438 22.527344 34.710938 22.894531 C 37.132812 23.265625 37.921875 20.632812 36.921875 18.953125 Z M 36.921875 18.953125 " fill-opacity="1" fill-rule="nonzero"/></g><path fill="#ffffff" d="M 20.25 24.421875 C 18.144531 24.421875 16.566406 23.949219 15.199219 22.84375 C 14.09375 22 13.410156 20.898438 13.148438 19.53125 C 12.886719 18.003906 13.304688 16.742188 14.253906 15.585938 C 14.621094 15.164062 15.042969 14.796875 15.566406 14.535156 C 15.726562 14.429688 15.9375 14.324219 16.09375 14.21875 C 16.722656 13.746094 17.460938 13.535156 18.25 13.480469 C 19.25 13.375 20.144531 13.480469 21.089844 13.847656 C 22.300781 14.269531 23.351562 14.953125 24.191406 15.953125 C 25.402344 17.375 25.769531 19.003906 25.351562 20.792969 C 25.035156 22.160156 24.191406 23.160156 22.929688 23.789062 C 21.984375 24.210938 20.933594 24.421875 20.25 24.421875 Z M 20.25 24.421875 " fill-opacity="1" fill-rule="nonzero"/></g></g></g></svg>